M48
;Layer_Color=9474304
;FILE_FORMAT=2:4
INCH
;TYPE=PLATED
T1F00S00C0.0100
T2F00S00C0.0120
T3F00S00C0.0200
T4F00S00C0.0250
T5F00S00C0.0300
T6F00S00C0.0354
T7F00S00C0.1000
;TYPE=NON_PLATED
T8F00S00C0.0197
T9F00S00C0.1250
%
T01
X000962Y-013787
X000612Y-010687
X000312
X004162Y-010709
Y-010287
Y-011221
X004862Y-010837
X005112Y-011387
X005612Y-011271
X006012Y-012437
X006412
X006286Y-013937
X007662Y-013937
X006412Y-015438
X006012
X004862Y-010037
X004005Y-009387
X011512Y-010687
X011812
X012162Y-013787
X017486Y-013937
X017612Y-015438
X017212
Y-012437
X017612
X017962
X016812Y-011271
X016312Y-011387
X016062Y-010837
Y-010037
X015362Y-010287
Y-010709
Y-011221
X015205Y-009387
X027100Y005910
X027400Y006050
X027350Y006600
X027100Y006650
X028000Y005700
X029900Y005950
X030750Y005800
X030370Y006550
X030550Y006900
X030850Y006950
X031400Y006900
X029550Y006700
X031750Y005150
X032225Y005525
X032400Y005700
X032600Y005900
X033100Y005850
X026250Y005900
X026000Y005750
X025600Y005650
X025250Y005950
X025550Y006400
X024300Y006150
X023790Y006110
X023530Y006270
X023012Y006250
X022600
X021300Y006350
X021060Y006950
X021430Y007710
X023070Y007680
X023750Y007650
X023900Y007410
X024380Y007850
X024648
X026100Y007800
X026750Y007200
X025000Y004950
X023440Y004890
X022665Y003825
X022850Y003000
X023760Y003030
X024010Y003020
X024921Y002205
X024764Y001929
X025433Y002283
X025315Y002559
X022874Y001457
X022362Y001496
X022047
X021496Y001260
X021024
X020512Y001220
X018950Y004010
X019150Y006150
X017250Y006493
X016600Y006850
X016160Y006890
X015740Y007090
X014700Y006650
X014100Y007000
X013600Y006950
X013450Y007450
X012700Y006890
X012450Y007050
X012150Y007150
Y007410
X011800Y007450
X013000Y006500
X013500Y005000
X012913Y002795
X011648Y002396
X015669Y001535
X016220
X016732Y003150
X015748Y003307
X015205Y-001237
X015362Y-002137
Y-002559
Y-003071
X016062Y-002687
Y-001887
X016312Y-003237
X016812Y-003121
X017212Y-004287
X017612
X017962
X017486Y-005787
X017612Y-007288
X017212
X012162Y-005637
X011812Y-002537
X011512
X017750Y007700
X020900Y005450
X021200Y005300
X021500Y005200
X021750Y004650
X009750Y004900
X009300Y005050
Y005450
X009000Y005250
X008700Y005050
X006700Y004700
Y004050
X006648Y002396
X006181Y001535
X005669
X004862Y-001887
Y-002687
X005112Y-003237
X005612Y-003121
X004162Y-003071
Y-002559
Y-002137
X004005Y-001237
X000612Y-002537
X000312
X000962Y-005637
X006286Y-005787
X006412Y-007288
X006012
Y-004287
X006412
X006762
X010612Y-006587
X011181Y001496
X011142Y002402
X008390Y007240
X006750Y007400
X004557Y007147
X005100Y005700
X005350Y008600
X005043Y008800
X004700Y009000
X004900Y009250
X005150Y009800
X005350Y010000
X005150Y010200
X005350Y010400
X005150Y010600
X004850
X004600Y010300
X003950Y009850
X005800Y009350
X006650Y008750
X008400Y008850
X008550Y008250
X008753Y008103
X008953Y008253
X009153Y008103
X010600Y008200
X011150Y008250
X010700Y011000
X010500Y010840
X010300Y011000
X009950Y010500
X008537Y011113
X008600Y011600
Y012350
X008550Y012900
X008350Y013200
X008100Y013100
X008860Y013180
X010120Y013290
X010500Y012550
X008100Y011250
X007150Y011700
X006750Y011150
X005100Y011200
X005500Y013450
X005510Y013760
X006160Y014710
X006700Y014750
X006950Y015300
X007278Y015228
X007550Y014450
X008550Y016850
X001450Y017100
Y016500
Y015900
Y015300
Y014700
X002500Y013400
Y011500
X002150Y011300
X001450Y010450
Y009850
Y009250
X000450Y018450
X013996Y017933
Y017633
Y017333
Y017033
Y016733
Y016433
Y016133
Y015833
Y015533
Y015233
Y014933
Y014633
Y014333
X014296
Y014633
Y014933
Y015233
Y015533
Y015833
Y016133
Y016433
Y016733
Y017033
Y017333
Y017633
Y017933
X014596
Y017633
Y017333
Y017033
Y016733
Y016433
Y016133
X014896Y016433
Y016733
Y017033
Y017333
Y017633
Y017933
X015196
Y017633
Y017333
Y017033
Y016733
X015496
Y017033
Y017333
Y017633
Y017933
Y018233
X015196
Y018533
Y018833
Y019133
Y019433
Y019733
Y020033
X015496
Y019733
Y019433
Y019133
Y018833
Y018533
X015796
Y018233
Y017933
Y017633
Y017333
Y017033
X016696Y017333
Y017633
Y017933
Y018233
Y018533
Y018833
Y019133
Y019433
Y019733
Y020033
X016996
Y019733
Y019433
Y019133
Y018833
Y018533
Y018233
Y017933
Y017633
Y017333
X017296
Y017633
Y017933
Y018233
Y018533
Y018833
Y019133
Y019433
Y019733
Y020033
X015796
Y019733
Y019433
Y019133
Y018833
X017596Y017933
X017896
X018196
X018496
X018796
Y017633
Y017333
Y017033
Y016733
X018496
X018196
X017896
X017296Y016133
X016996
X016696
Y015833
X016996
Y015533
X017296
Y015833
Y014933
X016996
X017296Y014633
Y014333
Y014033
Y013733
X016996
Y013433
Y013133
X017296
Y012833
Y012533
Y012233
Y011933
X016396
X016096
Y012233
X015796
Y012533
Y012833
Y013133
Y013433
X015496
X014896
X014596
X014896Y012833
Y012533
Y011933
X014596
X014296
X013996
Y012233
X016096Y012533
Y012833
Y013133
Y013433
X016396Y012833
Y012533
Y012233
X017296Y013433
X015796Y014333
Y014633
Y014933
Y015233
Y015533
X017896
X018196
X018496
X019000Y015550
X018796Y015833
Y016133
Y016433
Y018233
Y018533
Y018833
Y019133
Y019433
Y019733
X019450Y015250
X019851Y015116
X019921Y015709
X020650Y015550
X021100Y015300
X021500Y015550
X021870Y015260
X022650Y015100
X022900Y015000
X023150Y014790
X023050Y014550
X022800Y014450
X022950Y013400
X023200Y013550
X023750Y013450
X024000Y013800
X024250Y013700
X024300Y014300
X023900Y014250
X024857Y013893
X024950Y014550
X025500
X025800
X026140Y014900
X026450Y014650
X026500Y012450
X026250Y012500
X025650Y012250
X025400Y012050
X025600Y011850
X025900Y012000
X026060Y010910
Y010610
X026150Y010350
X025540Y009960
X024882Y009764
X024200Y010150
X023950Y010100
X023650Y010050
Y010400
X023330Y010300
X023000Y010330
X023250Y011100
X023400Y011300
X023450Y010900
X023100Y011500
X023250Y011700
X023100Y011900
X023690Y011910
X022850Y013050
X022250Y012900
X021440Y013560
X021200Y013650
X021255Y013391
X021440Y014050
X020860Y013920
X020600Y013950
X020250Y013590
X021000Y014340
X019260Y014460
X021043Y012200
X021050Y011650
X020750Y011400
X021400Y011400
X021700Y011500
X021100Y010700
X021000Y010300
X021400Y010200
Y009920
Y009620
X021250Y009400
X021200Y008650
X021300Y008250
X021420Y008000
X021500Y008450
X022150Y009000
X022500
X022850Y009300
X023360Y009090
X023650Y009200
X023800Y007950
X025700Y009050
X026300Y008950
X020400Y008840
X019650Y009040
X019340Y009190
X018700Y009400
X018950Y010500
X017000Y009400
X017150Y009200
X017300Y009000
X017450Y008800
X017600Y008600
Y008300
X017750Y008050
X016900Y008150
X016550
X016200
X016283Y009100
X015000Y009050
X014600Y009500
X014634Y008116
X014201
X012200Y008200
X012875Y010475
X013100Y010320
X024650Y016100
X027800Y014300
X027740Y013900
X027500Y013590
X028050Y013490
X028300Y013600
X028850Y013300
X028740Y013070
X028750Y014000
X028770Y014440
X029840Y014320
X029930Y013520
Y012590
X030290Y012460
X030470Y012190
X030220Y012020
X029950Y011950
Y011500
X028550
X027520Y011690
X027250Y012200
X027400Y012850
X028100Y010700
X028400Y009700
X028500Y009300
X029000Y008500
X030200Y008050
X029500Y009800
X029200Y010000
X026950Y009000
X027000Y008700
X033370Y008960
X032520Y012047
X032205Y013032
X030910Y012920
X030750Y012450
X031280Y013590
X030850Y014190
X031770Y014170
X032870Y014190
X033860Y014160
T02
X002107Y-011369
X002462Y-011369
X002816Y-011369
X002816Y-011015
X002816Y-010660
X002816Y-010306
X002462Y-010306
X002108Y-010306
X002108Y-010660
X002462Y-010660
X002462Y-011015
X002107Y-011014
X013307
X013308Y-010660
X013308Y-010306
X013662Y-010306
X014016Y-010306
X014016Y-010660
X013662Y-010660
X013662Y-011015
X013662Y-011369
X014016Y-011369
X014016Y-011015
X013307Y-011369
Y-003219
X013662Y-003219
X014016Y-003219
X014016Y-002865
X014016Y-002510
X014016Y-002156
X013662Y-002156
X013308Y-002156
X013308Y-002510
X013662Y-002510
X013662Y-002865
X013307Y-002864
X002816Y-002865
X002816Y-002510
X002816Y-002156
X002462Y-002156
X002108Y-002156
X002108Y-002510
X002462Y-002510
X002462Y-002865
X002462Y-003219
X002816Y-003219
X002107Y-003219
X002107Y-002864
T03
X033661Y006890
X010362Y-002987
X009662Y-003037
X007762
X032205Y008885
T04
X000412Y-012137
X011612
X034252Y004134
Y004921
X026750Y006450
X011612Y-003987
X000412
X010750Y009100
T05
X003750Y010313
Y011101
Y011888
Y012676
Y013463
Y014250
Y015038
Y015825
Y016613
Y017400
X012411
Y016613
Y015825
Y015038
Y014250
Y013463
Y012676
Y011888
Y011101
Y010313
T06
X002262Y-016537
X003262
X004262
X005262
X006262
X007612Y-016587
X008612
X009612
X010612
X009612Y-013987
Y-012988
Y-011988
X008612
Y-012988
Y-013987
X008612Y-010487
X009612
X010612
Y-009487
Y-008487
X009612
X008612
X007612
Y-009487
Y-010487
X008612Y-009487
X009612
X006262Y-008387
X005262
X004262
X003262
X002262
X013462
X014462
X015462
X016462
X017462
Y-016537
X016462
X015462
X014462
X013462
X027250Y003450
Y004450
X028250
X029250
X030250
X031250
X032250
Y003450
X031250
X030250
X029250
X028250
X031244Y001181
X032244
X033750Y007650
X034750
X026250Y004450
X025250
X024250
X023250
Y003450
X024250
X025250
X026250
X022250
Y004450
X021250
X020250
X019250
X018250
X017250
X016250
X015250
X014250
X013250
X012250
Y003450
X013250
X014250
X015250
X016250
X017250
X018250
X019250
X020250
X021250
X020250Y006900
X019250
X012250Y006400
X011250
Y004450
Y003450
X010250
X009250
Y004450
X010250
Y006400
X009250
X001700Y006450
Y005450
X000700
Y006450
Y007450
X001700
Y004450
X000700
Y003450
X001700
X007662Y-001287
Y-002287
X008662
X009662
X010662
Y-001287
X009662
X008662
X008612Y-003887
Y-004887
Y-005887
X009612
Y-004887
Y-003887
Y-007487
X008612
X007612
X010612
X019250Y007900
X020250
X020250Y009900
X019250
Y010900
Y011900
X020250
Y012900
X019250
X020250Y010900
X022250Y015700
X023250
X024250
X025250
Y016700
Y017700
X024250
Y016700
X023250
Y017700
X022250
Y016700
X027250
X028250
X029250
X030250
X031250
X032250
X033250
X034250
Y017700
X033250
X032250
X031250
X030250
X029250
X028250
X027250
Y015700
X028250
X029250
X030250
X031250
X032250
X033250
X034250
X033750Y010650
Y009650
Y008650
X034750
Y009650
Y010650
T07
X000862Y-016207
Y-008057
X006162Y-009907
X012062Y-008057
X017362Y-009907
X012062Y-016207
X017362Y-001757
X006162
T08
X000947Y-008987
X001262
X002752
X003067
X003382
X003697
X004012
X005502
X005817
X006132
X006447
X006762
X011462
X011777
X012092
X012407
X012722
X014212
X014527
X014842
X015157
X015472
X016962
X017277
X011683Y-000787
Y000000
X011053
X010738
X010423
X010108
X009793
X009478
X009163
X008848
X008533
X008219
X007904
X007589
X007274
X006959
X006644
Y-000787
X006959
X007274
X007589
X007904
X008219
X008533
X008848
X009163
X009478
X009793
X010108
X010423
X010738
X011053
T09
X034050Y001200
X001200
X002750Y019200
X020500Y016950
M30
