G04 Layer_Color=8421504*
%FSLAX25Y25*%
%MOIN*%
G70*
G01*
G75*
%ADD12R,0.08268X0.11811*%
%ADD13R,0.03150X0.05118*%
%ADD14R,0.02362X0.02165*%
%ADD15R,0.02165X0.02362*%
%ADD17R,0.02559X0.01969*%
%ADD18R,0.03937X0.02953*%
%ADD19R,0.02756X0.07087*%
%ADD20R,0.03150X0.07087*%
G04:AMPARAMS|DCode=22|XSize=23.62mil|YSize=21.65mil|CornerRadius=0mil|HoleSize=0mil|Usage=FLASHONLY|Rotation=135.000|XOffset=0mil|YOffset=0mil|HoleType=Round|Shape=Rectangle|*
%AMROTATEDRECTD22*
4,1,4,0.01601,-0.00070,0.00070,-0.01601,-0.01601,0.00070,-0.00070,0.01601,0.01601,-0.00070,0.0*
%
%ADD22ROTATEDRECTD22*%

%ADD23R,0.00866X0.02756*%
%ADD24R,0.04134X0.03937*%
%ADD25R,0.08661X0.04134*%
%ADD26R,0.01673X0.01378*%
%ADD27R,0.04724X0.08661*%
%ADD28R,0.14173X0.08661*%
%ADD29R,0.06299X0.04921*%
%ADD31R,0.09449X0.02953*%
%ADD32R,0.05118X0.11024*%
%ADD33R,0.03937X0.03543*%
%ADD34R,0.08268X0.05807*%
%ADD35R,0.05433X0.01772*%
%ADD36R,0.07480X0.09350*%
%ADD37R,0.07480X0.04626*%
%ADD38R,0.06299X0.01181*%
%ADD39R,0.02953X0.03937*%
%ADD40O,0.07677X0.02362*%
%ADD41O,0.02362X0.07677*%
%ADD42R,0.01654X0.05118*%
%ADD43O,0.07087X0.01654*%
%ADD44R,0.05118X0.10630*%
%ADD45R,0.11000X0.21000*%
%ADD46R,0.09488X0.14370*%
D12*
X296476Y8630D02*
D03*
X256713D02*
D03*
X191791D02*
D03*
X241398D02*
D03*
X126516D02*
D03*
X91673D02*
D03*
X41673D02*
D03*
X76516D02*
D03*
X220079Y107413D02*
D03*
X254921D02*
D03*
Y137413D02*
D03*
X220079D02*
D03*
Y77413D02*
D03*
X254921D02*
D03*
X176516Y8630D02*
D03*
X141673D02*
D03*
D13*
X271673Y19457D02*
D03*
X276594D02*
D03*
X281516D02*
D03*
X286437D02*
D03*
X266752D02*
D03*
X201831D02*
D03*
X206752D02*
D03*
X216595D02*
D03*
X221516D02*
D03*
X226437D02*
D03*
X231358D02*
D03*
X211673D02*
D03*
X116476D02*
D03*
X111555D02*
D03*
X106634D02*
D03*
X101713D02*
D03*
X51713D02*
D03*
X56634D02*
D03*
X61555D02*
D03*
X66476D02*
D03*
X230118Y96587D02*
D03*
X235039D02*
D03*
X239961D02*
D03*
X244882D02*
D03*
Y126587D02*
D03*
X239961D02*
D03*
X235039D02*
D03*
X230118D02*
D03*
Y66587D02*
D03*
X235039D02*
D03*
X239961D02*
D03*
X244882D02*
D03*
X166476Y19457D02*
D03*
X161555D02*
D03*
X156634D02*
D03*
X151713D02*
D03*
D14*
X62118Y-34941D02*
D03*
Y-30807D02*
D03*
X174118D02*
D03*
Y-34941D02*
D03*
X62118Y-116441D02*
D03*
Y-112307D02*
D03*
X174118D02*
D03*
Y-116441D02*
D03*
X152500Y131067D02*
D03*
Y126933D02*
D03*
X145000Y131067D02*
D03*
Y126933D02*
D03*
X162500Y163067D02*
D03*
Y158933D02*
D03*
X150000Y149933D02*
D03*
Y154067D02*
D03*
X166000Y139433D02*
D03*
Y143567D02*
D03*
X167500Y121933D02*
D03*
Y126067D02*
D03*
X172500Y69067D02*
D03*
Y64933D02*
D03*
X299000Y81583D02*
D03*
Y77449D02*
D03*
X308500Y66567D02*
D03*
Y62433D02*
D03*
X55000Y141433D02*
D03*
Y145567D02*
D03*
X290000Y80567D02*
D03*
Y76433D02*
D03*
X162500Y166933D02*
D03*
Y171067D02*
D03*
X176000Y152567D02*
D03*
Y148433D02*
D03*
X115618Y-110807D02*
D03*
Y-114941D02*
D03*
Y-99307D02*
D03*
Y-103441D02*
D03*
X3618Y-110807D02*
D03*
Y-114941D02*
D03*
Y-99307D02*
D03*
Y-103441D02*
D03*
X115618Y-17807D02*
D03*
Y-21941D02*
D03*
Y-29307D02*
D03*
Y-33441D02*
D03*
X3618Y-17807D02*
D03*
Y-21941D02*
D03*
Y-29307D02*
D03*
Y-33441D02*
D03*
D15*
X91567Y92000D02*
D03*
X87433D02*
D03*
X76067Y96000D02*
D03*
X71933D02*
D03*
X158433Y163000D02*
D03*
X162567D02*
D03*
X140433Y139500D02*
D03*
X144567D02*
D03*
X166567Y153000D02*
D03*
X162433D02*
D03*
Y167000D02*
D03*
X166567D02*
D03*
X166067Y139433D02*
D03*
X161933D02*
D03*
X105533Y121600D02*
D03*
X109667D02*
D03*
X105433Y118000D02*
D03*
X109567D02*
D03*
X76067Y92000D02*
D03*
X71933D02*
D03*
X277433Y69500D02*
D03*
X281567D02*
D03*
X278067Y94500D02*
D03*
X273933D02*
D03*
X71933Y87000D02*
D03*
X76067D02*
D03*
Y83000D02*
D03*
X71933D02*
D03*
X76067Y79000D02*
D03*
X71933D02*
D03*
X44551Y-114374D02*
D03*
X48685D02*
D03*
Y-118374D02*
D03*
X44551D02*
D03*
X160685D02*
D03*
X156551D02*
D03*
Y-114374D02*
D03*
X160685D02*
D03*
X156551Y-98374D02*
D03*
X160685D02*
D03*
X156551Y-110374D02*
D03*
X160685D02*
D03*
Y-106374D02*
D03*
X156551D02*
D03*
Y-102374D02*
D03*
X160685D02*
D03*
X44551Y-98374D02*
D03*
X48685D02*
D03*
X44551Y-110374D02*
D03*
X48685D02*
D03*
Y-106374D02*
D03*
X44551D02*
D03*
Y-102374D02*
D03*
X48685D02*
D03*
X156551Y-20874D02*
D03*
X160685D02*
D03*
X44551D02*
D03*
X48685D02*
D03*
X160685Y-24874D02*
D03*
X156551D02*
D03*
Y-28874D02*
D03*
X160685D02*
D03*
X156551Y-16874D02*
D03*
X160685D02*
D03*
X156551Y-32874D02*
D03*
X160685D02*
D03*
Y-36874D02*
D03*
X156551D02*
D03*
X48685Y-24874D02*
D03*
X44551D02*
D03*
Y-28874D02*
D03*
X48685D02*
D03*
X44551Y-16874D02*
D03*
X48685D02*
D03*
X44551Y-32874D02*
D03*
X48685D02*
D03*
Y-36874D02*
D03*
X44551D02*
D03*
D17*
X309075Y127150D02*
D03*
X305925D02*
D03*
X312224D02*
D03*
X302776D02*
D03*
X312224Y133450D02*
D03*
X302776D02*
D03*
X309075D02*
D03*
X305925D02*
D03*
X323775Y127150D02*
D03*
X320625D02*
D03*
X326924D02*
D03*
X317476D02*
D03*
X326924Y133450D02*
D03*
X317476D02*
D03*
X323775D02*
D03*
X320625D02*
D03*
X305925Y144650D02*
D03*
X309075D02*
D03*
X302776D02*
D03*
X312224D02*
D03*
X302776Y138350D02*
D03*
X312224D02*
D03*
X305925D02*
D03*
X309075D02*
D03*
X320625Y144650D02*
D03*
X323775D02*
D03*
X317476D02*
D03*
X326924D02*
D03*
X317476Y138350D02*
D03*
X326924D02*
D03*
X320625D02*
D03*
X323775D02*
D03*
D18*
X59000Y72646D02*
D03*
Y78354D02*
D03*
X59000Y89354D02*
D03*
Y83646D02*
D03*
X299000Y72370D02*
D03*
Y66661D02*
D03*
D19*
X172323Y113701D02*
D03*
X137677D02*
D03*
X172323Y76299D02*
D03*
X137677D02*
D03*
D20*
X167992Y113701D02*
D03*
X163661D02*
D03*
X159331D02*
D03*
X155000D02*
D03*
X150669D02*
D03*
X146339D02*
D03*
X142008D02*
D03*
X167992Y76299D02*
D03*
X163661D02*
D03*
X159331D02*
D03*
X155000D02*
D03*
X150669D02*
D03*
X146339D02*
D03*
X142008D02*
D03*
D22*
X151539Y158538D02*
D03*
X154462Y161461D02*
D03*
D23*
X150031Y139689D02*
D03*
X152000D02*
D03*
X153969D02*
D03*
X150031Y143311D02*
D03*
X152000D02*
D03*
X153969D02*
D03*
D24*
X173799Y167000D02*
D03*
D25*
X180000Y161193D02*
D03*
Y172807D02*
D03*
D26*
X166000Y134468D02*
D03*
X164868Y130532D02*
D03*
X167132D02*
D03*
Y132500D02*
D03*
X164868D02*
D03*
D27*
X317500Y76295D02*
D03*
X308445D02*
D03*
X326555D02*
D03*
D28*
X317500Y100705D02*
D03*
D29*
X316087Y63500D02*
D03*
X326913D02*
D03*
D31*
X58823Y57000D02*
D03*
Y52000D02*
D03*
Y47000D02*
D03*
Y42000D02*
D03*
Y37000D02*
D03*
X74177Y57000D02*
D03*
Y52000D02*
D03*
Y47000D02*
D03*
Y42000D02*
D03*
Y37000D02*
D03*
D32*
X55500Y160500D02*
D03*
X65500D02*
D03*
X95500D02*
D03*
X105500D02*
D03*
X75500D02*
D03*
X85500D02*
D03*
D33*
X4350Y179929D02*
D03*
Y196071D02*
D03*
X10650Y179929D02*
D03*
Y196071D02*
D03*
D34*
X14764Y134195D02*
D03*
Y114805D02*
D03*
D35*
X16181Y119382D02*
D03*
Y121941D02*
D03*
Y124500D02*
D03*
Y127059D02*
D03*
Y129618D02*
D03*
D36*
X5709Y113033D02*
D03*
Y135967D02*
D03*
D37*
Y121203D02*
D03*
Y127797D02*
D03*
D38*
X107500Y133000D02*
D03*
Y129260D02*
D03*
Y136740D02*
D03*
D39*
X10354Y101713D02*
D03*
X4646D02*
D03*
X10354Y89713D02*
D03*
X4646D02*
D03*
X10354Y95713D02*
D03*
X4646D02*
D03*
X10354Y171213D02*
D03*
X4646D02*
D03*
X10354Y165213D02*
D03*
X4646D02*
D03*
X10354Y159213D02*
D03*
X4646D02*
D03*
X10354Y153213D02*
D03*
X4646D02*
D03*
X10354Y147213D02*
D03*
X4646D02*
D03*
D40*
X94232Y110476D02*
D03*
Y113626D02*
D03*
Y116776D02*
D03*
Y119925D02*
D03*
Y123075D02*
D03*
Y126224D02*
D03*
Y129374D02*
D03*
Y132524D02*
D03*
X60768D02*
D03*
Y129374D02*
D03*
Y126224D02*
D03*
Y123075D02*
D03*
Y119925D02*
D03*
Y116776D02*
D03*
Y113626D02*
D03*
Y110476D02*
D03*
D41*
X88524Y138232D02*
D03*
X85374D02*
D03*
X82224D02*
D03*
X79075D02*
D03*
X75925D02*
D03*
X72776D02*
D03*
X69626D02*
D03*
X66476D02*
D03*
Y104768D02*
D03*
X69626D02*
D03*
X72776D02*
D03*
X75925D02*
D03*
X79075D02*
D03*
X82224D02*
D03*
X85374D02*
D03*
X88524D02*
D03*
D42*
X275661Y77874D02*
D03*
X278221D02*
D03*
X280780D02*
D03*
X283339D02*
D03*
X275661Y87126D02*
D03*
X278221D02*
D03*
X280780D02*
D03*
X283339D02*
D03*
D43*
X269807Y104323D02*
D03*
Y106882D02*
D03*
Y109441D02*
D03*
Y112000D02*
D03*
Y114559D02*
D03*
Y117118D02*
D03*
Y119677D02*
D03*
X293193D02*
D03*
Y117118D02*
D03*
Y114559D02*
D03*
Y112000D02*
D03*
Y109441D02*
D03*
Y106882D02*
D03*
Y104323D02*
D03*
X269807Y129323D02*
D03*
Y131882D02*
D03*
Y134441D02*
D03*
Y137000D02*
D03*
Y139559D02*
D03*
Y142118D02*
D03*
Y144677D02*
D03*
X293193D02*
D03*
Y142118D02*
D03*
Y139559D02*
D03*
Y137000D02*
D03*
Y134441D02*
D03*
Y131882D02*
D03*
Y129323D02*
D03*
X12925Y-117331D02*
D03*
Y-114772D02*
D03*
Y-112213D02*
D03*
Y-109653D02*
D03*
Y-107095D02*
D03*
Y-104535D02*
D03*
Y-101976D02*
D03*
Y-99417D02*
D03*
X36311D02*
D03*
Y-101976D02*
D03*
Y-104535D02*
D03*
Y-107095D02*
D03*
Y-109653D02*
D03*
Y-112213D02*
D03*
Y-114772D02*
D03*
Y-117331D02*
D03*
X124925D02*
D03*
Y-114772D02*
D03*
Y-112213D02*
D03*
Y-109653D02*
D03*
Y-107095D02*
D03*
Y-104535D02*
D03*
Y-101976D02*
D03*
Y-99417D02*
D03*
X148311D02*
D03*
Y-101976D02*
D03*
Y-104535D02*
D03*
Y-107095D02*
D03*
Y-109653D02*
D03*
Y-112213D02*
D03*
Y-114772D02*
D03*
Y-117331D02*
D03*
X124925Y-35831D02*
D03*
Y-33272D02*
D03*
Y-30713D02*
D03*
Y-28153D02*
D03*
Y-25594D02*
D03*
Y-23035D02*
D03*
Y-20476D02*
D03*
Y-17917D02*
D03*
X148311D02*
D03*
Y-20476D02*
D03*
Y-23035D02*
D03*
Y-25594D02*
D03*
Y-28153D02*
D03*
Y-30713D02*
D03*
Y-33272D02*
D03*
Y-35831D02*
D03*
X12925D02*
D03*
Y-33272D02*
D03*
Y-30713D02*
D03*
Y-28153D02*
D03*
Y-25594D02*
D03*
Y-23035D02*
D03*
Y-20476D02*
D03*
Y-17917D02*
D03*
X36311D02*
D03*
Y-20476D02*
D03*
Y-23035D02*
D03*
Y-25594D02*
D03*
Y-28153D02*
D03*
Y-30713D02*
D03*
Y-33272D02*
D03*
Y-35831D02*
D03*
D44*
X128327Y-131374D02*
D03*
X116909D02*
D03*
X128327Y-144374D02*
D03*
X116909D02*
D03*
X16327Y-131374D02*
D03*
X4909D02*
D03*
X16327Y-144374D02*
D03*
X4909D02*
D03*
X128327Y-62874D02*
D03*
X116909D02*
D03*
X128327Y-49874D02*
D03*
X116909D02*
D03*
X16327Y-62874D02*
D03*
X4909D02*
D03*
X16327Y-49874D02*
D03*
X4909D02*
D03*
D45*
X142378Y-139374D02*
D03*
X174858Y-139375D02*
D03*
X30378Y-139374D02*
D03*
X62858Y-139375D02*
D03*
X142378Y-57874D02*
D03*
X174858Y-57875D02*
D03*
X30378Y-57874D02*
D03*
X62858Y-57875D02*
D03*
D46*
X24618Y-108374D02*
D03*
X136618D02*
D03*
Y-26874D02*
D03*
X24618D02*
D03*
M02*
