G04 Layer_Physical_Order=3*
G04 Layer_Color=36540*
%FSLAX25Y25*%
%MOIN*%
G70*
G01*
G75*
%ADD11C,0.01200*%
%ADD21C,0.03500*%
%ADD49C,0.00700*%
%ADD50C,0.04000*%
%ADD51C,0.02000*%
%ADD53C,0.05906*%
%ADD55R,0.05906X0.05906*%
%ADD56P,0.06392X8X292.5*%
%ADD57P,0.06392X8X22.5*%
%ADD58C,0.05118*%
%ADD59C,0.13000*%
%ADD61C,0.02000*%
%ADD62C,0.02400*%
%ADD63R,0.05906X0.02953*%
%ADD64R,0.02953X0.05906*%
G36*
X90302Y-44874D02*
X79118D01*
X71934Y-52058D01*
X67618D01*
X67306Y-52120D01*
X67041Y-52297D01*
X66865Y-52562D01*
X66802Y-52874D01*
Y-71036D01*
X65336Y-72503D01*
X65291Y-72569D01*
X65235Y-72626D01*
X65204Y-72700D01*
X65159Y-72767D01*
X65144Y-72846D01*
X65113Y-72920D01*
X65045Y-73259D01*
X64828Y-73585D01*
X64502Y-73803D01*
X64163Y-73870D01*
X64089Y-73901D01*
X64010Y-73916D01*
X63943Y-73961D01*
X63869Y-73992D01*
X63812Y-74049D01*
X63745Y-74093D01*
X63280Y-74558D01*
X57618D01*
Y-33874D01*
X90302D01*
Y-44874D01*
D02*
G37*
G36*
X91622Y-65128D02*
X91934Y-65190D01*
X104025D01*
X104342Y-65576D01*
X104283Y-65874D01*
X104423Y-66576D01*
X104820Y-67172D01*
X105416Y-67570D01*
X106118Y-67709D01*
X106820Y-67570D01*
X107416Y-67172D01*
X107814Y-66576D01*
X107953Y-65874D01*
X107894Y-65576D01*
X108211Y-65190D01*
X110780D01*
X119463Y-73872D01*
X119497Y-73895D01*
X119522Y-73926D01*
X119628Y-73983D01*
X119728Y-74049D01*
X119767Y-74057D01*
X119803Y-74076D01*
X119922Y-74088D01*
X120040Y-74111D01*
X120080Y-74103D01*
X120120Y-74107D01*
X120618Y-74058D01*
X121912Y-74186D01*
X121952Y-74182D01*
X121992Y-74190D01*
X147280D01*
X153789Y-80699D01*
X153834Y-80729D01*
X153870Y-80769D01*
X153965Y-80816D01*
X154054Y-80876D01*
X154107Y-80886D01*
X154155Y-80910D01*
X154261Y-80917D01*
X154366Y-80938D01*
X154419Y-80927D01*
X154473Y-80931D01*
X154618Y-80912D01*
X155385Y-81012D01*
X156099Y-81309D01*
X156713Y-81779D01*
X157184Y-82393D01*
X157480Y-83107D01*
X157580Y-83874D01*
X157561Y-84020D01*
X157565Y-84073D01*
X157554Y-84126D01*
X157575Y-84231D01*
X157582Y-84337D01*
X157606Y-84385D01*
X157616Y-84438D01*
X157676Y-84527D01*
X157723Y-84623D01*
X157763Y-84658D01*
X157793Y-84703D01*
X160503Y-87412D01*
X160311Y-87874D01*
X146074D01*
X145975Y-87374D01*
X146511Y-87152D01*
X147295Y-86550D01*
X147896Y-85767D01*
X148274Y-84854D01*
X148403Y-83874D01*
X148274Y-82894D01*
X147896Y-81981D01*
X147295Y-81198D01*
X146511Y-80596D01*
X145598Y-80218D01*
X144618Y-80089D01*
X143638Y-80218D01*
X142726Y-80596D01*
X141942Y-81198D01*
X141340Y-81981D01*
X140962Y-82894D01*
X140833Y-83874D01*
X140962Y-84854D01*
X141340Y-85767D01*
X141942Y-86550D01*
X142726Y-87152D01*
X143262Y-87374D01*
X143162Y-87874D01*
X138768D01*
X138371Y-87627D01*
X138371Y-87374D01*
Y-80121D01*
X130865D01*
Y-87374D01*
X130865Y-87627D01*
X130468Y-87874D01*
X109158D01*
X108930Y-87374D01*
X109396Y-86767D01*
X109774Y-85854D01*
X109903Y-84874D01*
X109774Y-83894D01*
X109396Y-82981D01*
X108795Y-82197D01*
X108011Y-81596D01*
X107098Y-81218D01*
X106118Y-81089D01*
X105138Y-81218D01*
X104226Y-81596D01*
X103442Y-82197D01*
X102840Y-82981D01*
X102462Y-83894D01*
X102333Y-84874D01*
X102462Y-85854D01*
X102840Y-86767D01*
X103306Y-87374D01*
X103078Y-87874D01*
X89158D01*
X88930Y-87374D01*
X89396Y-86767D01*
X89774Y-85854D01*
X89903Y-84874D01*
X89774Y-83894D01*
X89396Y-82981D01*
X88795Y-82197D01*
X88011Y-81596D01*
X87098Y-81218D01*
X86118Y-81089D01*
X85138Y-81218D01*
X84225Y-81596D01*
X83442Y-82197D01*
X82840Y-82981D01*
X82462Y-83894D01*
X82333Y-84874D01*
X82462Y-85854D01*
X82840Y-86767D01*
X83306Y-87374D01*
X83078Y-87874D01*
X79158D01*
X78930Y-87374D01*
X79396Y-86767D01*
X79774Y-85854D01*
X79903Y-84874D01*
X79774Y-83894D01*
X79396Y-82981D01*
X78795Y-82197D01*
X78011Y-81596D01*
X77098Y-81218D01*
X76118Y-81089D01*
X75138Y-81218D01*
X74225Y-81596D01*
X73442Y-82197D01*
X72840Y-82981D01*
X72462Y-83894D01*
X72434Y-84108D01*
X71934Y-84076D01*
Y-75672D01*
X72434Y-75640D01*
X72462Y-75854D01*
X72840Y-76767D01*
X73442Y-77551D01*
X74225Y-78152D01*
X75138Y-78530D01*
X76118Y-78659D01*
X77098Y-78530D01*
X78011Y-78152D01*
X78795Y-77551D01*
X79396Y-76767D01*
X79774Y-75854D01*
X79903Y-74874D01*
X79774Y-73894D01*
X79396Y-72981D01*
X78795Y-72198D01*
X78011Y-71596D01*
X77098Y-71218D01*
X76247Y-71106D01*
X76005Y-70641D01*
X81456Y-65190D01*
X91118D01*
X91430Y-65128D01*
X91526Y-65064D01*
X91622Y-65128D01*
D02*
G37*
G36*
X62500Y-9874D02*
X70302D01*
Y-33058D01*
X57618D01*
X57437Y-33094D01*
X57358Y-32906D01*
X57470Y-32425D01*
X57814Y-31912D01*
X57953Y-31209D01*
X57814Y-30507D01*
X57416Y-29912D01*
X56820Y-29514D01*
X56118Y-29374D01*
X55416Y-29514D01*
X54820Y-29912D01*
X54423Y-30507D01*
X54283Y-31209D01*
X54423Y-31912D01*
X54820Y-32507D01*
X55416Y-32905D01*
X56118Y-33044D01*
X56481Y-32972D01*
X56925Y-33154D01*
X57005Y-33316D01*
X56865Y-33562D01*
X56802Y-33874D01*
Y-74558D01*
X56865Y-74871D01*
X56928Y-74966D01*
X56865Y-75062D01*
X56802Y-75374D01*
Y-87874D01*
X34074D01*
X33975Y-87374D01*
X34511Y-87152D01*
X35295Y-86550D01*
X35896Y-85767D01*
X36274Y-84854D01*
X36403Y-83874D01*
X36274Y-82894D01*
X35896Y-81981D01*
X35295Y-81198D01*
X34511Y-80596D01*
X33598Y-80218D01*
X32618Y-80089D01*
X31639Y-80218D01*
X30725Y-80596D01*
X29942Y-81198D01*
X29340Y-81981D01*
X28962Y-82894D01*
X28833Y-83874D01*
X28962Y-84854D01*
X29340Y-85767D01*
X29942Y-86550D01*
X30725Y-87152D01*
X31262Y-87374D01*
X31162Y-87874D01*
X26768D01*
X26371Y-87627D01*
X26371Y-87374D01*
Y-80121D01*
X18865D01*
Y-87374D01*
X18865Y-87627D01*
X18468Y-87874D01*
X4993D01*
X1444Y-84325D01*
Y-41361D01*
X1944Y-41210D01*
X2280Y-41712D01*
X3123Y-42276D01*
X4118Y-42474D01*
X5113Y-42276D01*
X5957Y-41712D01*
X6520Y-40869D01*
X6718Y-39874D01*
X6520Y-38879D01*
X5957Y-38036D01*
X5113Y-37472D01*
X4118Y-37274D01*
X3123Y-37472D01*
X2280Y-38036D01*
X1944Y-38539D01*
X1444Y-38387D01*
Y-26939D01*
X1944Y-26754D01*
X2416Y-27070D01*
X2718Y-27130D01*
Y-25374D01*
Y-23618D01*
X2416Y-23678D01*
X1944Y-23994D01*
X1444Y-23809D01*
Y-13423D01*
X5667Y-9200D01*
X11811D01*
Y-9219D01*
X13178Y-9039D01*
X14452Y-8512D01*
X15283Y-7874D01*
X62500D01*
Y-9874D01*
D02*
G37*
G36*
X167666Y-8512D02*
X168940Y-9039D01*
X170307Y-9219D01*
Y-9200D01*
X176569D01*
X180793Y-13423D01*
Y-37242D01*
X180331Y-37433D01*
X176195Y-33297D01*
X175930Y-33120D01*
X175618Y-33058D01*
X175618Y-33058D01*
X169491D01*
X169339Y-32558D01*
X169416Y-32507D01*
X169814Y-31912D01*
X169953Y-31209D01*
X169814Y-30507D01*
X169416Y-29912D01*
X168820Y-29514D01*
X168118Y-29374D01*
X167416Y-29514D01*
X166820Y-29912D01*
X166423Y-30507D01*
X166283Y-31209D01*
X166423Y-31912D01*
X166820Y-32507D01*
X166897Y-32558D01*
X166746Y-33058D01*
X165211D01*
X164894Y-32672D01*
X164953Y-32374D01*
X164814Y-31672D01*
X164416Y-31076D01*
X163820Y-30678D01*
X163118Y-30539D01*
X162416Y-30678D01*
X161820Y-31076D01*
X161423Y-31672D01*
X161283Y-32374D01*
X161342Y-32672D01*
X161025Y-33058D01*
X141238D01*
X141159Y-33074D01*
X141079D01*
X141005Y-33105D01*
X140926Y-33120D01*
X140859Y-33165D01*
X140785Y-33196D01*
X140623Y-33304D01*
X140161Y-33396D01*
X139698Y-33304D01*
X139536Y-33196D01*
X139462Y-33165D01*
X139395Y-33120D01*
X139316Y-33105D01*
X139242Y-33074D01*
X139162D01*
X139083Y-33058D01*
X137695D01*
X137616Y-33074D01*
X137536D01*
X137461Y-33105D01*
X137382Y-33120D01*
X137316Y-33165D01*
X137241Y-33196D01*
X137080Y-33304D01*
X136618Y-33396D01*
X136155Y-33304D01*
X135994Y-33196D01*
X135919Y-33165D01*
X135853Y-33120D01*
X135774Y-33105D01*
X135699Y-33074D01*
X135619D01*
X135540Y-33058D01*
X134151D01*
X134072Y-33074D01*
X133992D01*
X133918Y-33105D01*
X133839Y-33120D01*
X133772Y-33165D01*
X133698Y-33196D01*
X133537Y-33304D01*
X133074Y-33396D01*
X132612Y-33304D01*
X132451Y-33196D01*
X132377Y-33165D01*
X132310Y-33120D01*
X132231Y-33105D01*
X132157Y-33074D01*
X132077D01*
X131998Y-33058D01*
X109434D01*
Y-26649D01*
X109418Y-26570D01*
Y-26490D01*
X109387Y-26415D01*
X109372Y-26337D01*
X109327Y-26270D01*
X109296Y-26196D01*
X109287Y-26186D01*
X109208Y-25966D01*
X109242Y-25686D01*
X109268Y-25606D01*
X109311Y-25529D01*
X109896Y-24767D01*
X110274Y-23854D01*
X110403Y-22874D01*
X110274Y-21894D01*
X109896Y-20981D01*
X109311Y-20219D01*
X109268Y-20142D01*
X109242Y-20062D01*
X109208Y-19782D01*
X109287Y-19562D01*
X109296Y-19553D01*
X109327Y-19478D01*
X109372Y-19411D01*
X109387Y-19333D01*
X109418Y-19258D01*
Y-19178D01*
X109434Y-19099D01*
Y-16649D01*
X109418Y-16570D01*
Y-16490D01*
X109387Y-16415D01*
X109372Y-16337D01*
X109327Y-16270D01*
X109296Y-16196D01*
X109239Y-16139D01*
X109195Y-16072D01*
X109128Y-16027D01*
X109071Y-15970D01*
X108571Y-15636D01*
X108497Y-15606D01*
X108430Y-15561D01*
X108351Y-15545D01*
X108277Y-15515D01*
X108197D01*
X108118Y-15499D01*
X108039Y-15515D01*
X107959D01*
X107885Y-15545D01*
X107806Y-15561D01*
X107385Y-15735D01*
X106618Y-15836D01*
X105851Y-15735D01*
X105137Y-15440D01*
X104523Y-14969D01*
X104053Y-14355D01*
X103757Y-13641D01*
X103656Y-12874D01*
X103757Y-12107D01*
X104053Y-11393D01*
X104453Y-10871D01*
X104507Y-10762D01*
X104570Y-10659D01*
X104577Y-10620D01*
X104594Y-10585D01*
X104602Y-10464D01*
X104621Y-10345D01*
X104700Y-10166D01*
X104877Y-9955D01*
X105001Y-9874D01*
X120768D01*
Y-7874D01*
X166835D01*
X167666Y-8512D01*
D02*
G37*
G36*
X351174Y124016D02*
Y108697D01*
X350675Y108527D01*
X350177Y109177D01*
X349393Y109778D01*
X348480Y110156D01*
X347500Y110285D01*
X346520Y110156D01*
X345607Y109778D01*
X344824Y109177D01*
X344222Y108393D01*
X343844Y107480D01*
X343715Y106500D01*
X343844Y105520D01*
X344222Y104607D01*
X344824Y103823D01*
X345607Y103222D01*
X346520Y102844D01*
X347500Y102715D01*
X348480Y102844D01*
X349393Y103222D01*
X350177Y103823D01*
X350675Y104473D01*
X351174Y104303D01*
Y93335D01*
X340461D01*
X340327Y93309D01*
X340115Y93776D01*
X340177Y93823D01*
X340778Y94607D01*
X341156Y95520D01*
X341285Y96500D01*
X341156Y97480D01*
X340778Y98393D01*
X340177Y99177D01*
X339393Y99778D01*
X338480Y100156D01*
X337500Y100285D01*
X336520Y100156D01*
X335607Y99778D01*
X334823Y99177D01*
X334222Y98393D01*
X333844Y97480D01*
X333715Y96500D01*
X333844Y95520D01*
X334222Y94607D01*
X334814Y93835D01*
X334789Y93650D01*
X334682Y93335D01*
X330709D01*
X330709Y108268D01*
X346457Y124016D01*
X351174Y124016D01*
D02*
G37*
G36*
X191598Y196528D02*
X191626Y196401D01*
X191549Y195923D01*
X191372Y195658D01*
X191310Y195346D01*
Y158212D01*
X190699Y157600D01*
X190676Y157567D01*
X190645Y157541D01*
X190588Y157435D01*
X190522Y157336D01*
X190514Y157296D01*
X190495Y157260D01*
X190470Y157242D01*
X190000Y157335D01*
X189298Y157196D01*
X188702Y156798D01*
X188304Y156202D01*
X188165Y155500D01*
X188258Y155030D01*
X188240Y155005D01*
X188204Y154986D01*
X188164Y154978D01*
X188065Y154912D01*
X187959Y154855D01*
X187933Y154824D01*
X187900Y154801D01*
X185986Y152888D01*
X177118Y152888D01*
X176806Y152826D01*
X176806Y152825D01*
X176806Y152825D01*
X176673Y152737D01*
X176542Y152649D01*
X176542Y152649D01*
X176542Y152649D01*
X176454Y152517D01*
X176365Y152384D01*
X176365Y152384D01*
X176365Y152384D01*
X176303Y152072D01*
X176301Y118454D01*
X171662Y113816D01*
X136316D01*
Y202675D01*
X185451D01*
X191598Y196528D01*
D02*
G37*
G36*
X115041Y-58451D02*
X115306Y-58628D01*
X115618Y-58690D01*
X115618Y-58690D01*
X119854D01*
X119972Y-58666D01*
X120091Y-58655D01*
X120127Y-58635D01*
X120166Y-58628D01*
X120266Y-58561D01*
X120372Y-58504D01*
X120397Y-58473D01*
X120431Y-58451D01*
X120479Y-58379D01*
X120722Y-58118D01*
X120916Y-58070D01*
X121618Y-58209D01*
X122320Y-58070D01*
X122514Y-58118D01*
X122757Y-58379D01*
X122805Y-58451D01*
X122839Y-58473D01*
X122865Y-58504D01*
X122970Y-58561D01*
X123070Y-58628D01*
X123109Y-58635D01*
X123145Y-58655D01*
X123265Y-58666D01*
X123382Y-58690D01*
X159302D01*
Y-75374D01*
X159364Y-75686D01*
X159541Y-75951D01*
X159806Y-76128D01*
X160118Y-76190D01*
X180793D01*
Y-84325D01*
X177244Y-87874D01*
X166074D01*
X165975Y-87374D01*
X166511Y-87152D01*
X167295Y-86550D01*
X167896Y-85767D01*
X168274Y-84854D01*
X168403Y-83874D01*
X168274Y-82894D01*
X167896Y-81981D01*
X167295Y-81198D01*
X166511Y-80596D01*
X165598Y-80218D01*
X164618Y-80089D01*
X163638Y-80218D01*
X162725Y-80596D01*
X161942Y-81198D01*
X161340Y-81981D01*
X160962Y-82894D01*
X160833Y-83874D01*
X160962Y-84854D01*
X161340Y-85767D01*
X161942Y-86550D01*
X162725Y-87152D01*
X163261Y-87374D01*
X163162Y-87874D01*
X162118D01*
X158370Y-84126D01*
X158403Y-83874D01*
X158274Y-82894D01*
X157896Y-81981D01*
X157295Y-81198D01*
X156511Y-80596D01*
X155598Y-80218D01*
X154618Y-80089D01*
X154366Y-80122D01*
X147618Y-73374D01*
X121992D01*
X120618Y-73239D01*
X120040Y-73296D01*
X111118Y-64374D01*
X107113D01*
X106820Y-64179D01*
X106118Y-64039D01*
X105416Y-64179D01*
X105123Y-64374D01*
X91934D01*
Y-52874D01*
X109465D01*
X115041Y-58451D01*
D02*
G37*
G36*
X180793Y-95423D02*
Y-118742D01*
X180331Y-118933D01*
X176195Y-114797D01*
X175930Y-114620D01*
X175618Y-114558D01*
X175618Y-114558D01*
X169491D01*
X169339Y-114058D01*
X169416Y-114007D01*
X169814Y-113412D01*
X169953Y-112709D01*
X169814Y-112007D01*
X169416Y-111412D01*
X168820Y-111014D01*
X168118Y-110874D01*
X167416Y-111014D01*
X166820Y-111412D01*
X166423Y-112007D01*
X166283Y-112709D01*
X166423Y-113412D01*
X166820Y-114007D01*
X166897Y-114058D01*
X166746Y-114558D01*
X165211D01*
X164894Y-114172D01*
X164953Y-113874D01*
X164814Y-113172D01*
X164416Y-112576D01*
X163820Y-112179D01*
X163118Y-112039D01*
X162416Y-112179D01*
X161820Y-112576D01*
X161423Y-113172D01*
X161283Y-113874D01*
X161342Y-114172D01*
X161025Y-114558D01*
X141238D01*
X141159Y-114574D01*
X141079D01*
X141005Y-114605D01*
X140926Y-114620D01*
X140859Y-114665D01*
X140785Y-114696D01*
X140623Y-114804D01*
X140161Y-114896D01*
X139698Y-114804D01*
X139536Y-114696D01*
X139462Y-114665D01*
X139395Y-114620D01*
X139316Y-114605D01*
X139242Y-114574D01*
X139162D01*
X139083Y-114558D01*
X137695D01*
X137616Y-114574D01*
X137536D01*
X137461Y-114605D01*
X137382Y-114620D01*
X137316Y-114665D01*
X137241Y-114696D01*
X137080Y-114804D01*
X136618Y-114896D01*
X136155Y-114804D01*
X135994Y-114696D01*
X135919Y-114665D01*
X135853Y-114620D01*
X135774Y-114605D01*
X135699Y-114574D01*
X135619D01*
X135540Y-114558D01*
X134151D01*
X134072Y-114574D01*
X133992D01*
X133918Y-114605D01*
X133839Y-114620D01*
X133772Y-114665D01*
X133698Y-114696D01*
X133537Y-114804D01*
X133074Y-114896D01*
X132612Y-114804D01*
X132451Y-114696D01*
X132377Y-114665D01*
X132310Y-114620D01*
X132231Y-114605D01*
X132157Y-114574D01*
X132077D01*
X131998Y-114558D01*
X91934D01*
X91622Y-114620D01*
X91526Y-114684D01*
X91430Y-114620D01*
X91118Y-114558D01*
X57618D01*
X57437Y-114594D01*
X57358Y-114406D01*
X57470Y-113926D01*
X57814Y-113412D01*
X57953Y-112709D01*
X57814Y-112007D01*
X57416Y-111412D01*
X56820Y-111014D01*
X56118Y-110874D01*
X55416Y-111014D01*
X54820Y-111412D01*
X54423Y-112007D01*
X54283Y-112709D01*
X54423Y-113412D01*
X54820Y-114007D01*
X55416Y-114405D01*
X56118Y-114544D01*
X56481Y-114472D01*
X56925Y-114654D01*
X57005Y-114816D01*
X56865Y-115062D01*
X56802Y-115374D01*
Y-156874D01*
X56865Y-157186D01*
X56928Y-157282D01*
X56865Y-157378D01*
X56802Y-157690D01*
Y-169374D01*
X56659Y-169549D01*
X33491D01*
X33458Y-169049D01*
X33598Y-169030D01*
X34511Y-168652D01*
X35295Y-168051D01*
X35896Y-167267D01*
X36274Y-166354D01*
X36403Y-165374D01*
X36274Y-164394D01*
X35896Y-163481D01*
X35295Y-162698D01*
X34511Y-162096D01*
X33598Y-161718D01*
X32618Y-161589D01*
X31639Y-161718D01*
X30725Y-162096D01*
X29942Y-162698D01*
X29340Y-163481D01*
X28962Y-164394D01*
X28833Y-165374D01*
X28962Y-166354D01*
X29340Y-167267D01*
X29942Y-168051D01*
X30725Y-168652D01*
X31639Y-169030D01*
X31778Y-169049D01*
X31745Y-169549D01*
X26560D01*
X26371Y-169127D01*
X26371Y-169049D01*
Y-161621D01*
X18865D01*
Y-169049D01*
X18865Y-169127D01*
X18677Y-169549D01*
X5667D01*
X1444Y-165325D01*
Y-122861D01*
X1944Y-122710D01*
X2280Y-123213D01*
X3123Y-123776D01*
X4118Y-123974D01*
X5113Y-123776D01*
X5957Y-123213D01*
X6520Y-122369D01*
X6718Y-121374D01*
X6520Y-120379D01*
X5957Y-119536D01*
X5113Y-118972D01*
X4118Y-118774D01*
X3123Y-118972D01*
X2280Y-119536D01*
X1944Y-120039D01*
X1444Y-119887D01*
Y-108439D01*
X1944Y-108254D01*
X2416Y-108570D01*
X2718Y-108630D01*
Y-106874D01*
Y-105118D01*
X2416Y-105178D01*
X1944Y-105494D01*
X1444Y-105309D01*
Y-95423D01*
X4993Y-91874D01*
X38905D01*
X39057Y-92374D01*
X38754Y-92576D01*
X38356Y-93172D01*
X38216Y-93874D01*
X38356Y-94576D01*
X38754Y-95172D01*
X39349Y-95570D01*
X40051Y-95709D01*
X40754Y-95570D01*
X41349Y-95172D01*
X41747Y-94576D01*
X41887Y-93874D01*
X41747Y-93172D01*
X41349Y-92576D01*
X41047Y-92374D01*
X41198Y-91874D01*
X73078D01*
X73306Y-92374D01*
X72840Y-92981D01*
X72462Y-93894D01*
X72333Y-94874D01*
X72462Y-95854D01*
X72840Y-96767D01*
X73442Y-97550D01*
X74225Y-98152D01*
X75138Y-98530D01*
X76118Y-98659D01*
X77098Y-98530D01*
X78011Y-98152D01*
X78795Y-97550D01*
X79396Y-96767D01*
X79774Y-95854D01*
X79903Y-94874D01*
X79774Y-93894D01*
X79396Y-92981D01*
X78930Y-92374D01*
X79158Y-91874D01*
X83078D01*
X83306Y-92374D01*
X82840Y-92981D01*
X82462Y-93894D01*
X82333Y-94874D01*
X82462Y-95854D01*
X82840Y-96767D01*
X83442Y-97550D01*
X84225Y-98152D01*
X85138Y-98530D01*
X86118Y-98659D01*
X87098Y-98530D01*
X88011Y-98152D01*
X88795Y-97550D01*
X89396Y-96767D01*
X89774Y-95854D01*
X89903Y-94874D01*
X89774Y-93894D01*
X89396Y-92981D01*
X88930Y-92374D01*
X89158Y-91874D01*
X103078D01*
X103306Y-92374D01*
X102840Y-92981D01*
X102462Y-93894D01*
X102333Y-94874D01*
X102462Y-95854D01*
X102840Y-96767D01*
X103442Y-97550D01*
X104226Y-98152D01*
X105138Y-98530D01*
X106118Y-98659D01*
X107098Y-98530D01*
X108011Y-98152D01*
X108795Y-97550D01*
X109396Y-96767D01*
X109774Y-95854D01*
X109903Y-94874D01*
X109774Y-93894D01*
X109396Y-92981D01*
X108930Y-92374D01*
X109158Y-91874D01*
X150905D01*
X151057Y-92374D01*
X150754Y-92576D01*
X150356Y-93172D01*
X150216Y-93874D01*
X150356Y-94576D01*
X150754Y-95172D01*
X151349Y-95570D01*
X152051Y-95709D01*
X152754Y-95570D01*
X153349Y-95172D01*
X153747Y-94576D01*
X153887Y-93874D01*
X153747Y-93172D01*
X153349Y-92576D01*
X153047Y-92374D01*
X153198Y-91874D01*
X177244D01*
X180793Y-95423D01*
D02*
G37*
G36*
X80302Y-20713D02*
X79802Y-20859D01*
X79295Y-20198D01*
X78511Y-19596D01*
X77598Y-19218D01*
X76618Y-19089D01*
X75639Y-19218D01*
X74726Y-19596D01*
X73942Y-20198D01*
X73340Y-20981D01*
X72962Y-21894D01*
X72833Y-22874D01*
X72962Y-23854D01*
X73340Y-24767D01*
X73942Y-25550D01*
X74726Y-26152D01*
X75639Y-26530D01*
X76618Y-26659D01*
X77598Y-26530D01*
X78511Y-26152D01*
X79295Y-25550D01*
X79802Y-24889D01*
X80302Y-25035D01*
Y-33058D01*
X71118D01*
Y-9874D01*
X80302D01*
Y-20713D01*
D02*
G37*
G36*
X351174Y78697D02*
X350675Y78527D01*
X350177Y79176D01*
X349393Y79778D01*
X348480Y80156D01*
X347500Y80285D01*
X346520Y80156D01*
X345607Y79778D01*
X344824Y79176D01*
X344222Y78393D01*
X343844Y77480D01*
X343715Y76500D01*
X343844Y75520D01*
X344222Y74607D01*
X344824Y73823D01*
X345607Y73222D01*
X346520Y72844D01*
X347500Y72715D01*
X348480Y72844D01*
X349393Y73222D01*
X350177Y73823D01*
X350675Y74473D01*
X351174Y74303D01*
Y16994D01*
X350684Y16897D01*
X350584Y17138D01*
X349656Y18652D01*
X348503Y20003D01*
X347152Y21156D01*
X345638Y22084D01*
X343997Y22764D01*
X342270Y23178D01*
X340943Y23283D01*
X340057D01*
X338730Y23178D01*
X337003Y22764D01*
X335362Y22084D01*
X333848Y21156D01*
X332497Y20003D01*
X331344Y18652D01*
X330416Y17138D01*
X329736Y15497D01*
X329322Y13770D01*
X329217Y12443D01*
Y11557D01*
X329322Y10229D01*
X329736Y8503D01*
X330416Y6862D01*
X331344Y5348D01*
X332497Y3997D01*
X333848Y2844D01*
X335362Y1916D01*
X335603Y1816D01*
X335506Y1326D01*
X316000D01*
Y10597D01*
X316097Y10831D01*
X316226Y11811D01*
X316097Y12791D01*
X316000Y13025D01*
Y32371D01*
X316253Y32624D01*
Y36376D01*
X316000Y36629D01*
Y40157D01*
X331000D01*
X331000Y55500D01*
X340461Y64961D01*
Y74194D01*
X340778Y74607D01*
X341156Y75520D01*
X341285Y76500D01*
X341156Y77480D01*
X340778Y78393D01*
X340461Y78806D01*
Y84194D01*
X340778Y84607D01*
X341156Y85520D01*
X341285Y86500D01*
X341156Y87480D01*
X340778Y88393D01*
X340461Y88806D01*
Y92520D01*
X351174D01*
Y78697D01*
D02*
G37*
G36*
X165385Y-81012D02*
X166099Y-81309D01*
X166713Y-81779D01*
X167184Y-82393D01*
X167480Y-83107D01*
X167580Y-83874D01*
X167480Y-84641D01*
X167184Y-85355D01*
X166713Y-85969D01*
X166099Y-86440D01*
X165663Y-86620D01*
X165596Y-86665D01*
X165522Y-86696D01*
X165465Y-86753D01*
X165398Y-86797D01*
X165353Y-86864D01*
X165297Y-86921D01*
X165266Y-86995D01*
X165221Y-87062D01*
X165206Y-87141D01*
X165175Y-87215D01*
Y-87295D01*
X165159Y-87374D01*
X164964Y-87790D01*
X164895Y-87874D01*
X164341D01*
X164272Y-87789D01*
X164077Y-87374D01*
X164061Y-87295D01*
Y-87215D01*
X164031Y-87141D01*
X164015Y-87062D01*
X163970Y-86995D01*
X163940Y-86921D01*
X163883Y-86864D01*
X163838Y-86797D01*
X163771Y-86753D01*
X163715Y-86696D01*
X163640Y-86665D01*
X163574Y-86620D01*
X163137Y-86440D01*
X162523Y-85969D01*
X162053Y-85355D01*
X161757Y-84641D01*
X161656Y-83874D01*
X161757Y-83107D01*
X162053Y-82393D01*
X162523Y-81779D01*
X163137Y-81309D01*
X163851Y-81012D01*
X164618Y-80912D01*
X165385Y-81012D01*
D02*
G37*
G36*
X103806Y-10374D02*
X103340Y-10981D01*
X102962Y-11894D01*
X102833Y-12874D01*
X102962Y-13854D01*
X103340Y-14767D01*
X103942Y-15551D01*
X104726Y-16152D01*
X105638Y-16530D01*
X106618Y-16659D01*
X107598Y-16530D01*
X108118Y-16315D01*
X108618Y-16649D01*
Y-19099D01*
X108118Y-19433D01*
X107598Y-19218D01*
X106618Y-19089D01*
X105638Y-19218D01*
X104726Y-19596D01*
X103942Y-20198D01*
X103340Y-20981D01*
X102962Y-21894D01*
X102833Y-22874D01*
X102962Y-23854D01*
X103340Y-24767D01*
X103942Y-25550D01*
X104726Y-26152D01*
X105638Y-26530D01*
X106618Y-26659D01*
X107598Y-26530D01*
X108118Y-26315D01*
X108618Y-26649D01*
Y-33058D01*
X100434D01*
Y-28874D01*
X100372Y-28562D01*
X100195Y-28297D01*
X100195Y-28297D01*
X98524Y-26627D01*
X98650Y-26045D01*
X99295Y-25550D01*
X99896Y-24767D01*
X100274Y-23854D01*
X100403Y-22874D01*
X100274Y-21894D01*
X99896Y-20981D01*
X99295Y-20198D01*
X98511Y-19596D01*
X97598Y-19218D01*
X96618Y-19089D01*
X95639Y-19218D01*
X94726Y-19596D01*
X93942Y-20198D01*
X93447Y-20842D01*
X92866Y-20968D01*
X91934Y-20036D01*
Y-9874D01*
X103578D01*
X103806Y-10374D01*
D02*
G37*
G36*
X91118Y-64374D02*
X81118D01*
X71118Y-74374D01*
Y-87874D01*
X57618D01*
Y-75374D01*
X63618D01*
X64322Y-74670D01*
X64820Y-74571D01*
X65416Y-74173D01*
X65814Y-73578D01*
X65913Y-73079D01*
X67618Y-71374D01*
Y-52874D01*
X91118D01*
Y-64374D01*
D02*
G37*
G36*
X180793Y-39049D02*
Y-75374D01*
X160118D01*
Y-57874D01*
X123382D01*
X123115Y-57374D01*
X123314Y-57076D01*
X123453Y-56374D01*
X123314Y-55672D01*
X122916Y-55076D01*
X122320Y-54678D01*
X121618Y-54539D01*
X120916Y-54678D01*
X120320Y-55076D01*
X119923Y-55672D01*
X119783Y-56374D01*
X119923Y-57076D01*
X120122Y-57374D01*
X119854Y-57874D01*
X115618D01*
X102618Y-44874D01*
X91118D01*
Y-33874D01*
X131998D01*
X132294Y-34072D01*
X133074Y-34227D01*
X133855Y-34072D01*
X134151Y-33874D01*
X135540D01*
X135837Y-34072D01*
X136618Y-34227D01*
X137398Y-34072D01*
X137695Y-33874D01*
X139083D01*
X139380Y-34073D01*
X140161Y-34228D01*
X140941Y-34073D01*
X141238Y-33874D01*
X162123D01*
X162416Y-34070D01*
X163118Y-34209D01*
X163820Y-34070D01*
X164113Y-33874D01*
X175618D01*
X180793Y-39049D01*
D02*
G37*
G36*
X339645Y90179D02*
X339145Y89881D01*
X338480Y90156D01*
X337500Y90285D01*
X336520Y90156D01*
X335977Y89931D01*
X335407Y90231D01*
X335393Y90305D01*
X334995Y90900D01*
X334400Y91298D01*
X333697Y91438D01*
X332995Y91298D01*
X332400Y90900D01*
X332002Y90305D01*
X331862Y89603D01*
X332002Y88900D01*
X332400Y88305D01*
X332995Y87907D01*
X333443Y87818D01*
X333749Y87560D01*
X333818Y87282D01*
X333715Y86500D01*
X333844Y85520D01*
X334222Y84607D01*
X334823Y83824D01*
X335607Y83222D01*
X336520Y82844D01*
X337500Y82715D01*
X338480Y82844D01*
X339145Y83119D01*
X339645Y82821D01*
Y80179D01*
X339145Y79881D01*
X338480Y80156D01*
X337500Y80285D01*
X336520Y80156D01*
X335607Y79778D01*
X334823Y79176D01*
X334222Y78393D01*
X333844Y77480D01*
X333715Y76500D01*
X333844Y75520D01*
X334222Y74607D01*
X334823Y73823D01*
X335607Y73222D01*
X336520Y72844D01*
X337500Y72715D01*
X338480Y72844D01*
X339145Y73119D01*
X339645Y72821D01*
Y65298D01*
X331428Y57081D01*
X327286Y57093D01*
X327135Y57593D01*
X327298Y57702D01*
X327696Y58298D01*
X327835Y59000D01*
X327696Y59702D01*
X327298Y60298D01*
X326772Y60649D01*
X326772Y82677D01*
X314961Y82701D01*
Y92520D01*
X339645D01*
Y90179D01*
D02*
G37*
G36*
X180793Y-120549D02*
Y-156058D01*
X160934D01*
Y-139374D01*
X160872Y-139062D01*
X160695Y-138797D01*
X160430Y-138620D01*
X160118Y-138558D01*
X123711D01*
X123394Y-138172D01*
X123453Y-137874D01*
X123314Y-137172D01*
X122916Y-136576D01*
X122320Y-136179D01*
X121618Y-136039D01*
X120916Y-136179D01*
X120320Y-136576D01*
X119923Y-137172D01*
X119783Y-137874D01*
X119842Y-138172D01*
X119525Y-138558D01*
X115956D01*
X111195Y-133797D01*
X110930Y-133620D01*
X110618Y-133558D01*
X110618Y-133558D01*
X109802D01*
X102618Y-126374D01*
X99872D01*
Y-126122D01*
X92366D01*
Y-126122D01*
X91934Y-125959D01*
Y-115374D01*
X131998D01*
X132294Y-115572D01*
X133074Y-115727D01*
X133855Y-115572D01*
X134151Y-115374D01*
X135540D01*
X135837Y-115572D01*
X136618Y-115727D01*
X137398Y-115572D01*
X137695Y-115374D01*
X139083D01*
X139380Y-115573D01*
X140161Y-115728D01*
X140941Y-115573D01*
X141238Y-115374D01*
X162123D01*
X162416Y-115570D01*
X163118Y-115709D01*
X163820Y-115570D01*
X164113Y-115374D01*
X175618D01*
X180793Y-120549D01*
D02*
G37*
G36*
X90302Y-145874D02*
X81118D01*
X71118Y-155874D01*
Y-169374D01*
X57618D01*
Y-157690D01*
X63618D01*
X63930Y-157628D01*
X64195Y-157451D01*
X64195Y-157451D01*
X68195Y-153451D01*
X68372Y-153186D01*
X68434Y-152874D01*
X68434Y-152874D01*
Y-135190D01*
X71118D01*
X71430Y-135128D01*
X71536Y-135057D01*
X71695Y-134951D01*
X71695Y-134951D01*
X72272Y-134374D01*
X90302D01*
Y-145874D01*
D02*
G37*
G36*
X91118Y-126374D02*
X89872D01*
Y-126122D01*
X82366D01*
Y-126374D01*
X79118D01*
X71118Y-134374D01*
X67618D01*
Y-152874D01*
X63618Y-156874D01*
X57618D01*
Y-115374D01*
X91118D01*
Y-126374D01*
D02*
G37*
G36*
X115618Y-139374D02*
X120623D01*
X120916Y-139570D01*
X121618Y-139709D01*
X122320Y-139570D01*
X122613Y-139374D01*
X160118D01*
Y-156874D01*
X180793D01*
Y-165325D01*
X176744Y-169374D01*
X166074D01*
X165975Y-168874D01*
X166511Y-168652D01*
X167295Y-168051D01*
X167896Y-167267D01*
X168274Y-166354D01*
X168403Y-165374D01*
X168274Y-164394D01*
X167896Y-163481D01*
X167295Y-162698D01*
X166511Y-162096D01*
X165598Y-161718D01*
X164618Y-161589D01*
X163638Y-161718D01*
X162725Y-162096D01*
X161942Y-162698D01*
X161340Y-163481D01*
X160962Y-164394D01*
X160833Y-165374D01*
X160962Y-166354D01*
X161340Y-167267D01*
X161942Y-168051D01*
X162725Y-168652D01*
X163261Y-168874D01*
X163162Y-169374D01*
X162118D01*
X158370Y-165626D01*
X158403Y-165374D01*
X158274Y-164394D01*
X157896Y-163481D01*
X157295Y-162698D01*
X156511Y-162096D01*
X155598Y-161718D01*
X154618Y-161589D01*
X154366Y-161622D01*
X147618Y-154874D01*
X121992D01*
X120618Y-154739D01*
X120040Y-154796D01*
X111118Y-145874D01*
X91118D01*
Y-134374D01*
X110618D01*
X115618Y-139374D01*
D02*
G37*
G36*
X90806Y-146628D02*
X91118Y-146690D01*
X110780D01*
X119463Y-155372D01*
X119497Y-155395D01*
X119522Y-155426D01*
X119628Y-155483D01*
X119728Y-155549D01*
X119767Y-155557D01*
X119803Y-155576D01*
X119922Y-155588D01*
X120040Y-155611D01*
X120080Y-155603D01*
X120120Y-155607D01*
X120618Y-155558D01*
X121912Y-155686D01*
X121952Y-155682D01*
X121992Y-155690D01*
X147280D01*
X153789Y-162199D01*
X153834Y-162229D01*
X153870Y-162269D01*
X153965Y-162316D01*
X154054Y-162376D01*
X154107Y-162386D01*
X154155Y-162410D01*
X154261Y-162417D01*
X154366Y-162438D01*
X154419Y-162427D01*
X154473Y-162431D01*
X154618Y-162412D01*
X155385Y-162513D01*
X156099Y-162809D01*
X156713Y-163279D01*
X157184Y-163893D01*
X157480Y-164607D01*
X157580Y-165374D01*
X157561Y-165519D01*
X157565Y-165573D01*
X157554Y-165626D01*
X157575Y-165731D01*
X157582Y-165837D01*
X157606Y-165885D01*
X157616Y-165938D01*
X157676Y-166027D01*
X157723Y-166122D01*
X157763Y-166158D01*
X157793Y-166203D01*
X160677Y-169087D01*
X160486Y-169549D01*
X145491D01*
X145458Y-169049D01*
X145598Y-169030D01*
X146511Y-168652D01*
X147295Y-168051D01*
X147896Y-167267D01*
X148274Y-166354D01*
X148403Y-165374D01*
X148274Y-164394D01*
X147896Y-163481D01*
X147295Y-162698D01*
X146511Y-162096D01*
X145598Y-161718D01*
X144618Y-161589D01*
X143638Y-161718D01*
X142726Y-162096D01*
X141942Y-162698D01*
X141340Y-163481D01*
X140962Y-164394D01*
X140833Y-165374D01*
X140962Y-166354D01*
X141340Y-167267D01*
X141942Y-168051D01*
X142726Y-168652D01*
X143638Y-169030D01*
X143778Y-169049D01*
X143745Y-169549D01*
X138560D01*
X138371Y-169127D01*
X138371Y-169049D01*
Y-161621D01*
X130865D01*
Y-169049D01*
X130865Y-169127D01*
X130676Y-169549D01*
X108315D01*
X108146Y-169049D01*
X108795Y-168551D01*
X109396Y-167767D01*
X109774Y-166854D01*
X109903Y-165874D01*
X109774Y-164894D01*
X109396Y-163981D01*
X108795Y-163198D01*
X108011Y-162596D01*
X107098Y-162218D01*
X106118Y-162089D01*
X105138Y-162218D01*
X104226Y-162596D01*
X103442Y-163198D01*
X102840Y-163981D01*
X102462Y-164894D01*
X102333Y-165874D01*
X102462Y-166854D01*
X102840Y-167767D01*
X103442Y-168551D01*
X104091Y-169049D01*
X103921Y-169549D01*
X88315D01*
X88146Y-169049D01*
X88795Y-168551D01*
X89396Y-167767D01*
X89774Y-166854D01*
X89903Y-165874D01*
X89774Y-164894D01*
X89396Y-163981D01*
X88795Y-163198D01*
X88011Y-162596D01*
X87098Y-162218D01*
X86118Y-162089D01*
X85138Y-162218D01*
X84225Y-162596D01*
X83442Y-163198D01*
X82840Y-163981D01*
X82462Y-164894D01*
X82333Y-165874D01*
X82462Y-166854D01*
X82840Y-167767D01*
X83442Y-168551D01*
X84091Y-169049D01*
X83921Y-169549D01*
X72077D01*
X71934Y-169374D01*
Y-156212D01*
X81456Y-146690D01*
X90302D01*
X90615Y-146628D01*
X90710Y-146564D01*
X90806Y-146628D01*
D02*
G37*
G36*
X91118Y-20374D02*
X92924Y-22180D01*
X92833Y-22874D01*
X92962Y-23854D01*
X93340Y-24767D01*
X93942Y-25550D01*
X94726Y-26152D01*
X95639Y-26530D01*
X96618Y-26659D01*
X97312Y-26568D01*
X99618Y-28874D01*
Y-33058D01*
X91118D01*
X90806Y-33120D01*
X90710Y-33184D01*
X90615Y-33120D01*
X90302Y-33058D01*
X81118D01*
Y-9874D01*
X91118D01*
Y-20374D01*
D02*
G37*
G36*
X165385Y-162513D02*
X166099Y-162809D01*
X166713Y-163279D01*
X167184Y-163893D01*
X167480Y-164607D01*
X167580Y-165374D01*
X167480Y-166141D01*
X167184Y-166855D01*
X166713Y-167469D01*
X166099Y-167940D01*
X165663Y-168120D01*
X165596Y-168165D01*
X165522Y-168196D01*
X165465Y-168253D01*
X165398Y-168297D01*
X165353Y-168364D01*
X165297Y-168421D01*
X165266Y-168495D01*
X165221Y-168562D01*
X165206Y-168641D01*
X165175Y-168715D01*
Y-168795D01*
X165159Y-168874D01*
X165175Y-168953D01*
Y-168998D01*
X164820Y-169385D01*
X164389D01*
X164061Y-169033D01*
Y-168953D01*
X164077Y-168874D01*
X164061Y-168795D01*
Y-168715D01*
X164031Y-168641D01*
X164015Y-168562D01*
X163970Y-168495D01*
X163940Y-168421D01*
X163883Y-168364D01*
X163838Y-168297D01*
X163771Y-168253D01*
X163715Y-168196D01*
X163640Y-168165D01*
X163574Y-168120D01*
X163137Y-167940D01*
X162523Y-167469D01*
X162053Y-166855D01*
X161757Y-166141D01*
X161656Y-165374D01*
X161757Y-164607D01*
X162053Y-163893D01*
X162523Y-163279D01*
X163137Y-162809D01*
X163851Y-162513D01*
X164618Y-162412D01*
X165385Y-162513D01*
D02*
G37*
G36*
X135500Y113000D02*
X172000D01*
X177116Y118116D01*
X177118Y152072D01*
X186324Y152072D01*
X188477Y154225D01*
X188702Y154202D01*
X189298Y153804D01*
X189600Y153744D01*
Y155500D01*
X190000D01*
Y155900D01*
X191756D01*
X191696Y156202D01*
X191298Y156798D01*
X191276Y157024D01*
X192126Y157874D01*
Y195346D01*
X192588Y195538D01*
X206984Y181141D01*
X206840Y180770D01*
X206770Y180678D01*
X205443Y180783D01*
X204557D01*
X203229Y180678D01*
X201503Y180264D01*
X199862Y179584D01*
X198348Y178656D01*
X196997Y177503D01*
X195844Y176152D01*
X194916Y174638D01*
X194236Y172997D01*
X193822Y171271D01*
X193717Y169943D01*
Y169057D01*
X193822Y167729D01*
X194236Y166003D01*
X194916Y164362D01*
X195844Y162848D01*
X196997Y161497D01*
X198348Y160344D01*
X199862Y159416D01*
X201503Y158736D01*
X203229Y158322D01*
X204557Y158217D01*
X205443D01*
X206770Y158322D01*
X208497Y158736D01*
X210138Y159416D01*
X211652Y160344D01*
X213003Y161497D01*
X214156Y162848D01*
X215084Y164362D01*
X215764Y166003D01*
X216178Y167729D01*
X216283Y169057D01*
Y169943D01*
X216178Y171271D01*
X215764Y172997D01*
X215084Y174638D01*
X214156Y176152D01*
X213003Y177503D01*
X211652Y178656D01*
X210138Y179584D01*
X208713Y180175D01*
X208812Y180675D01*
X220303D01*
X220473Y180175D01*
X219824Y179676D01*
X219222Y178893D01*
X218844Y177980D01*
X218715Y177000D01*
X218844Y176020D01*
X219222Y175107D01*
X219824Y174323D01*
X220607Y173722D01*
X221520Y173344D01*
X222500Y173215D01*
X223480Y173344D01*
X224393Y173722D01*
X225177Y174323D01*
X225778Y175107D01*
X226156Y176020D01*
X226285Y177000D01*
X226156Y177980D01*
X225778Y178893D01*
X225177Y179676D01*
X224527Y180175D01*
X224697Y180675D01*
X230303D01*
X230473Y180175D01*
X229823Y179676D01*
X229222Y178893D01*
X228844Y177980D01*
X228715Y177000D01*
X228844Y176020D01*
X229222Y175107D01*
X229823Y174323D01*
X230607Y173722D01*
X231520Y173344D01*
X232500Y173215D01*
X233480Y173344D01*
X234393Y173722D01*
X235176Y174323D01*
X235778Y175107D01*
X236156Y176020D01*
X236285Y177000D01*
X236156Y177980D01*
X235778Y178893D01*
X235176Y179676D01*
X234527Y180175D01*
X234697Y180675D01*
X240303D01*
X240473Y180175D01*
X239824Y179676D01*
X239222Y178893D01*
X238844Y177980D01*
X238715Y177000D01*
X238844Y176020D01*
X239222Y175107D01*
X239824Y174323D01*
X240607Y173722D01*
X241520Y173344D01*
X242500Y173215D01*
X243480Y173344D01*
X244393Y173722D01*
X245177Y174323D01*
X245778Y175107D01*
X246156Y176020D01*
X246285Y177000D01*
X246156Y177980D01*
X245778Y178893D01*
X245177Y179676D01*
X244527Y180175D01*
X244697Y180675D01*
X250303D01*
X250473Y180175D01*
X249823Y179676D01*
X249222Y178893D01*
X248844Y177980D01*
X248715Y177000D01*
X248844Y176020D01*
X249222Y175107D01*
X249823Y174323D01*
X250607Y173722D01*
X251520Y173344D01*
X252500Y173215D01*
X253480Y173344D01*
X254393Y173722D01*
X255176Y174323D01*
X255778Y175107D01*
X256156Y176020D01*
X256285Y177000D01*
X256156Y177980D01*
X255778Y178893D01*
X255176Y179676D01*
X254527Y180175D01*
X254697Y180675D01*
X260000D01*
Y162000D01*
X343506D01*
X345275Y160231D01*
X344944Y159855D01*
X344393Y160278D01*
X343480Y160656D01*
X342500Y160785D01*
X341520Y160656D01*
X340607Y160278D01*
X339824Y159677D01*
X339222Y158893D01*
X338844Y157980D01*
X338715Y157000D01*
X338844Y156020D01*
X339222Y155107D01*
X339824Y154323D01*
X340607Y153722D01*
X341520Y153344D01*
X342500Y153215D01*
X343480Y153344D01*
X344393Y153722D01*
X345177Y154323D01*
X345202Y154357D01*
X345676Y154197D01*
Y124388D01*
X330132Y108844D01*
X330132Y108844D01*
X329955Y108580D01*
X329893Y108268D01*
X329893Y108268D01*
X329893Y93335D01*
X314961D01*
X314649Y93273D01*
X314384Y93097D01*
X314207Y92832D01*
X314145Y92520D01*
Y82701D01*
X314176Y82543D01*
X314206Y82390D01*
X314207Y82389D01*
X314207Y82389D01*
X314295Y82256D01*
X314383Y82125D01*
X314383Y82125D01*
X314384Y82124D01*
X314516Y82035D01*
X314647Y81948D01*
X314648Y81948D01*
X314649Y81947D01*
X314805Y81916D01*
X314959Y81885D01*
X325956Y81863D01*
X325956Y60826D01*
X325298Y60696D01*
X324702Y60298D01*
X324304Y59702D01*
X324224Y59300D01*
X324000Y58835D01*
X323298Y58696D01*
X322702Y58298D01*
X322304Y57702D01*
X322179Y57071D01*
X321548Y56946D01*
X320952Y56548D01*
X320554Y55952D01*
X320494Y55650D01*
X322250D01*
Y55250D01*
X322650D01*
Y53494D01*
X322952Y53554D01*
X323548Y53952D01*
X323946Y54548D01*
X324071Y55179D01*
X324702Y55304D01*
X325298Y55702D01*
X325696Y56298D01*
X325776Y56700D01*
X325885Y56926D01*
X326446Y56939D01*
X326531Y56783D01*
X326598Y56682D01*
X326654Y56576D01*
X326685Y56551D01*
X326707Y56518D01*
X326807Y56450D01*
X326900Y56374D01*
X326938Y56362D01*
X326971Y56340D01*
X327089Y56316D01*
X327204Y56281D01*
X327244Y56285D01*
X327283Y56277D01*
X329951Y56270D01*
X330229Y55839D01*
X330238Y55769D01*
X330184Y55500D01*
X330184Y55500D01*
X330184Y40973D01*
X325256D01*
X325064Y41435D01*
X326253Y42624D01*
Y46376D01*
X324376Y48253D01*
X320624D01*
X318747Y46376D01*
Y42624D01*
X319936Y41435D01*
X319744Y40973D01*
X316000D01*
X315688Y40911D01*
X315423Y40734D01*
X315246Y40470D01*
X315184Y40157D01*
Y38098D01*
X314722Y37907D01*
X314376Y38253D01*
X310624D01*
X308747Y36376D01*
Y32624D01*
X310624Y30747D01*
X314376D01*
X314722Y31093D01*
X315184Y30902D01*
Y15066D01*
X314684Y14820D01*
X314334Y15089D01*
X313421Y15467D01*
X312441Y15596D01*
X311461Y15467D01*
X310548Y15089D01*
X309764Y14488D01*
X309163Y13704D01*
X308785Y12791D01*
X308656Y11811D01*
X308785Y10831D01*
X309163Y9918D01*
X309764Y9134D01*
X310548Y8533D01*
X311461Y8155D01*
X312441Y8026D01*
X313421Y8155D01*
X314334Y8533D01*
X314684Y8802D01*
X315184Y8556D01*
Y1326D01*
X170307D01*
Y1345D01*
X168940Y1165D01*
X167666Y637D01*
X166835Y0D01*
X120768D01*
Y2000D01*
X62500D01*
Y0D01*
X15283D01*
X14617Y511D01*
X14709Y1047D01*
X15497Y1236D01*
X17138Y1916D01*
X18652Y2844D01*
X20003Y3997D01*
X21156Y5348D01*
X22084Y6862D01*
X22764Y8503D01*
X23178Y10229D01*
X23283Y11557D01*
Y12443D01*
X23178Y13770D01*
X22764Y15497D01*
X22084Y17138D01*
X21156Y18652D01*
X20003Y20003D01*
X18652Y21156D01*
X17138Y22084D01*
X15497Y22764D01*
X13770Y23178D01*
X12443Y23283D01*
X11557D01*
X10229Y23178D01*
X8503Y22764D01*
X6862Y22084D01*
X5348Y21156D01*
X3997Y20003D01*
X2844Y18652D01*
X1916Y17138D01*
X1816Y16897D01*
X1326Y16994D01*
Y198451D01*
X5549Y202675D01*
X22506D01*
X22603Y202184D01*
X22362Y202084D01*
X20848Y201156D01*
X19497Y200003D01*
X18344Y198652D01*
X17416Y197138D01*
X16736Y195497D01*
X16322Y193771D01*
X16217Y192443D01*
Y191557D01*
X16322Y190229D01*
X16736Y188503D01*
X17416Y186862D01*
X18344Y185348D01*
X19497Y183997D01*
X20848Y182844D01*
X22362Y181916D01*
X24003Y181236D01*
X25730Y180822D01*
X27057Y180717D01*
X27943D01*
X29270Y180822D01*
X30997Y181236D01*
X32638Y181916D01*
X34152Y182844D01*
X35503Y183997D01*
X36656Y185348D01*
X37584Y186862D01*
X38264Y188503D01*
X38678Y190229D01*
X38783Y191557D01*
Y192443D01*
X38678Y193771D01*
X38264Y195497D01*
X37584Y197138D01*
X36656Y198652D01*
X35503Y200003D01*
X34152Y201156D01*
X32638Y202084D01*
X32397Y202184D01*
X32494Y202675D01*
X135500D01*
Y113000D01*
D02*
G37*
%LPC*%
G36*
X342520Y43938D02*
X341525Y43741D01*
X340681Y43177D01*
X340118Y42333D01*
X339920Y41339D01*
X340118Y40344D01*
X340681Y39500D01*
X341525Y38936D01*
X342520Y38739D01*
X343515Y38936D01*
X344358Y39500D01*
X344922Y40344D01*
X345120Y41339D01*
X344922Y42333D01*
X344358Y43177D01*
X343515Y43741D01*
X342520Y43938D01*
D02*
G37*
G36*
X154376Y48253D02*
X150624D01*
X148747Y46376D01*
Y42624D01*
X150624Y40747D01*
X154376D01*
X156253Y42624D01*
Y46376D01*
X154376Y48253D01*
D02*
G37*
G36*
X264376D02*
X260624D01*
X258747Y46376D01*
Y42624D01*
X260624Y40747D01*
X264376D01*
X266253Y42624D01*
Y46376D01*
X264376Y48253D01*
D02*
G37*
G36*
X106253Y44100D02*
X102900D01*
Y40747D01*
X104376D01*
X106253Y42624D01*
Y44100D01*
D02*
G37*
G36*
X102100D02*
X98747D01*
Y42624D01*
X100624Y40747D01*
X102100D01*
Y44100D01*
D02*
G37*
G36*
X114376Y48253D02*
X110624D01*
X108747Y46376D01*
Y42624D01*
X110624Y40747D01*
X114376D01*
X116253Y42624D01*
Y46376D01*
X114376Y48253D01*
D02*
G37*
G36*
X124376D02*
X120624D01*
X118747Y46376D01*
Y42624D01*
X120624Y40747D01*
X124376D01*
X126253Y42624D01*
Y46376D01*
X124376Y48253D01*
D02*
G37*
G36*
X6600Y44100D02*
X3247D01*
Y42624D01*
X5124Y40747D01*
X6600D01*
Y44100D01*
D02*
G37*
G36*
X144376Y48253D02*
X140624D01*
X138747Y46376D01*
Y42624D01*
X140624Y40747D01*
X144376D01*
X146253Y42624D01*
Y46376D01*
X144376Y48253D01*
D02*
G37*
G36*
X18876D02*
X15124D01*
X13247Y46376D01*
Y42624D01*
X15124Y40747D01*
X18876D01*
X20753Y42624D01*
Y46376D01*
X18876Y48253D01*
D02*
G37*
G36*
X10753Y44100D02*
X7400D01*
Y40747D01*
X8876D01*
X10753Y42624D01*
Y44100D01*
D02*
G37*
G36*
Y34100D02*
X7400D01*
Y30747D01*
X8876D01*
X10753Y32624D01*
Y34100D01*
D02*
G37*
G36*
X6600D02*
X3247D01*
Y32624D01*
X5124Y30747D01*
X6600D01*
Y34100D01*
D02*
G37*
G36*
X18876Y38253D02*
X15124D01*
X13247Y36376D01*
Y32624D01*
X15124Y30747D01*
X18876D01*
X20753Y32624D01*
Y36376D01*
X18876Y38253D01*
D02*
G37*
G36*
X106253Y34100D02*
X102900D01*
Y30747D01*
X104376D01*
X106253Y32624D01*
Y34100D01*
D02*
G37*
G36*
X102100D02*
X98747D01*
Y32624D01*
X100624Y30747D01*
X102100D01*
Y34100D01*
D02*
G37*
G36*
X116876Y25712D02*
Y24357D01*
X118232D01*
X118172Y24659D01*
X117774Y25254D01*
X117179Y25652D01*
X116876Y25712D01*
D02*
G37*
G36*
X118232Y23557D02*
X116876D01*
Y22201D01*
X117179Y22261D01*
X117774Y22659D01*
X118172Y23254D01*
X118232Y23557D01*
D02*
G37*
G36*
X116076D02*
X114721D01*
X114781Y23254D01*
X115179Y22659D01*
X115774Y22261D01*
X116076Y22201D01*
Y23557D01*
D02*
G37*
G36*
X66076Y25712D02*
X65774Y25652D01*
X65179Y25254D01*
X64781Y24659D01*
X64721Y24357D01*
X66076D01*
Y25712D01*
D02*
G37*
G36*
X116076D02*
X115774Y25652D01*
X115179Y25254D01*
X114781Y24659D01*
X114721Y24357D01*
X116076D01*
Y25712D01*
D02*
G37*
G36*
X66876D02*
Y24357D01*
X68232D01*
X68172Y24659D01*
X67774Y25254D01*
X67179Y25652D01*
X66876Y25712D01*
D02*
G37*
G36*
X6600Y38253D02*
X5124D01*
X3247Y36376D01*
Y34900D01*
X6600D01*
Y38253D01*
D02*
G37*
G36*
X304376D02*
X300624D01*
X298747Y36376D01*
Y32624D01*
X300624Y30747D01*
X304376D01*
X306253Y32624D01*
Y36376D01*
X304376Y38253D01*
D02*
G37*
G36*
X8876D02*
X7400D01*
Y34900D01*
X10753D01*
Y36376D01*
X8876Y38253D01*
D02*
G37*
G36*
X104376D02*
X102900D01*
Y34900D01*
X106253D01*
Y36376D01*
X104376Y38253D01*
D02*
G37*
G36*
X102100D02*
X100624D01*
X98747Y36376D01*
Y34900D01*
X102100D01*
Y38253D01*
D02*
G37*
G36*
X294376D02*
X290624D01*
X288747Y36376D01*
Y32624D01*
X290624Y30747D01*
X294376D01*
X296253Y32624D01*
Y36376D01*
X294376Y38253D01*
D02*
G37*
G36*
X124376D02*
X120624D01*
X118747Y36376D01*
Y32624D01*
X120624Y30747D01*
X124376D01*
X126253Y32624D01*
Y36376D01*
X124376Y38253D01*
D02*
G37*
G36*
X114376D02*
X110624D01*
X108747Y36376D01*
Y32624D01*
X110624Y30747D01*
X114376D01*
X116253Y32624D01*
Y36376D01*
X114376Y38253D01*
D02*
G37*
G36*
X134376D02*
X130624D01*
X128747Y36376D01*
Y32624D01*
X130624Y30747D01*
X134376D01*
X136253Y32624D01*
Y36376D01*
X134376Y38253D01*
D02*
G37*
G36*
X264376D02*
X260624D01*
X258747Y36376D01*
Y32624D01*
X260624Y30747D01*
X264376D01*
X266253Y32624D01*
Y36376D01*
X264376Y38253D01*
D02*
G37*
G36*
X144376D02*
X140624D01*
X138747Y36376D01*
Y32624D01*
X140624Y30747D01*
X144376D01*
X146253Y32624D01*
Y36376D01*
X144376Y38253D01*
D02*
G37*
G36*
X96253Y67753D02*
X88747D01*
Y60247D01*
X96253D01*
Y67753D01*
D02*
G37*
G36*
X102500Y67785D02*
X101520Y67656D01*
X100607Y67278D01*
X99823Y66676D01*
X99222Y65893D01*
X98844Y64980D01*
X98715Y64000D01*
X98844Y63020D01*
X99222Y62107D01*
X99823Y61323D01*
X100607Y60722D01*
X101520Y60344D01*
X102500Y60215D01*
X103480Y60344D01*
X104393Y60722D01*
X105176Y61323D01*
X105778Y62107D01*
X106156Y63020D01*
X106285Y64000D01*
X106156Y64980D01*
X105778Y65893D01*
X105176Y66676D01*
X104393Y67278D01*
X103480Y67656D01*
X102500Y67785D01*
D02*
G37*
G36*
X18876Y68253D02*
X15124D01*
X13247Y66376D01*
Y62624D01*
X15124Y60747D01*
X18876D01*
X20753Y62624D01*
Y66376D01*
X18876Y68253D01*
D02*
G37*
G36*
X8876D02*
X5124D01*
X3247Y66376D01*
Y62624D01*
X5124Y60747D01*
X8876D01*
X10753Y62624D01*
Y66376D01*
X8876Y68253D01*
D02*
G37*
G36*
X191500Y63335D02*
X190798Y63196D01*
X190202Y62798D01*
X189804Y62202D01*
X189665Y61500D01*
X189804Y60798D01*
X190202Y60202D01*
X190798Y59804D01*
X191500Y59665D01*
X192202Y59804D01*
X192798Y60202D01*
X193196Y60798D01*
X193335Y61500D01*
X193196Y62202D01*
X192798Y62798D01*
X192202Y63196D01*
X191500Y63335D01*
D02*
G37*
G36*
X51400Y58756D02*
Y57400D01*
X52756D01*
X52696Y57702D01*
X52298Y58298D01*
X51702Y58696D01*
X51400Y58756D01*
D02*
G37*
G36*
X50600D02*
X50298Y58696D01*
X49702Y58298D01*
X49304Y57702D01*
X49244Y57400D01*
X50600D01*
Y58756D01*
D02*
G37*
G36*
X262500Y60835D02*
X261798Y60696D01*
X261202Y60298D01*
X260804Y59702D01*
X260801Y59685D01*
X260213Y59293D01*
X260000Y59335D01*
X259298Y59196D01*
X258702Y58798D01*
X258304Y58202D01*
X258165Y57500D01*
X258304Y56798D01*
X258702Y56202D01*
X259298Y55804D01*
X260000Y55665D01*
X260702Y55804D01*
X261298Y56202D01*
X261696Y56798D01*
X261699Y56815D01*
X262287Y57207D01*
X262500Y57165D01*
X263202Y57304D01*
X263798Y57702D01*
X264196Y58298D01*
X264335Y59000D01*
X264196Y59702D01*
X263798Y60298D01*
X263202Y60696D01*
X262500Y60835D01*
D02*
G37*
G36*
X252500Y61335D02*
X251798Y61196D01*
X251202Y60798D01*
X250804Y60202D01*
X250665Y59500D01*
X250804Y58798D01*
X251202Y58202D01*
X251798Y57804D01*
X252500Y57665D01*
X253202Y57804D01*
X253798Y58202D01*
X254196Y58798D01*
X254335Y59500D01*
X254196Y60202D01*
X253798Y60798D01*
X253202Y61196D01*
X252500Y61335D01*
D02*
G37*
G36*
X274000Y62335D02*
X273298Y62196D01*
X272702Y61798D01*
X272304Y61202D01*
X272268Y61019D01*
X271712Y60789D01*
X271702Y60796D01*
X271000Y60935D01*
X270298Y60796D01*
X269702Y60398D01*
X269304Y59802D01*
X269165Y59100D01*
X269304Y58398D01*
X269702Y57802D01*
X270298Y57404D01*
X271000Y57265D01*
X271702Y57404D01*
X272298Y57802D01*
X272696Y58398D01*
X272732Y58581D01*
X273288Y58811D01*
X273298Y58804D01*
X274000Y58665D01*
X274702Y58804D01*
X275298Y59202D01*
X275696Y59798D01*
X275835Y60500D01*
X275696Y61202D01*
X275298Y61798D01*
X274702Y62196D01*
X274000Y62335D01*
D02*
G37*
G36*
X192500Y72785D02*
X191520Y72656D01*
X190607Y72278D01*
X189823Y71676D01*
X189222Y70893D01*
X188844Y69980D01*
X188715Y69000D01*
X188844Y68020D01*
X189222Y67107D01*
X189823Y66324D01*
X190607Y65722D01*
X191520Y65344D01*
X192500Y65215D01*
X192627Y65232D01*
X195453D01*
X195765Y65294D01*
X196029Y65470D01*
X196206Y65735D01*
X196268Y66047D01*
Y68873D01*
X196285Y69000D01*
X196268Y69127D01*
Y71953D01*
X196206Y72265D01*
X196029Y72530D01*
X195765Y72706D01*
X195453Y72768D01*
X192627D01*
X192500Y72785D01*
D02*
G37*
G36*
X295500Y68835D02*
X294798Y68696D01*
X294202Y68298D01*
X293804Y67702D01*
X293665Y67000D01*
X293804Y66298D01*
X294202Y65702D01*
X294798Y65304D01*
X295500Y65165D01*
X296202Y65304D01*
X296798Y65702D01*
X297196Y66298D01*
X297335Y67000D01*
X297196Y67702D01*
X296798Y68298D01*
X296202Y68696D01*
X295500Y68835D01*
D02*
G37*
G36*
X206233Y68600D02*
X202900D01*
Y65267D01*
X203480Y65344D01*
X204393Y65722D01*
X205176Y66324D01*
X205778Y67107D01*
X206156Y68020D01*
X206233Y68600D01*
D02*
G37*
G36*
X202100D02*
X198767D01*
X198844Y68020D01*
X199222Y67107D01*
X199823Y66324D01*
X200607Y65722D01*
X201520Y65344D01*
X202100Y65267D01*
Y68600D01*
D02*
G37*
G36*
X267100Y67020D02*
X266505Y66902D01*
X265662Y66338D01*
X265098Y65495D01*
X264980Y64900D01*
X267100D01*
Y67020D01*
D02*
G37*
G36*
Y64100D02*
X264980D01*
X265098Y63505D01*
X265662Y62661D01*
X266505Y62098D01*
X267100Y61980D01*
Y64100D01*
D02*
G37*
G36*
X213000Y65335D02*
X212298Y65196D01*
X211702Y64798D01*
X211304Y64202D01*
X211165Y63500D01*
X211304Y62798D01*
X211702Y62202D01*
X212298Y61804D01*
X213000Y61665D01*
X213702Y61804D01*
X214298Y62202D01*
X214696Y62798D01*
X214835Y63500D01*
X214696Y64202D01*
X214298Y64798D01*
X213702Y65196D01*
X213000Y65335D01*
D02*
G37*
G36*
X130000Y66835D02*
X129298Y66696D01*
X128702Y66298D01*
X128304Y65702D01*
X128165Y65000D01*
X128304Y64298D01*
X128702Y63702D01*
X129298Y63304D01*
X130000Y63165D01*
X130702Y63304D01*
X131298Y63702D01*
X131696Y64298D01*
X131835Y65000D01*
X131696Y65702D01*
X131298Y66298D01*
X130702Y66696D01*
X130000Y66835D01*
D02*
G37*
G36*
X255500Y65835D02*
X254798Y65696D01*
X254202Y65298D01*
X253804Y64702D01*
X253665Y64000D01*
X253804Y63298D01*
X254202Y62702D01*
X254798Y62304D01*
X255500Y62165D01*
X256202Y62304D01*
X256798Y62702D01*
X257196Y63298D01*
X257335Y64000D01*
X257196Y64702D01*
X256798Y65298D01*
X256202Y65696D01*
X255500Y65835D01*
D02*
G37*
G36*
X104376Y48253D02*
X102900D01*
Y44900D01*
X106253D01*
Y46376D01*
X104376Y48253D01*
D02*
G37*
G36*
X102100D02*
X100624D01*
X98747Y46376D01*
Y44900D01*
X102100D01*
Y48253D01*
D02*
G37*
G36*
X342520Y51813D02*
X341525Y51615D01*
X340681Y51051D01*
X340118Y50208D01*
X339920Y49213D01*
X340118Y48218D01*
X340681Y47374D01*
X341525Y46811D01*
X342520Y46613D01*
X343515Y46811D01*
X344358Y47374D01*
X344922Y48218D01*
X345120Y49213D01*
X344922Y50208D01*
X344358Y51051D01*
X343515Y51615D01*
X342520Y51813D01*
D02*
G37*
G36*
X67000Y48835D02*
X66298Y48696D01*
X65702Y48298D01*
X65304Y47702D01*
X65165Y47000D01*
X65304Y46298D01*
X65702Y45702D01*
X66298Y45304D01*
X67000Y45165D01*
X67702Y45304D01*
X68298Y45702D01*
X68696Y46298D01*
X68835Y47000D01*
X68696Y47702D01*
X68298Y48298D01*
X67702Y48696D01*
X67000Y48835D01*
D02*
G37*
G36*
X8876Y48253D02*
X7400D01*
Y44900D01*
X10753D01*
Y46376D01*
X8876Y48253D01*
D02*
G37*
G36*
X304376D02*
X300624D01*
X298747Y46376D01*
Y42624D01*
X300624Y40747D01*
X304376D01*
X306253Y42624D01*
Y46376D01*
X304376Y48253D01*
D02*
G37*
G36*
X294376D02*
X290624D01*
X288747Y46376D01*
Y42624D01*
X290624Y40747D01*
X294376D01*
X296253Y42624D01*
Y46376D01*
X294376Y48253D01*
D02*
G37*
G36*
X6600D02*
X5124D01*
X3247Y46376D01*
Y44900D01*
X6600D01*
Y48253D01*
D02*
G37*
G36*
X314376D02*
X310624D01*
X308747Y46376D01*
Y42624D01*
X310624Y40747D01*
X314376D01*
X316253Y42624D01*
Y46376D01*
X314376Y48253D01*
D02*
G37*
G36*
X97500Y50835D02*
X96798Y50696D01*
X96202Y50298D01*
X95804Y49702D01*
X95665Y49000D01*
X95804Y48298D01*
X96202Y47702D01*
X96798Y47304D01*
X97500Y47165D01*
X98202Y47304D01*
X98798Y47702D01*
X99196Y48298D01*
X99335Y49000D01*
X99196Y49702D01*
X98798Y50298D01*
X98202Y50696D01*
X97500Y50835D01*
D02*
G37*
G36*
X50600Y56600D02*
X49244D01*
X49304Y56298D01*
X49702Y55702D01*
X50298Y55304D01*
X50600Y55244D01*
Y56600D01*
D02*
G37*
G36*
X256000Y58335D02*
X255298Y58196D01*
X254702Y57798D01*
X254304Y57202D01*
X254165Y56500D01*
X254304Y55798D01*
X254702Y55202D01*
X255298Y54804D01*
X256000Y54665D01*
X256702Y54804D01*
X257298Y55202D01*
X257696Y55798D01*
X257835Y56500D01*
X257696Y57202D01*
X257298Y57798D01*
X256702Y58196D01*
X256000Y58335D01*
D02*
G37*
G36*
X307500Y59835D02*
X306798Y59696D01*
X306202Y59298D01*
X305804Y58702D01*
X305665Y58000D01*
X305804Y57298D01*
X306202Y56702D01*
X306798Y56304D01*
X307500Y56165D01*
X308202Y56304D01*
X308798Y56702D01*
X309196Y57298D01*
X309335Y58000D01*
X309196Y58702D01*
X308798Y59298D01*
X308202Y59696D01*
X307500Y59835D01*
D02*
G37*
G36*
X52756Y56600D02*
X51400D01*
Y55244D01*
X51702Y55304D01*
X52298Y55702D01*
X52696Y56298D01*
X52756Y56600D01*
D02*
G37*
G36*
X93000Y56335D02*
X92298Y56196D01*
X91702Y55798D01*
X91304Y55202D01*
X91165Y54500D01*
X91167Y54486D01*
X90718Y54185D01*
X90702Y54196D01*
X90000Y54335D01*
X89298Y54196D01*
X88702Y53798D01*
X88304Y53202D01*
X88165Y52500D01*
X88168Y52486D01*
X87717Y52185D01*
X87702Y52196D01*
X87000Y52335D01*
X86298Y52196D01*
X85702Y51798D01*
X85304Y51202D01*
X85165Y50500D01*
X85304Y49798D01*
X85702Y49202D01*
X86298Y48804D01*
X87000Y48665D01*
X87702Y48804D01*
X88298Y49202D01*
X88696Y49798D01*
X88835Y50500D01*
X88832Y50514D01*
X89283Y50815D01*
X89298Y50804D01*
X90000Y50665D01*
X90702Y50804D01*
X90718Y50815D01*
X91167Y50514D01*
X91165Y50500D01*
X91304Y49798D01*
X91702Y49202D01*
X92298Y48804D01*
X92558Y48753D01*
X92508Y48253D01*
X90624D01*
X88747Y46376D01*
Y42624D01*
X90624Y40747D01*
X94376D01*
X96253Y42624D01*
Y46376D01*
X94376Y48253D01*
X93492D01*
X93442Y48753D01*
X93702Y48804D01*
X94298Y49202D01*
X94696Y49798D01*
X94835Y50500D01*
X94696Y51202D01*
X94298Y51798D01*
X93702Y52196D01*
X93453Y52245D01*
Y52755D01*
X93702Y52804D01*
X94298Y53202D01*
X94696Y53798D01*
X94835Y54500D01*
X94696Y55202D01*
X94298Y55798D01*
X93702Y56196D01*
X93000Y56335D01*
D02*
G37*
G36*
X8876Y58253D02*
X5124D01*
X3247Y56376D01*
Y52624D01*
X5124Y50747D01*
X8876D01*
X10753Y52624D01*
Y56376D01*
X8876Y58253D01*
D02*
G37*
G36*
X317500Y53335D02*
X316798Y53196D01*
X316202Y52798D01*
X315804Y52202D01*
X315665Y51500D01*
X315804Y50798D01*
X316202Y50202D01*
X316798Y49804D01*
X317500Y49665D01*
X318202Y49804D01*
X318798Y50202D01*
X319196Y50798D01*
X319335Y51500D01*
X319196Y52202D01*
X318798Y52798D01*
X318202Y53196D01*
X317500Y53335D01*
D02*
G37*
G36*
X321850Y54850D02*
X320494D01*
X320554Y54548D01*
X320952Y53952D01*
X321548Y53554D01*
X321850Y53494D01*
Y54850D01*
D02*
G37*
G36*
X18876Y58253D02*
X15124D01*
X13247Y56376D01*
Y52624D01*
X15124Y50747D01*
X18876D01*
X20753Y52624D01*
Y56376D01*
X18876Y58253D01*
D02*
G37*
G36*
X153618Y-101039D02*
X152916Y-101179D01*
X152320Y-101576D01*
X151923Y-102172D01*
X151783Y-102874D01*
X151923Y-103576D01*
X152320Y-104172D01*
X152916Y-104570D01*
X153618Y-104709D01*
X154320Y-104570D01*
X154916Y-104172D01*
X155314Y-103576D01*
X155453Y-102874D01*
X155314Y-102172D01*
X154916Y-101576D01*
X154320Y-101179D01*
X153618Y-101039D01*
D02*
G37*
G36*
X41618D02*
X40916Y-101179D01*
X40320Y-101576D01*
X39923Y-102172D01*
X39783Y-102874D01*
X39923Y-103576D01*
X40320Y-104172D01*
X40916Y-104570D01*
X41618Y-104709D01*
X42320Y-104570D01*
X42916Y-104172D01*
X43314Y-103576D01*
X43453Y-102874D01*
X43314Y-102172D01*
X42916Y-101576D01*
X42320Y-101179D01*
X41618Y-101039D01*
D02*
G37*
G36*
X160618Y-98539D02*
X159916Y-98678D01*
X159320Y-99076D01*
X158923Y-99672D01*
X158783Y-100374D01*
X158923Y-101076D01*
X159320Y-101672D01*
X159916Y-102070D01*
X160618Y-102209D01*
X161320Y-102070D01*
X161916Y-101672D01*
X162314Y-101076D01*
X162453Y-100374D01*
X162314Y-99672D01*
X161916Y-99076D01*
X161320Y-98678D01*
X160618Y-98539D01*
D02*
G37*
G36*
X48618D02*
X47916Y-98678D01*
X47320Y-99076D01*
X46923Y-99672D01*
X46783Y-100374D01*
X46923Y-101076D01*
X47320Y-101672D01*
X47916Y-102070D01*
X48618Y-102209D01*
X49320Y-102070D01*
X49916Y-101672D01*
X50314Y-101076D01*
X50453Y-100374D01*
X50314Y-99672D01*
X49916Y-99076D01*
X49320Y-98678D01*
X48618Y-98539D01*
D02*
G37*
G36*
X118118Y-105039D02*
X117416Y-105178D01*
X116820Y-105576D01*
X116416D01*
X115820Y-105178D01*
X115518Y-105118D01*
Y-106874D01*
Y-108630D01*
X115820Y-108570D01*
X116416Y-108172D01*
X116820D01*
X117416Y-108570D01*
X118118Y-108709D01*
X118820Y-108570D01*
X119416Y-108172D01*
X119814Y-107576D01*
X119953Y-106874D01*
X119814Y-106172D01*
X119416Y-105576D01*
X118820Y-105178D01*
X118118Y-105039D01*
D02*
G37*
G36*
X161018Y-106618D02*
Y-107974D01*
X162374D01*
X162314Y-107672D01*
X161916Y-107076D01*
X161320Y-106678D01*
X161018Y-106618D01*
D02*
G37*
G36*
X160218D02*
X159916Y-106678D01*
X159320Y-107076D01*
X158923Y-107672D01*
X158862Y-107974D01*
X160218D01*
Y-106618D01*
D02*
G37*
G36*
X6118Y-105039D02*
X5416Y-105178D01*
X4820Y-105576D01*
X4416D01*
X3820Y-105178D01*
X3518Y-105118D01*
Y-106874D01*
Y-108630D01*
X3820Y-108570D01*
X4416Y-108172D01*
X4820D01*
X5416Y-108570D01*
X6118Y-108709D01*
X6820Y-108570D01*
X7416Y-108172D01*
X7814Y-107576D01*
X7953Y-106874D01*
X7814Y-106172D01*
X7416Y-105576D01*
X6820Y-105178D01*
X6118Y-105039D01*
D02*
G37*
G36*
X114718Y-105118D02*
X114416Y-105178D01*
X113820Y-105576D01*
X113423Y-106172D01*
X113362Y-106474D01*
X114718D01*
Y-105118D01*
D02*
G37*
G36*
X41618Y-28877D02*
X40916Y-29017D01*
X40320Y-29415D01*
X39923Y-30010D01*
X39783Y-30713D01*
X39923Y-31415D01*
X40320Y-32010D01*
X40916Y-32408D01*
X41618Y-32548D01*
X42320Y-32408D01*
X42916Y-32010D01*
X43314Y-31415D01*
X43453Y-30713D01*
X43314Y-30010D01*
X42916Y-29415D01*
X42320Y-29017D01*
X41618Y-28877D01*
D02*
G37*
G36*
X51118Y-30539D02*
X50416Y-30678D01*
X49820Y-31076D01*
X49423Y-31672D01*
X49283Y-32374D01*
X49423Y-33076D01*
X49820Y-33672D01*
X50416Y-34070D01*
X51118Y-34209D01*
X51820Y-34070D01*
X52416Y-33672D01*
X52814Y-33076D01*
X52953Y-32374D01*
X52814Y-31672D01*
X52416Y-31076D01*
X51820Y-30678D01*
X51118Y-30539D01*
D02*
G37*
G36*
X48218Y-27274D02*
X46862D01*
X46923Y-27576D01*
X47320Y-28172D01*
X47916Y-28570D01*
X48218Y-28630D01*
Y-27274D01*
D02*
G37*
G36*
X153618Y-28877D02*
X152916Y-29017D01*
X152320Y-29415D01*
X151923Y-30010D01*
X151783Y-30713D01*
X151923Y-31415D01*
X152320Y-32010D01*
X152916Y-32408D01*
X153618Y-32548D01*
X154320Y-32408D01*
X154916Y-32010D01*
X155314Y-31415D01*
X155453Y-30713D01*
X155314Y-30010D01*
X154916Y-29415D01*
X154320Y-29017D01*
X153618Y-28877D01*
D02*
G37*
G36*
X116118Y-37274D02*
X115123Y-37472D01*
X114280Y-38036D01*
X113716Y-38879D01*
X113518Y-39874D01*
X113716Y-40869D01*
X114280Y-41712D01*
X115123Y-42276D01*
X116118Y-42474D01*
X117113Y-42276D01*
X117957Y-41712D01*
X118520Y-40869D01*
X118718Y-39874D01*
X118520Y-38879D01*
X117957Y-38036D01*
X117113Y-37472D01*
X116118Y-37274D01*
D02*
G37*
G36*
X96118Y-71089D02*
X95139Y-71218D01*
X94226Y-71596D01*
X93442Y-72198D01*
X92840Y-72981D01*
X92462Y-73894D01*
X92333Y-74874D01*
X92462Y-75854D01*
X92840Y-76767D01*
X93442Y-77551D01*
X94226Y-78152D01*
X95139Y-78530D01*
X96118Y-78659D01*
X97098Y-78530D01*
X98011Y-78152D01*
X98795Y-77551D01*
X99396Y-76767D01*
X99774Y-75854D01*
X99903Y-74874D01*
X99774Y-73894D01*
X99396Y-72981D01*
X98795Y-72198D01*
X98011Y-71596D01*
X97098Y-71218D01*
X96118Y-71089D01*
D02*
G37*
G36*
X86118D02*
X85138Y-71218D01*
X84225Y-71596D01*
X83442Y-72198D01*
X82840Y-72981D01*
X82462Y-73894D01*
X82333Y-74874D01*
X82462Y-75854D01*
X82840Y-76767D01*
X83442Y-77551D01*
X84225Y-78152D01*
X85138Y-78530D01*
X86118Y-78659D01*
X87098Y-78530D01*
X88011Y-78152D01*
X88795Y-77551D01*
X89396Y-76767D01*
X89774Y-75854D01*
X89903Y-74874D01*
X89774Y-73894D01*
X89396Y-72981D01*
X88795Y-72198D01*
X88011Y-71596D01*
X87098Y-71218D01*
X86118Y-71089D01*
D02*
G37*
G36*
X9618Y-54539D02*
X8916Y-54678D01*
X8320Y-55076D01*
X7923Y-55672D01*
X7783Y-56374D01*
X7923Y-57076D01*
X8320Y-57672D01*
X8916Y-58070D01*
X9618Y-58209D01*
X10320Y-58070D01*
X10916Y-57672D01*
X11314Y-57076D01*
X11453Y-56374D01*
X11314Y-55672D01*
X10916Y-55076D01*
X10320Y-54678D01*
X9618Y-54539D01*
D02*
G37*
G36*
X106118Y-71089D02*
X105138Y-71218D01*
X104226Y-71596D01*
X103442Y-72198D01*
X102840Y-72981D01*
X102462Y-73894D01*
X102333Y-74874D01*
X102462Y-75854D01*
X102840Y-76767D01*
X103442Y-77551D01*
X104226Y-78152D01*
X105138Y-78530D01*
X106118Y-78659D01*
X107098Y-78530D01*
X108011Y-78152D01*
X108795Y-77551D01*
X109396Y-76767D01*
X109774Y-75854D01*
X109903Y-74874D01*
X109774Y-73894D01*
X109396Y-72981D01*
X108795Y-72198D01*
X108011Y-71596D01*
X107098Y-71218D01*
X106118Y-71089D01*
D02*
G37*
G36*
X49018Y-106618D02*
Y-107974D01*
X50374D01*
X50314Y-107672D01*
X49916Y-107076D01*
X49320Y-106678D01*
X49018Y-106618D01*
D02*
G37*
G36*
X48218Y-108774D02*
X46862D01*
X46923Y-109076D01*
X47320Y-109672D01*
X47916Y-110070D01*
X48218Y-110130D01*
Y-108774D01*
D02*
G37*
G36*
X153618Y-110377D02*
X152916Y-110517D01*
X152320Y-110915D01*
X151923Y-111510D01*
X151783Y-112213D01*
X151923Y-112915D01*
X152320Y-113510D01*
X152916Y-113908D01*
X153618Y-114048D01*
X154320Y-113908D01*
X154916Y-113510D01*
X155314Y-112915D01*
X155453Y-112213D01*
X155314Y-111510D01*
X154916Y-110915D01*
X154320Y-110517D01*
X153618Y-110377D01*
D02*
G37*
G36*
X160218Y-108774D02*
X158862D01*
X158923Y-109076D01*
X159320Y-109672D01*
X159916Y-110070D01*
X160218Y-110130D01*
Y-108774D01*
D02*
G37*
G36*
X50374D02*
X49018D01*
Y-110130D01*
X49320Y-110070D01*
X49916Y-109672D01*
X50314Y-109076D01*
X50374Y-108774D01*
D02*
G37*
G36*
X41618Y-110377D02*
X40916Y-110517D01*
X40320Y-110915D01*
X39923Y-111510D01*
X39783Y-112213D01*
X39923Y-112915D01*
X40320Y-113510D01*
X40916Y-113908D01*
X41618Y-114048D01*
X42320Y-113908D01*
X42916Y-113510D01*
X43314Y-112915D01*
X43453Y-112213D01*
X43314Y-111510D01*
X42916Y-110915D01*
X42320Y-110517D01*
X41618Y-110377D01*
D02*
G37*
G36*
X9618Y-136039D02*
X8916Y-136179D01*
X8320Y-136576D01*
X7923Y-137172D01*
X7783Y-137874D01*
X7923Y-138576D01*
X8320Y-139172D01*
X8916Y-139570D01*
X9618Y-139709D01*
X10320Y-139570D01*
X10916Y-139172D01*
X11314Y-138576D01*
X11453Y-137874D01*
X11314Y-137172D01*
X10916Y-136576D01*
X10320Y-136179D01*
X9618Y-136039D01*
D02*
G37*
G36*
X76618Y-137539D02*
X75916Y-137679D01*
X75320Y-138076D01*
X74923Y-138672D01*
X74783Y-139374D01*
X74923Y-140076D01*
X75320Y-140672D01*
X75916Y-141070D01*
X76618Y-141209D01*
X77320Y-141070D01*
X77916Y-140672D01*
X78314Y-140076D01*
X78453Y-139374D01*
X78314Y-138672D01*
X77916Y-138076D01*
X77320Y-137679D01*
X76618Y-137539D01*
D02*
G37*
G36*
X51118Y-112039D02*
X50416Y-112179D01*
X49820Y-112576D01*
X49423Y-113172D01*
X49283Y-113874D01*
X49423Y-114576D01*
X49820Y-115172D01*
X50416Y-115570D01*
X51118Y-115709D01*
X51820Y-115570D01*
X52416Y-115172D01*
X52814Y-114576D01*
X52953Y-113874D01*
X52814Y-113172D01*
X52416Y-112576D01*
X51820Y-112179D01*
X51118Y-112039D01*
D02*
G37*
G36*
X116118Y-118774D02*
X115123Y-118972D01*
X114280Y-119536D01*
X113716Y-120379D01*
X113518Y-121374D01*
X113716Y-122369D01*
X114280Y-123213D01*
X115123Y-123776D01*
X116118Y-123974D01*
X117113Y-123776D01*
X117957Y-123213D01*
X118520Y-122369D01*
X118718Y-121374D01*
X118520Y-120379D01*
X117957Y-119536D01*
X117113Y-118972D01*
X116118Y-118774D01*
D02*
G37*
G36*
X106118Y-101089D02*
X105138Y-101218D01*
X104226Y-101596D01*
X103442Y-102198D01*
X102840Y-102981D01*
X102462Y-103894D01*
X102333Y-104874D01*
X102462Y-105854D01*
X102840Y-106767D01*
X103442Y-107551D01*
X104226Y-108152D01*
X105138Y-108530D01*
X106118Y-108659D01*
X107098Y-108530D01*
X108011Y-108152D01*
X108795Y-107551D01*
X109396Y-106767D01*
X109774Y-105854D01*
X109903Y-104874D01*
X109774Y-103894D01*
X109396Y-102981D01*
X108795Y-102198D01*
X108011Y-101596D01*
X107098Y-101218D01*
X106118Y-101089D01*
D02*
G37*
G36*
X96118D02*
X95139Y-101218D01*
X94226Y-101596D01*
X93442Y-102198D01*
X92840Y-102981D01*
X92462Y-103894D01*
X92333Y-104874D01*
X92462Y-105854D01*
X92840Y-106767D01*
X93442Y-107551D01*
X94226Y-108152D01*
X95139Y-108530D01*
X96118Y-108659D01*
X97098Y-108530D01*
X98011Y-108152D01*
X98795Y-107551D01*
X99396Y-106767D01*
X99774Y-105854D01*
X99903Y-104874D01*
X99774Y-103894D01*
X99396Y-102981D01*
X98795Y-102198D01*
X98011Y-101596D01*
X97098Y-101218D01*
X96118Y-101089D01*
D02*
G37*
G36*
X48218Y-106618D02*
X47916Y-106678D01*
X47320Y-107076D01*
X46923Y-107672D01*
X46862Y-107974D01*
X48218D01*
Y-106618D01*
D02*
G37*
G36*
X114718Y-107274D02*
X113362D01*
X113423Y-107576D01*
X113820Y-108172D01*
X114416Y-108570D01*
X114718Y-108630D01*
Y-107274D01*
D02*
G37*
G36*
X86118Y-101089D02*
X85138Y-101218D01*
X84225Y-101596D01*
X83442Y-102198D01*
X82840Y-102981D01*
X82462Y-103894D01*
X82333Y-104874D01*
X82462Y-105854D01*
X82840Y-106767D01*
X83442Y-107551D01*
X84225Y-108152D01*
X85138Y-108530D01*
X86118Y-108659D01*
X87098Y-108530D01*
X88011Y-108152D01*
X88795Y-107551D01*
X89396Y-106767D01*
X89774Y-105854D01*
X89903Y-104874D01*
X89774Y-103894D01*
X89396Y-102981D01*
X88795Y-102198D01*
X88011Y-101596D01*
X87098Y-101218D01*
X86118Y-101089D01*
D02*
G37*
G36*
X41618Y-105259D02*
X40916Y-105399D01*
X40320Y-105797D01*
X39923Y-106392D01*
X39783Y-107095D01*
X39923Y-107797D01*
X40320Y-108392D01*
X40916Y-108790D01*
X41618Y-108930D01*
X42320Y-108790D01*
X42916Y-108392D01*
X43314Y-107797D01*
X43453Y-107095D01*
X43314Y-106392D01*
X42916Y-105797D01*
X42320Y-105399D01*
X41618Y-105259D01*
D02*
G37*
G36*
X162374Y-108774D02*
X161018D01*
Y-110130D01*
X161320Y-110070D01*
X161916Y-109672D01*
X162314Y-109076D01*
X162374Y-108774D01*
D02*
G37*
G36*
X76118Y-101089D02*
X75138Y-101218D01*
X74225Y-101596D01*
X73442Y-102198D01*
X72840Y-102981D01*
X72462Y-103894D01*
X72333Y-104874D01*
X72462Y-105854D01*
X72840Y-106767D01*
X73442Y-107551D01*
X74225Y-108152D01*
X75138Y-108530D01*
X76118Y-108659D01*
X77098Y-108530D01*
X78011Y-108152D01*
X78795Y-107551D01*
X79396Y-106767D01*
X79774Y-105854D01*
X79903Y-104874D01*
X79774Y-103894D01*
X79396Y-102981D01*
X78795Y-102198D01*
X78011Y-101596D01*
X77098Y-101218D01*
X76118Y-101089D01*
D02*
G37*
G36*
X153618Y-105259D02*
X152916Y-105399D01*
X152320Y-105797D01*
X151923Y-106392D01*
X151783Y-107095D01*
X151923Y-107797D01*
X152320Y-108392D01*
X152916Y-108790D01*
X153618Y-108930D01*
X154320Y-108790D01*
X154916Y-108392D01*
X155314Y-107797D01*
X155453Y-107095D01*
X155314Y-106392D01*
X154916Y-105797D01*
X154320Y-105399D01*
X153618Y-105259D01*
D02*
G37*
G36*
X111811Y16796D02*
X111109Y16656D01*
X110513Y16258D01*
X110116Y15663D01*
X109976Y14961D01*
X110116Y14258D01*
X110513Y13663D01*
X111109Y13265D01*
X111811Y13125D01*
X112513Y13265D01*
X113109Y13663D01*
X113507Y14258D01*
X113646Y14961D01*
X113507Y15663D01*
X113109Y16258D01*
X112513Y16656D01*
X111811Y16796D01*
D02*
G37*
G36*
X230496Y14167D02*
X229140D01*
Y12811D01*
X229443Y12871D01*
X230038Y13269D01*
X230436Y13865D01*
X230496Y14167D01*
D02*
G37*
G36*
X61811Y17190D02*
X61109Y17050D01*
X60513Y16652D01*
X60115Y16057D01*
X59976Y15354D01*
X60115Y14652D01*
X60513Y14057D01*
X61109Y13659D01*
X61811Y13519D01*
X62513Y13659D01*
X63109Y14057D01*
X63507Y14652D01*
X63646Y15354D01*
X63507Y16057D01*
X63109Y16652D01*
X62513Y17050D01*
X61811Y17190D01*
D02*
G37*
G36*
X56693D02*
X55991Y17050D01*
X55395Y16652D01*
X54997Y16057D01*
X54858Y15354D01*
X54997Y14652D01*
X55395Y14057D01*
X55991Y13659D01*
X56693Y13519D01*
X57395Y13659D01*
X57991Y14057D01*
X58389Y14652D01*
X58528Y15354D01*
X58389Y16057D01*
X57991Y16652D01*
X57395Y17050D01*
X56693Y17190D01*
D02*
G37*
G36*
X228340Y14167D02*
X226985D01*
X227045Y13865D01*
X227442Y13269D01*
X228038Y12871D01*
X228340Y12811D01*
Y14167D01*
D02*
G37*
G36*
X205118Y14040D02*
X204416Y13900D01*
X203820Y13502D01*
X203423Y12907D01*
X203283Y12205D01*
X203423Y11502D01*
X203820Y10907D01*
X204416Y10509D01*
X205118Y10369D01*
X205820Y10509D01*
X206416Y10907D01*
X206814Y11502D01*
X206953Y12205D01*
X206814Y12907D01*
X206416Y13502D01*
X205820Y13900D01*
X205118Y14040D01*
D02*
G37*
G36*
X152051Y-10539D02*
X151349Y-10678D01*
X150754Y-11076D01*
X150356Y-11672D01*
X150216Y-12374D01*
X150356Y-13076D01*
X150754Y-13672D01*
X151349Y-14070D01*
X152051Y-14209D01*
X152754Y-14070D01*
X153349Y-13672D01*
X153747Y-13076D01*
X153887Y-12374D01*
X153747Y-11672D01*
X153349Y-11076D01*
X152754Y-10678D01*
X152051Y-10539D01*
D02*
G37*
G36*
X214961Y14434D02*
X214258Y14294D01*
X213663Y13896D01*
X213265Y13301D01*
X213125Y12598D01*
X213265Y11896D01*
X213663Y11301D01*
X214258Y10903D01*
X214961Y10763D01*
X215663Y10903D01*
X216258Y11301D01*
X216656Y11896D01*
X216796Y12598D01*
X216656Y13301D01*
X216258Y13896D01*
X215663Y14294D01*
X214961Y14434D01*
D02*
G37*
G36*
X210236D02*
X209534Y14294D01*
X208939Y13896D01*
X208541Y13301D01*
X208401Y12598D01*
X208541Y11896D01*
X208939Y11301D01*
X209534Y10903D01*
X210236Y10763D01*
X210939Y10903D01*
X211534Y11301D01*
X211932Y11896D01*
X212071Y12598D01*
X211932Y13301D01*
X211534Y13896D01*
X210939Y14294D01*
X210236Y14434D01*
D02*
G37*
G36*
X111417Y25851D02*
X110715Y25711D01*
X110120Y25313D01*
X109722Y24718D01*
X109582Y24016D01*
X109722Y23313D01*
X110120Y22718D01*
X110715Y22320D01*
X111417Y22181D01*
X112120Y22320D01*
X112715Y22718D01*
X113113Y23313D01*
X113253Y24016D01*
X113113Y24718D01*
X112715Y25313D01*
X112120Y25711D01*
X111417Y25851D01*
D02*
G37*
G36*
X249213Y23882D02*
X248510Y23743D01*
X247915Y23345D01*
X247517Y22750D01*
X247377Y22047D01*
X247473Y21565D01*
X247517Y21345D01*
X247129Y21025D01*
X246936Y20987D01*
X246340Y20589D01*
X245942Y19994D01*
X245802Y19291D01*
X245942Y18589D01*
X246340Y17994D01*
X246936Y17596D01*
X247638Y17456D01*
X248340Y17596D01*
X248936Y17994D01*
X249333Y18589D01*
X249473Y19291D01*
X249377Y19774D01*
X249333Y19994D01*
X249721Y20313D01*
X249915Y20352D01*
X250510Y20750D01*
X250908Y21345D01*
X251048Y22047D01*
X250908Y22750D01*
X250510Y23345D01*
X249915Y23743D01*
X249213Y23882D01*
D02*
G37*
G36*
X68232Y23557D02*
X66876D01*
Y22201D01*
X67179Y22261D01*
X67774Y22659D01*
X68172Y23254D01*
X68232Y23557D01*
D02*
G37*
G36*
X66076D02*
X64721D01*
X64781Y23254D01*
X65179Y22659D01*
X65774Y22261D01*
X66076Y22201D01*
Y23557D01*
D02*
G37*
G36*
X223622Y16796D02*
X222920Y16656D01*
X222357Y16280D01*
X222210Y16218D01*
X221884D01*
X221738Y16280D01*
X221175Y16656D01*
X220472Y16796D01*
X219770Y16656D01*
X219175Y16258D01*
X218777Y15663D01*
X218637Y14961D01*
X218777Y14258D01*
X219175Y13663D01*
X219770Y13265D01*
X220472Y13125D01*
X221175Y13265D01*
X221738Y13641D01*
X221884Y13703D01*
X222210D01*
X222357Y13641D01*
X222920Y13265D01*
X223622Y13125D01*
X224324Y13265D01*
X224920Y13663D01*
X225318Y14258D01*
X225457Y14961D01*
X225318Y15663D01*
X224920Y16258D01*
X224324Y16656D01*
X223622Y16796D01*
D02*
G37*
G36*
X162205Y17190D02*
X161502Y17050D01*
X160907Y16652D01*
X160509Y16057D01*
X160370Y15354D01*
X160509Y14652D01*
X160907Y14057D01*
X161502Y13659D01*
X162205Y13519D01*
X162907Y13659D01*
X163502Y14057D01*
X163900Y14652D01*
X164040Y15354D01*
X163900Y16057D01*
X163502Y16652D01*
X162907Y17050D01*
X162205Y17190D01*
D02*
G37*
G36*
X156693D02*
X155991Y17050D01*
X155395Y16652D01*
X154997Y16057D01*
X154858Y15354D01*
X154997Y14652D01*
X155395Y14057D01*
X155991Y13659D01*
X156693Y13519D01*
X157395Y13659D01*
X157991Y14057D01*
X158388Y14652D01*
X158528Y15354D01*
X158388Y16057D01*
X157991Y16652D01*
X157395Y17050D01*
X156693Y17190D01*
D02*
G37*
G36*
X229140Y16323D02*
Y14967D01*
X230496D01*
X230436Y15269D01*
X230038Y15865D01*
X229443Y16262D01*
X229140Y16323D01*
D02*
G37*
G36*
X228340D02*
X228038Y16262D01*
X227442Y15865D01*
X227045Y15269D01*
X226985Y14967D01*
X228340D01*
Y16323D01*
D02*
G37*
G36*
X40051Y-10539D02*
X39349Y-10678D01*
X38754Y-11076D01*
X38356Y-11672D01*
X38216Y-12374D01*
X38356Y-13076D01*
X38754Y-13672D01*
X39349Y-14070D01*
X40051Y-14209D01*
X40754Y-14070D01*
X41349Y-13672D01*
X41747Y-13076D01*
X41887Y-12374D01*
X41747Y-11672D01*
X41349Y-11076D01*
X40754Y-10678D01*
X40051Y-10539D01*
D02*
G37*
G36*
X86618Y-19089D02*
X85638Y-19218D01*
X84725Y-19596D01*
X83942Y-20198D01*
X83340Y-20981D01*
X82962Y-21894D01*
X82833Y-22874D01*
X82962Y-23854D01*
X83340Y-24767D01*
X83942Y-25550D01*
X84725Y-26152D01*
X85638Y-26530D01*
X86618Y-26659D01*
X87598Y-26530D01*
X88511Y-26152D01*
X89295Y-25550D01*
X89896Y-24767D01*
X90274Y-23854D01*
X90403Y-22874D01*
X90274Y-21894D01*
X89896Y-20981D01*
X89295Y-20198D01*
X88511Y-19596D01*
X87598Y-19218D01*
X86618Y-19089D01*
D02*
G37*
G36*
X114718Y-25774D02*
X113362D01*
X113423Y-26076D01*
X113820Y-26672D01*
X114416Y-27070D01*
X114718Y-27130D01*
Y-25774D01*
D02*
G37*
G36*
X49018Y-25118D02*
Y-26474D01*
X50374D01*
X50314Y-26172D01*
X49916Y-25576D01*
X49320Y-25179D01*
X49018Y-25118D01*
D02*
G37*
G36*
X48218D02*
X47916Y-25179D01*
X47320Y-25576D01*
X46923Y-26172D01*
X46862Y-26474D01*
X48218D01*
Y-25118D01*
D02*
G37*
G36*
X153618Y-23759D02*
X152916Y-23899D01*
X152320Y-24297D01*
X151923Y-24892D01*
X151783Y-25594D01*
X151923Y-26297D01*
X152320Y-26892D01*
X152916Y-27290D01*
X153618Y-27430D01*
X154320Y-27290D01*
X154916Y-26892D01*
X155314Y-26297D01*
X155453Y-25594D01*
X155314Y-24892D01*
X154916Y-24297D01*
X154320Y-23899D01*
X153618Y-23759D01*
D02*
G37*
G36*
X160218Y-27274D02*
X158862D01*
X158923Y-27576D01*
X159320Y-28172D01*
X159916Y-28570D01*
X160218Y-28630D01*
Y-27274D01*
D02*
G37*
G36*
X50374D02*
X49018D01*
Y-28630D01*
X49320Y-28570D01*
X49916Y-28172D01*
X50314Y-27576D01*
X50374Y-27274D01*
D02*
G37*
G36*
X41618Y-23759D02*
X40916Y-23899D01*
X40320Y-24297D01*
X39923Y-24892D01*
X39783Y-25594D01*
X39923Y-26297D01*
X40320Y-26892D01*
X40916Y-27290D01*
X41618Y-27430D01*
X42320Y-27290D01*
X42916Y-26892D01*
X43314Y-26297D01*
X43453Y-25594D01*
X43314Y-24892D01*
X42916Y-24297D01*
X42320Y-23899D01*
X41618Y-23759D01*
D02*
G37*
G36*
X162374Y-27274D02*
X161018D01*
Y-28630D01*
X161320Y-28570D01*
X161916Y-28172D01*
X162314Y-27576D01*
X162374Y-27274D01*
D02*
G37*
G36*
X153618Y-19539D02*
X152916Y-19679D01*
X152320Y-20076D01*
X151923Y-20672D01*
X151783Y-21374D01*
X151923Y-22076D01*
X152320Y-22672D01*
X152916Y-23070D01*
X153618Y-23209D01*
X154320Y-23070D01*
X154916Y-22672D01*
X155314Y-22076D01*
X155453Y-21374D01*
X155314Y-20672D01*
X154916Y-20076D01*
X154320Y-19679D01*
X153618Y-19539D01*
D02*
G37*
G36*
X41618D02*
X40916Y-19679D01*
X40320Y-20076D01*
X39923Y-20672D01*
X39783Y-21374D01*
X39923Y-22076D01*
X40320Y-22672D01*
X40916Y-23070D01*
X41618Y-23209D01*
X42320Y-23070D01*
X42916Y-22672D01*
X43314Y-22076D01*
X43453Y-21374D01*
X43314Y-20672D01*
X42916Y-20076D01*
X42320Y-19679D01*
X41618Y-19539D01*
D02*
G37*
G36*
X160618Y-17039D02*
X159916Y-17178D01*
X159320Y-17576D01*
X158923Y-18172D01*
X158783Y-18874D01*
X158923Y-19576D01*
X159320Y-20172D01*
X159916Y-20570D01*
X160618Y-20709D01*
X161320Y-20570D01*
X161916Y-20172D01*
X162314Y-19576D01*
X162453Y-18874D01*
X162314Y-18172D01*
X161916Y-17576D01*
X161320Y-17178D01*
X160618Y-17039D01*
D02*
G37*
G36*
X48618D02*
X47916Y-17178D01*
X47320Y-17576D01*
X46923Y-18172D01*
X46783Y-18874D01*
X46923Y-19576D01*
X47320Y-20172D01*
X47916Y-20570D01*
X48618Y-20709D01*
X49320Y-20570D01*
X49916Y-20172D01*
X50314Y-19576D01*
X50453Y-18874D01*
X50314Y-18172D01*
X49916Y-17576D01*
X49320Y-17178D01*
X48618Y-17039D01*
D02*
G37*
G36*
X118118Y-23539D02*
X117416Y-23678D01*
X116956Y-23985D01*
X116618Y-24042D01*
X116280Y-23985D01*
X115820Y-23678D01*
X115518Y-23618D01*
Y-25374D01*
Y-27130D01*
X115820Y-27070D01*
X116416Y-26672D01*
X116820D01*
X117416Y-27070D01*
X118118Y-27209D01*
X118820Y-27070D01*
X119416Y-26672D01*
X119814Y-26076D01*
X119953Y-25374D01*
X119814Y-24672D01*
X119416Y-24076D01*
X118820Y-23678D01*
X118118Y-23539D01*
D02*
G37*
G36*
X161018Y-25118D02*
Y-26474D01*
X162374D01*
X162314Y-26172D01*
X161916Y-25576D01*
X161320Y-25179D01*
X161018Y-25118D01*
D02*
G37*
G36*
X160218D02*
X159916Y-25179D01*
X159320Y-25576D01*
X158923Y-26172D01*
X158862Y-26474D01*
X160218D01*
Y-25118D01*
D02*
G37*
G36*
X6118Y-23539D02*
X5416Y-23678D01*
X4820Y-24076D01*
X4416D01*
X3820Y-23678D01*
X3518Y-23618D01*
Y-25374D01*
Y-27130D01*
X3820Y-27070D01*
X4416Y-26672D01*
X4820D01*
X5416Y-27070D01*
X6118Y-27209D01*
X6820Y-27070D01*
X7416Y-26672D01*
X7814Y-26076D01*
X7953Y-25374D01*
X7814Y-24672D01*
X7416Y-24076D01*
X6820Y-23678D01*
X6118Y-23539D01*
D02*
G37*
G36*
X114718Y-23618D02*
X114416Y-23678D01*
X113820Y-24076D01*
X113423Y-24672D01*
X113362Y-24974D01*
X114718D01*
Y-23618D01*
D02*
G37*
G36*
X111500Y84335D02*
X110798Y84196D01*
X110202Y83798D01*
X109804Y83202D01*
X109665Y82500D01*
X109804Y81798D01*
X110202Y81202D01*
X110327Y81119D01*
Y73500D01*
X110417Y73051D01*
X110671Y72671D01*
X116328Y67014D01*
Y65873D01*
X115828Y65773D01*
X115778Y65893D01*
X115176Y66676D01*
X114393Y67278D01*
X113480Y67656D01*
X112500Y67785D01*
X111520Y67656D01*
X110607Y67278D01*
X109824Y66676D01*
X109222Y65893D01*
X108844Y64980D01*
X108715Y64000D01*
X108844Y63020D01*
X109222Y62107D01*
X109824Y61323D01*
X110607Y60722D01*
X111520Y60344D01*
X112500Y60215D01*
X113480Y60344D01*
X114393Y60722D01*
X115176Y61323D01*
X115778Y62107D01*
X115828Y62227D01*
X116328Y62127D01*
Y58000D01*
X116417Y57551D01*
X116671Y57171D01*
X124671Y49171D01*
X125051Y48917D01*
X125500Y48827D01*
X133172D01*
X133279Y48753D01*
X133285Y48701D01*
X132990Y48253D01*
X130624D01*
X128747Y46376D01*
Y42624D01*
X130624Y40747D01*
X134376D01*
X136253Y42624D01*
Y46376D01*
X134946Y47683D01*
X134959Y47795D01*
X135143Y48193D01*
X135702Y48304D01*
X136298Y48702D01*
X136696Y49298D01*
X136835Y50000D01*
X136696Y50702D01*
X136298Y51298D01*
X135702Y51696D01*
X135000Y51835D01*
X134298Y51696D01*
X133702Y51298D01*
X133619Y51173D01*
X125986D01*
X118673Y58486D01*
Y62127D01*
X119173Y62227D01*
X119222Y62107D01*
X119824Y61323D01*
X120607Y60722D01*
X121520Y60344D01*
X122500Y60215D01*
X123480Y60344D01*
X124393Y60722D01*
X125177Y61323D01*
X125778Y62107D01*
X126156Y63020D01*
X126285Y64000D01*
X126156Y64980D01*
X125778Y65893D01*
X125177Y66676D01*
X124393Y67278D01*
X123480Y67656D01*
X122500Y67785D01*
X121520Y67656D01*
X120607Y67278D01*
X119824Y66676D01*
X119222Y65893D01*
X119173Y65773D01*
X118673Y65873D01*
Y67500D01*
X118583Y67949D01*
X118329Y68329D01*
X112672Y73986D01*
Y81119D01*
X112798Y81202D01*
X113196Y81798D01*
X113335Y82500D01*
X113196Y83202D01*
X112798Y83798D01*
X112202Y84196D01*
X111500Y84335D01*
D02*
G37*
G36*
X124114Y145892D02*
X123237Y145776D01*
X122420Y145438D01*
X121719Y144900D01*
X121180Y144198D01*
X120842Y143381D01*
X120726Y142504D01*
X120842Y141627D01*
X121180Y140810D01*
X121719Y140108D01*
X122420Y139570D01*
X123237Y139231D01*
X124114Y139116D01*
X124991Y139231D01*
X125808Y139570D01*
X126510Y140108D01*
X127048Y140810D01*
X127387Y141627D01*
X127502Y142504D01*
X127387Y143381D01*
X127048Y144198D01*
X126510Y144900D01*
X125808Y145438D01*
X124991Y145776D01*
X124114Y145892D01*
D02*
G37*
G36*
X37500D02*
X36623Y145776D01*
X35806Y145438D01*
X35104Y144900D01*
X34566Y144198D01*
X34227Y143381D01*
X34112Y142504D01*
X34227Y141627D01*
X34566Y140810D01*
X35104Y140108D01*
X35806Y139570D01*
X36623Y139231D01*
X37500Y139116D01*
X38377Y139231D01*
X39194Y139570D01*
X39896Y140108D01*
X40434Y140810D01*
X40773Y141627D01*
X40888Y142504D01*
X40773Y143381D01*
X40434Y144198D01*
X39896Y144900D01*
X39194Y145438D01*
X38377Y145776D01*
X37500Y145892D01*
D02*
G37*
G36*
X338600Y143435D02*
X337898Y143296D01*
X337302Y142898D01*
X336904Y142302D01*
X336765Y141600D01*
X336904Y140898D01*
X337302Y140302D01*
X337898Y139904D01*
X338600Y139765D01*
X339302Y139904D01*
X339898Y140302D01*
X340296Y140898D01*
X340435Y141600D01*
X340296Y142302D01*
X339898Y142898D01*
X339302Y143296D01*
X338600Y143435D01*
D02*
G37*
G36*
X298400Y145035D02*
X297698Y144896D01*
X297102Y144498D01*
X296704Y143902D01*
X296565Y143200D01*
X296704Y142498D01*
X297102Y141902D01*
X297698Y141504D01*
X298400Y141365D01*
X299102Y141504D01*
X299698Y141902D01*
X300096Y142498D01*
X300235Y143200D01*
X300096Y143902D01*
X299698Y144498D01*
X299102Y144896D01*
X298400Y145035D01*
D02*
G37*
G36*
X328700Y143735D02*
X327998Y143596D01*
X327402Y143198D01*
X327004Y142602D01*
X326865Y141900D01*
X326894Y141752D01*
X326114Y140972D01*
X319900D01*
X319490Y141472D01*
X319535Y141700D01*
X319396Y142402D01*
X318998Y142998D01*
X318402Y143396D01*
X317700Y143535D01*
X316998Y143396D01*
X316402Y142998D01*
X316319Y142873D01*
X313900D01*
X313451Y142783D01*
X313071Y142529D01*
X310135Y139593D01*
X309672Y139784D01*
Y140519D01*
X309798Y140602D01*
X310196Y141198D01*
X310335Y141900D01*
X310196Y142602D01*
X309798Y143198D01*
X309202Y143596D01*
X308500Y143735D01*
X307798Y143596D01*
X307202Y143198D01*
X306804Y142602D01*
X306665Y141900D01*
X306804Y141198D01*
X307202Y140602D01*
X307328Y140519D01*
Y133786D01*
X302721Y129179D01*
X302467Y128799D01*
X302378Y128350D01*
Y126331D01*
X302198Y126296D01*
X301606Y125900D01*
X301570Y125908D01*
X301105Y126053D01*
X300996Y126602D01*
X300598Y127198D01*
X300002Y127596D01*
X299300Y127735D01*
X298598Y127596D01*
X298002Y127198D01*
X297604Y126602D01*
X297465Y125900D01*
X297604Y125198D01*
X298002Y124602D01*
X298598Y124204D01*
X299300Y124065D01*
X300002Y124204D01*
X300594Y124600D01*
X300630Y124592D01*
X301095Y124447D01*
X301204Y123898D01*
X301602Y123302D01*
X302198Y122904D01*
X302578Y122829D01*
X302604Y122815D01*
X302873Y122411D01*
X302726Y122095D01*
X302591Y121957D01*
X302200Y122035D01*
X301498Y121896D01*
X300902Y121498D01*
X300547Y120966D01*
X300202Y121196D01*
X299500Y121335D01*
X298798Y121196D01*
X298202Y120798D01*
X297804Y120202D01*
X297665Y119500D01*
X297804Y118798D01*
X298202Y118202D01*
X298798Y117804D01*
X299500Y117665D01*
X300202Y117804D01*
X300798Y118202D01*
X301153Y118735D01*
X301498Y118504D01*
X302200Y118365D01*
X302902Y118504D01*
X303461Y118877D01*
X305666D01*
X306115Y118967D01*
X306495Y119221D01*
X312129Y124855D01*
X312383Y125235D01*
X312473Y125684D01*
Y130800D01*
X312383Y131249D01*
X312129Y131629D01*
X312072Y131686D01*
Y133700D01*
X312573Y134110D01*
X312800Y134065D01*
X313502Y134204D01*
X314098Y134602D01*
X314496Y135198D01*
X314635Y135900D01*
X314496Y136602D01*
X314098Y137198D01*
X313716Y137453D01*
X313602Y138047D01*
X314183Y138628D01*
X326600D01*
X327049Y138717D01*
X327429Y138971D01*
X328552Y140094D01*
X328700Y140065D01*
X329402Y140204D01*
X329998Y140602D01*
X330396Y141198D01*
X330535Y141900D01*
X330396Y142602D01*
X329998Y143198D01*
X329402Y143596D01*
X328700Y143735D01*
D02*
G37*
G36*
X283000Y137835D02*
X282298Y137696D01*
X281702Y137298D01*
X281304Y136702D01*
X280811Y136673D01*
X280500Y136735D01*
X279798Y136596D01*
X279202Y136198D01*
X278804Y135602D01*
X278665Y134900D01*
X278804Y134198D01*
X279202Y133602D01*
X279798Y133204D01*
X280500Y133065D01*
X281202Y133204D01*
X281798Y133602D01*
X282196Y134198D01*
X282689Y134227D01*
X283000Y134165D01*
X283702Y134304D01*
X284298Y134702D01*
X284696Y135298D01*
X284835Y136000D01*
X284696Y136702D01*
X284298Y137298D01*
X283702Y137696D01*
X283000Y137835D01*
D02*
G37*
G36*
X212000Y138335D02*
X211298Y138196D01*
X210702Y137798D01*
X210304Y137202D01*
X210165Y136500D01*
X210304Y135798D01*
X210702Y135202D01*
X211078Y134951D01*
X210854Y134617D01*
X210715Y133914D01*
X210854Y133212D01*
X211252Y132617D01*
X211848Y132219D01*
X212550Y132079D01*
X213252Y132219D01*
X213848Y132617D01*
X214246Y133212D01*
X214357Y133773D01*
X214400Y133765D01*
X215102Y133904D01*
X215698Y134302D01*
X216096Y134898D01*
X216235Y135600D01*
X216096Y136302D01*
X215698Y136898D01*
X215102Y137296D01*
X214400Y137435D01*
X213698Y137296D01*
X213653Y137266D01*
X213298Y137798D01*
X212702Y138196D01*
X212000Y138335D01*
D02*
G37*
G36*
X206000Y141335D02*
X205298Y141196D01*
X204702Y140798D01*
X204304Y140202D01*
X204165Y139500D01*
X204304Y138798D01*
X204702Y138202D01*
X205298Y137804D01*
X206000Y137665D01*
X206702Y137804D01*
X207162Y138112D01*
X207302Y137902D01*
X207898Y137504D01*
X208600Y137365D01*
X209302Y137504D01*
X209898Y137902D01*
X210296Y138498D01*
X210435Y139200D01*
X210296Y139902D01*
X209898Y140498D01*
X209302Y140896D01*
X208600Y141035D01*
X207898Y140896D01*
X207438Y140588D01*
X207298Y140798D01*
X206702Y141196D01*
X206000Y141335D01*
D02*
G37*
G36*
X214400Y142335D02*
X213698Y142196D01*
X213102Y141798D01*
X212704Y141202D01*
X212565Y140500D01*
X212704Y139798D01*
X213102Y139202D01*
X213698Y138804D01*
X214400Y138665D01*
X215102Y138804D01*
X215698Y139202D01*
X216096Y139798D01*
X216235Y140500D01*
X216096Y141202D01*
X215698Y141798D01*
X215102Y142196D01*
X214400Y142335D01*
D02*
G37*
G36*
X287500Y141835D02*
X286798Y141696D01*
X286202Y141298D01*
X285804Y140702D01*
X285665Y140000D01*
X285804Y139298D01*
X286202Y138702D01*
X286798Y138304D01*
X287500Y138165D01*
X288202Y138304D01*
X288798Y138702D01*
X289196Y139298D01*
X289335Y140000D01*
X289196Y140702D01*
X288798Y141298D01*
X288202Y141696D01*
X287500Y141835D01*
D02*
G37*
G36*
X210000Y145235D02*
X209298Y145096D01*
X208702Y144698D01*
X208304Y144102D01*
X208165Y143400D01*
X208304Y142698D01*
X208702Y142102D01*
X209298Y141704D01*
X210000Y141565D01*
X210702Y141704D01*
X211298Y142102D01*
X211696Y142698D01*
X211835Y143400D01*
X211696Y144102D01*
X211298Y144698D01*
X210702Y145096D01*
X210000Y145235D01*
D02*
G37*
G36*
X61600Y148935D02*
X60898Y148796D01*
X60302Y148398D01*
X59904Y147802D01*
X59765Y147100D01*
X59904Y146398D01*
X60302Y145802D01*
X60898Y145404D01*
X61600Y145265D01*
X62302Y145404D01*
X62898Y145802D01*
X63296Y146398D01*
X63435Y147100D01*
X63296Y147802D01*
X62898Y148398D01*
X62302Y148796D01*
X61600Y148935D01*
D02*
G37*
G36*
X14500Y148835D02*
X13798Y148696D01*
X13202Y148298D01*
X12804Y147702D01*
X12665Y147000D01*
X12804Y146298D01*
X13202Y145702D01*
X13798Y145304D01*
X14500Y145165D01*
X15202Y145304D01*
X15798Y145702D01*
X16196Y146298D01*
X16335Y147000D01*
X16196Y147702D01*
X15798Y148298D01*
X15202Y148696D01*
X14500Y148835D01*
D02*
G37*
G36*
X67000Y149335D02*
X66298Y149196D01*
X65702Y148798D01*
X65304Y148202D01*
X65165Y147500D01*
X65304Y146798D01*
X65702Y146202D01*
X66298Y145804D01*
X67000Y145665D01*
X67702Y145804D01*
X68298Y146202D01*
X68696Y146798D01*
X68835Y147500D01*
X68696Y148202D01*
X68298Y148798D01*
X67702Y149196D01*
X67000Y149335D01*
D02*
G37*
G36*
X37500Y153766D02*
X36623Y153650D01*
X35806Y153312D01*
X35104Y152774D01*
X34566Y152072D01*
X34227Y151255D01*
X34112Y150378D01*
X34227Y149501D01*
X34566Y148684D01*
X35104Y147982D01*
X35806Y147444D01*
X36623Y147105D01*
X37500Y146990D01*
X38377Y147105D01*
X39194Y147444D01*
X39896Y147982D01*
X40434Y148684D01*
X40773Y149501D01*
X40888Y150378D01*
X40773Y151255D01*
X40434Y152072D01*
X39896Y152774D01*
X39194Y153312D01*
X38377Y153650D01*
X37500Y153766D01*
D02*
G37*
G36*
X258000Y147335D02*
X257298Y147196D01*
X256702Y146798D01*
X256298D01*
X255702Y147196D01*
X255000Y147335D01*
X254298Y147196D01*
X253702Y146798D01*
X253304Y146202D01*
X253165Y145500D01*
X253304Y144798D01*
X253702Y144202D01*
X253828Y144119D01*
Y128683D01*
X249971Y124826D01*
X249717Y124446D01*
X249627Y123997D01*
Y116503D01*
X249717Y116054D01*
X249971Y115674D01*
X256128Y109517D01*
Y101800D01*
X255800Y101532D01*
Y99600D01*
Y97844D01*
X256102Y97904D01*
X256251Y98004D01*
X256471Y97674D01*
X262466Y91679D01*
X262340Y91264D01*
X262264Y91173D01*
X261702Y90798D01*
X261304Y90202D01*
X261165Y89500D01*
X261304Y88798D01*
X261702Y88202D01*
X262298Y87804D01*
X263000Y87665D01*
X263702Y87804D01*
X264298Y88202D01*
X264673Y88764D01*
X264764Y88840D01*
X265179Y88966D01*
X267974Y86171D01*
X268354Y85917D01*
X268590Y85870D01*
X268702Y85702D01*
X269298Y85304D01*
X270000Y85165D01*
X270702Y85304D01*
X271298Y85702D01*
X271696Y86298D01*
X271835Y87000D01*
X271696Y87702D01*
X271298Y88298D01*
X271161Y88389D01*
X271043Y89069D01*
X271196Y89298D01*
X271335Y90000D01*
X271196Y90702D01*
X270798Y91298D01*
X270202Y91696D01*
X269500Y91835D01*
X268798Y91696D01*
X268202Y91298D01*
X267705Y91453D01*
X259672Y99486D01*
Y102095D01*
X260173Y102247D01*
X260202Y102202D01*
X260798Y101804D01*
X261500Y101665D01*
X262202Y101804D01*
X262798Y102202D01*
X263196Y102798D01*
X263335Y103500D01*
X263196Y104202D01*
X262798Y104798D01*
X262202Y105196D01*
X262186Y105234D01*
X262296Y105398D01*
X262435Y106100D01*
X262296Y106802D01*
X261898Y107398D01*
Y107802D01*
X262296Y108398D01*
X262435Y109100D01*
X262296Y109802D01*
X261898Y110398D01*
X261302Y110796D01*
X260600Y110935D01*
X260115Y110839D01*
X259735Y110917D01*
X259473Y111113D01*
X259329Y111329D01*
X257293Y113365D01*
X257484Y113828D01*
X280014D01*
X290827Y103014D01*
Y101381D01*
X290702Y101298D01*
X290304Y100702D01*
X290165Y100000D01*
X290304Y99298D01*
X290702Y98702D01*
X291298Y98304D01*
X292000Y98165D01*
X292702Y98304D01*
X292718Y98315D01*
X293167Y98014D01*
X293165Y98000D01*
X293304Y97298D01*
X293702Y96702D01*
X294298Y96304D01*
X295000Y96165D01*
X295702Y96304D01*
X296298Y96702D01*
X296696Y97298D01*
X296835Y98000D01*
X296696Y98702D01*
X296298Y99298D01*
X296172Y99381D01*
Y102197D01*
X296083Y102646D01*
X295829Y103026D01*
X286034Y112821D01*
X286160Y113236D01*
X286236Y113327D01*
X286798Y113702D01*
X287196Y114298D01*
X287335Y115000D01*
X287196Y115702D01*
X286798Y116298D01*
X286202Y116696D01*
X285500Y116835D01*
X284798Y116696D01*
X284202Y116298D01*
X283827Y115736D01*
X283736Y115660D01*
X283321Y115534D01*
X273172Y125683D01*
Y126332D01*
X273600Y126672D01*
Y128500D01*
Y130328D01*
X273172Y130667D01*
Y132514D01*
X274769Y134111D01*
X275000Y134065D01*
X275702Y134204D01*
X276298Y134602D01*
X276696Y135198D01*
X276835Y135900D01*
X276696Y136602D01*
X276517Y136869D01*
X276518Y136870D01*
X276848Y137275D01*
X277400Y137165D01*
X278102Y137304D01*
X278698Y137702D01*
X279096Y138298D01*
X279235Y139000D01*
X279096Y139702D01*
X278698Y140298D01*
X278126Y140680D01*
X278111Y140783D01*
X278153Y141195D01*
X278702Y141304D01*
X279298Y141702D01*
X279696Y142298D01*
X279835Y143000D01*
X279696Y143702D01*
X279298Y144298D01*
X278702Y144696D01*
X278000Y144835D01*
X277298Y144696D01*
X276702Y144298D01*
X276304Y143702D01*
X276165Y143000D01*
X276304Y142298D01*
X276702Y141702D01*
X277274Y141320D01*
X277289Y141217D01*
X277247Y140805D01*
X276698Y140696D01*
X276102Y140298D01*
X275704Y139702D01*
X275565Y139000D01*
X275704Y138298D01*
X275883Y138031D01*
X275883Y138030D01*
X275552Y137625D01*
X275000Y137735D01*
X274298Y137596D01*
X273702Y137198D01*
X273304Y136602D01*
X273165Y135900D01*
X273178Y135836D01*
X271171Y133829D01*
X270917Y133449D01*
X270828Y133000D01*
Y125197D01*
X270917Y124748D01*
X271171Y124368D01*
X271464Y124074D01*
X271401Y123431D01*
X271202Y123298D01*
X270804Y122702D01*
X270665Y122000D01*
X270804Y121298D01*
X271202Y120702D01*
X271798Y120304D01*
X272500Y120165D01*
X273202Y120304D01*
X273798Y120702D01*
X273931Y120901D01*
X274574Y120965D01*
X278904Y116635D01*
X278713Y116173D01*
X277400D01*
X276990Y116673D01*
X277035Y116900D01*
X276896Y117602D01*
X276498Y118198D01*
X275902Y118596D01*
X275200Y118735D01*
X274498Y118596D01*
X273902Y118198D01*
X273504Y117602D01*
X273365Y116900D01*
X273410Y116673D01*
X273000Y116173D01*
X256956D01*
X256831Y116335D01*
X256820Y116376D01*
X256959Y116976D01*
X257298Y117202D01*
X257696Y117798D01*
X257750Y118069D01*
X258298Y118304D01*
X258600Y118244D01*
Y120000D01*
Y121877D01*
X258276Y122201D01*
X258335Y122500D01*
X258196Y123202D01*
X257798Y123798D01*
X257202Y124196D01*
X256500Y124335D01*
X255798Y124196D01*
X255202Y123798D01*
X254804Y123202D01*
X254698Y122667D01*
X254665Y122500D01*
X254195Y122296D01*
X254000Y122335D01*
X253683Y122272D01*
X253299Y122576D01*
X253276Y123118D01*
X258829Y128671D01*
X259083Y129051D01*
X259173Y129500D01*
Y144119D01*
X259298Y144202D01*
X259696Y144798D01*
X259835Y145500D01*
X259696Y146202D01*
X259298Y146798D01*
X258702Y147196D01*
X258000Y147335D01*
D02*
G37*
G36*
X75500Y146335D02*
X74798Y146196D01*
X74202Y145798D01*
X73804Y145202D01*
X73665Y144500D01*
X73804Y143798D01*
X74202Y143202D01*
X74798Y142804D01*
X75500Y142665D01*
X76202Y142804D01*
X76798Y143202D01*
X77196Y143798D01*
X77335Y144500D01*
X77196Y145202D01*
X76798Y145798D01*
X76202Y146196D01*
X75500Y146335D01*
D02*
G37*
G36*
X287700Y146235D02*
X286998Y146096D01*
X286402Y145698D01*
X286004Y145102D01*
X285865Y144400D01*
X286004Y143698D01*
X286402Y143102D01*
X286998Y142704D01*
X287700Y142565D01*
X288402Y142704D01*
X288998Y143102D01*
X289396Y143698D01*
X289535Y144400D01*
X289396Y145102D01*
X288998Y145698D01*
X288402Y146096D01*
X287700Y146235D01*
D02*
G37*
G36*
X243000Y144835D02*
X242298Y144696D01*
X241702Y144298D01*
X241304Y143702D01*
X241205Y143203D01*
X240697Y143202D01*
X240695Y143203D01*
X240298Y143798D01*
X239702Y144196D01*
X239000Y144335D01*
X238298Y144196D01*
X237702Y143798D01*
X237304Y143202D01*
X237165Y142500D01*
X237304Y141798D01*
X237702Y141202D01*
X238298Y140804D01*
X239000Y140665D01*
X239702Y140804D01*
X240298Y141202D01*
X240696Y141798D01*
X240795Y142297D01*
X241303Y142298D01*
X241305Y142297D01*
X241702Y141702D01*
X242298Y141304D01*
X243000Y141165D01*
X243702Y141304D01*
X244298Y141702D01*
X244696Y142298D01*
X244835Y143000D01*
X244696Y143702D01*
X244298Y144298D01*
X243702Y144696D01*
X243000Y144835D01*
D02*
G37*
G36*
X261400Y150835D02*
X260698Y150696D01*
X260102Y150298D01*
X259704Y149702D01*
X259565Y149000D01*
X259704Y148298D01*
X260102Y147702D01*
X260698Y147304D01*
X261400Y147165D01*
X262102Y147304D01*
X262408Y147509D01*
X262720Y147267D01*
X262797Y147168D01*
X262665Y146500D01*
X262804Y145798D01*
X263202Y145202D01*
X263798Y144804D01*
X264500Y144665D01*
X265202Y144804D01*
X265798Y145202D01*
X266196Y145798D01*
X266335Y146500D01*
X266196Y147202D01*
X265798Y147798D01*
X265202Y148196D01*
X264500Y148335D01*
X263798Y148196D01*
X263492Y147992D01*
X263180Y148233D01*
X263103Y148332D01*
X263235Y149000D01*
X263096Y149702D01*
X262698Y150298D01*
X262102Y150696D01*
X261400Y150835D01*
D02*
G37*
G36*
X249500Y147335D02*
X248798Y147196D01*
X248202Y146798D01*
X247804Y146202D01*
X247665Y145500D01*
X247804Y144798D01*
X248202Y144202D01*
X248798Y143804D01*
X249500Y143665D01*
X250202Y143804D01*
X250798Y144202D01*
X251196Y144798D01*
X251335Y145500D01*
X251196Y146202D01*
X250798Y146798D01*
X250202Y147196D01*
X249500Y147335D01*
D02*
G37*
G36*
X124114Y130144D02*
X123237Y130028D01*
X122420Y129690D01*
X121719Y129152D01*
X121180Y128450D01*
X120842Y127633D01*
X120726Y126756D01*
X120842Y125879D01*
X121180Y125062D01*
X121719Y124360D01*
X122420Y123822D01*
X123237Y123483D01*
X124114Y123368D01*
X124991Y123483D01*
X125808Y123822D01*
X126510Y124360D01*
X127048Y125062D01*
X127387Y125879D01*
X127502Y126756D01*
X127387Y127633D01*
X127048Y128450D01*
X126510Y129152D01*
X125808Y129690D01*
X124991Y130028D01*
X124114Y130144D01*
D02*
G37*
G36*
X37500D02*
X36623Y130028D01*
X35806Y129690D01*
X35104Y129152D01*
X34566Y128450D01*
X34227Y127633D01*
X34112Y126756D01*
X34227Y125879D01*
X34566Y125062D01*
X35104Y124360D01*
X35806Y123822D01*
X36623Y123483D01*
X37500Y123368D01*
X38377Y123483D01*
X39194Y123822D01*
X39896Y124360D01*
X40434Y125062D01*
X40773Y125879D01*
X40888Y126756D01*
X40773Y127633D01*
X40434Y128450D01*
X39896Y129152D01*
X39194Y129690D01*
X38377Y130028D01*
X37500Y130144D01*
D02*
G37*
G36*
X105000Y127335D02*
X104298Y127196D01*
X103702Y126798D01*
X103304Y126202D01*
X103165Y125500D01*
X103304Y124798D01*
X103702Y124202D01*
X104298Y123804D01*
X105000Y123665D01*
X105702Y123804D01*
X106298Y124202D01*
X106696Y124798D01*
X106835Y125500D01*
X106696Y126202D01*
X106298Y126798D01*
X105702Y127196D01*
X105000Y127335D01*
D02*
G37*
G36*
X275756Y128100D02*
X274400D01*
Y126744D01*
X274702Y126804D01*
X275298Y127202D01*
X275696Y127798D01*
X275756Y128100D01*
D02*
G37*
G36*
X192600Y146435D02*
X191898Y146296D01*
X191302Y145898D01*
X190904Y145302D01*
X190765Y144600D01*
X190904Y143898D01*
X191173Y143496D01*
Y138491D01*
X187391Y134709D01*
X187081Y134246D01*
X186973Y133700D01*
X186973Y133700D01*
Y111491D01*
X178909Y103427D01*
X163400D01*
X163400Y103427D01*
X162854Y103319D01*
X162391Y103009D01*
X162391Y103009D01*
X151309Y91927D01*
X151104D01*
X150702Y92196D01*
X150000Y92335D01*
X149298Y92196D01*
X148702Y91798D01*
X148304Y91202D01*
X148165Y90500D01*
X148304Y89798D01*
X148702Y89202D01*
X149298Y88804D01*
X149816Y88701D01*
X150020Y88198D01*
X147161Y85339D01*
X145013D01*
X144565Y85250D01*
X144184Y84996D01*
X142156Y82967D01*
X142008Y82997D01*
X141306Y82857D01*
X140710Y82459D01*
X140312Y81864D01*
X140173Y81161D01*
X140312Y80459D01*
X140710Y79864D01*
X141306Y79466D01*
X142008Y79326D01*
X142710Y79466D01*
X143306Y79864D01*
X143703Y80459D01*
X143843Y81161D01*
X144019Y81292D01*
X144200Y81243D01*
X144527Y81045D01*
X144643Y80459D01*
X145041Y79864D01*
X145636Y79466D01*
X146339Y79326D01*
X147041Y79466D01*
X147636Y79864D01*
X148034Y80459D01*
X148174Y81161D01*
X148144Y81309D01*
X164663Y97828D01*
X188924D01*
X189222Y97107D01*
X189823Y96323D01*
X190607Y95722D01*
X191520Y95344D01*
X192500Y95215D01*
X192627Y95231D01*
X195453D01*
X195765Y95293D01*
X196029Y95470D01*
X196206Y95735D01*
X196268Y96047D01*
Y98873D01*
X196285Y99000D01*
X196268Y99126D01*
Y101953D01*
X196206Y102265D01*
X196029Y102529D01*
X195765Y102706D01*
X195453Y102768D01*
X192627D01*
X192500Y102785D01*
X191520Y102656D01*
X190607Y102278D01*
X189823Y101676D01*
X189222Y100892D01*
X188924Y100172D01*
X183284D01*
X183093Y100635D01*
X187205Y104747D01*
X187748Y104583D01*
X187804Y104298D01*
X188202Y103702D01*
X188798Y103304D01*
X189500Y103165D01*
X190202Y103304D01*
X190798Y103702D01*
X191196Y104298D01*
X191313Y104888D01*
X191377Y105029D01*
X191784Y105309D01*
X192500Y105215D01*
X192627Y105231D01*
X195453D01*
X195765Y105293D01*
X196029Y105470D01*
X196206Y105735D01*
X196268Y106047D01*
Y108873D01*
X196285Y109000D01*
X196268Y109126D01*
Y111952D01*
X196206Y112265D01*
X196029Y112529D01*
X195765Y112706D01*
X195453Y112768D01*
X192627D01*
X192500Y112785D01*
X191520Y112656D01*
X190607Y112278D01*
X190276Y112023D01*
X189827Y112245D01*
Y115755D01*
X190276Y115976D01*
X190607Y115722D01*
X191520Y115344D01*
X192500Y115215D01*
X192627Y115231D01*
X195453D01*
X195765Y115293D01*
X196029Y115470D01*
X196206Y115735D01*
X196268Y116047D01*
Y118873D01*
X196285Y119000D01*
X196268Y119126D01*
Y121952D01*
X196206Y122265D01*
X196029Y122529D01*
X195765Y122706D01*
X195453Y122768D01*
X192627D01*
X192500Y122785D01*
X191520Y122656D01*
X190607Y122278D01*
X190276Y122023D01*
X189827Y122245D01*
Y125755D01*
X190276Y125976D01*
X190607Y125722D01*
X191520Y125344D01*
X192500Y125215D01*
X192627Y125231D01*
X195453D01*
X195765Y125293D01*
X196029Y125470D01*
X196206Y125735D01*
X196268Y126047D01*
Y128873D01*
X196285Y129000D01*
X196268Y129127D01*
Y131953D01*
X196206Y132265D01*
X196029Y132529D01*
X195765Y132706D01*
X195453Y132768D01*
X192627D01*
X192500Y132785D01*
X191520Y132656D01*
X190607Y132278D01*
X190276Y132023D01*
X189827Y132245D01*
Y133109D01*
X193609Y136891D01*
X193609Y136891D01*
X193919Y137354D01*
X194027Y137900D01*
X194027Y137900D01*
Y143496D01*
X194296Y143898D01*
X194435Y144600D01*
X194296Y145302D01*
X193898Y145898D01*
X193302Y146296D01*
X192600Y146435D01*
D02*
G37*
G36*
X210433Y123835D02*
X209731Y123696D01*
X209135Y123298D01*
X208737Y122702D01*
X208598Y122000D01*
X208737Y121298D01*
X209135Y120702D01*
X209731Y120304D01*
X210433Y120165D01*
X211135Y120304D01*
X211731Y120702D01*
X212129Y121298D01*
X212268Y122000D01*
X212129Y122702D01*
X211731Y123298D01*
X211135Y123696D01*
X210433Y123835D01*
D02*
G37*
G36*
X325197Y122308D02*
X324495Y122168D01*
X323899Y121770D01*
X323501Y121175D01*
X323362Y120472D01*
X323501Y119770D01*
X323899Y119175D01*
X324495Y118777D01*
X325197Y118637D01*
X325899Y118777D01*
X326495Y119175D01*
X326892Y119770D01*
X327032Y120472D01*
X326892Y121175D01*
X326495Y121770D01*
X325899Y122168D01*
X325197Y122308D01*
D02*
G37*
G36*
X259400Y121756D02*
Y120400D01*
X260756D01*
X260696Y120702D01*
X260298Y121298D01*
X259702Y121696D01*
X259400Y121756D01*
D02*
G37*
G36*
X262500Y126835D02*
X261798Y126696D01*
X261202Y126298D01*
X260804Y125702D01*
X260665Y125000D01*
X260804Y124298D01*
X261202Y123702D01*
X261798Y123304D01*
X262500Y123165D01*
X263202Y123304D01*
X263501Y123504D01*
X263702Y123202D01*
X264298Y122804D01*
X265000Y122665D01*
X265702Y122804D01*
X266298Y123202D01*
X266696Y123798D01*
X266835Y124500D01*
X266696Y125202D01*
X266298Y125798D01*
X265702Y126196D01*
X265000Y126335D01*
X264298Y126196D01*
X263999Y125996D01*
X263798Y126298D01*
X263202Y126696D01*
X262500Y126835D01*
D02*
G37*
G36*
X86000Y125335D02*
X85298Y125196D01*
X84702Y124798D01*
X84304Y124202D01*
X84165Y123500D01*
X84304Y122798D01*
X84702Y122202D01*
X85298Y121804D01*
X86000Y121665D01*
X86702Y121804D01*
X87298Y122202D01*
X87696Y122798D01*
X87835Y123500D01*
X87696Y124202D01*
X87298Y124798D01*
X86702Y125196D01*
X86000Y125335D01*
D02*
G37*
G36*
X322047Y132150D02*
X321345Y132010D01*
X320749Y131613D01*
X320352Y131017D01*
X320212Y130315D01*
X320352Y129613D01*
X320749Y129017D01*
X321345Y128619D01*
X322047Y128480D01*
X322750Y128619D01*
X323345Y129017D01*
X323743Y129613D01*
X323883Y130315D01*
X323743Y131017D01*
X323345Y131613D01*
X322750Y132010D01*
X322047Y132150D01*
D02*
G37*
G36*
X25000Y135835D02*
X24298Y135696D01*
X23702Y135298D01*
X23304Y134702D01*
X23165Y134000D01*
X23304Y133298D01*
X23702Y132702D01*
X24298Y132304D01*
X25000Y132165D01*
X25702Y132304D01*
X26298Y132702D01*
X26696Y133298D01*
X26835Y134000D01*
X26696Y134702D01*
X26298Y135298D01*
X25702Y135696D01*
X25000Y135835D01*
D02*
G37*
G36*
X124114Y138018D02*
X123237Y137902D01*
X122420Y137564D01*
X121719Y137026D01*
X121180Y136324D01*
X120842Y135507D01*
X120726Y134630D01*
X120842Y133753D01*
X121180Y132936D01*
X121719Y132234D01*
X122420Y131696D01*
X123237Y131357D01*
X124114Y131242D01*
X124991Y131357D01*
X125808Y131696D01*
X126510Y132234D01*
X127048Y132936D01*
X127387Y133753D01*
X127502Y134630D01*
X127387Y135507D01*
X127048Y136324D01*
X126510Y137026D01*
X125808Y137564D01*
X124991Y137902D01*
X124114Y138018D01*
D02*
G37*
G36*
X55100Y139435D02*
X54398Y139296D01*
X53802Y138898D01*
X53404Y138302D01*
X53265Y137600D01*
X53404Y136898D01*
X53783Y136332D01*
X53731Y135817D01*
X53702Y135798D01*
X53304Y135202D01*
X53165Y134500D01*
X53304Y133798D01*
X53702Y133202D01*
X54298Y132804D01*
X55000Y132665D01*
X55702Y132804D01*
X56298Y133202D01*
X56696Y133798D01*
X56835Y134500D01*
X56696Y135202D01*
X56317Y135768D01*
X56369Y136283D01*
X56398Y136302D01*
X56796Y136898D01*
X56935Y137600D01*
X56796Y138302D01*
X56398Y138898D01*
X55802Y139296D01*
X55100Y139435D01*
D02*
G37*
G36*
X299300Y137035D02*
X298598Y136896D01*
X298002Y136498D01*
X297604Y135902D01*
X297465Y135200D01*
X297604Y134498D01*
X298002Y133902D01*
X298598Y133504D01*
X299300Y133365D01*
X300002Y133504D01*
X300598Y133902D01*
X300996Y134498D01*
X301135Y135200D01*
X300996Y135902D01*
X300598Y136498D01*
X300002Y136896D01*
X299300Y137035D01*
D02*
G37*
G36*
X83500Y133835D02*
X82798Y133696D01*
X82202Y133298D01*
X81804Y132702D01*
X81309Y132774D01*
X81000Y132835D01*
X80298Y132696D01*
X79702Y132298D01*
X79304Y131702D01*
X79165Y131000D01*
X79304Y130298D01*
X79702Y129702D01*
X80298Y129304D01*
X81000Y129165D01*
X81702Y129304D01*
X82298Y129702D01*
X82696Y130298D01*
X83191Y130226D01*
X83500Y130165D01*
X83514Y130167D01*
X83815Y129718D01*
X83804Y129702D01*
X83665Y129000D01*
X83804Y128298D01*
X84202Y127702D01*
X84798Y127304D01*
X85500Y127165D01*
X86202Y127304D01*
X86798Y127702D01*
X87196Y128298D01*
X87335Y129000D01*
X87196Y129702D01*
X86798Y130298D01*
X86202Y130696D01*
X85500Y130835D01*
X85486Y130833D01*
X85185Y131282D01*
X85196Y131298D01*
X85335Y132000D01*
X85196Y132702D01*
X84798Y133298D01*
X84202Y133696D01*
X83500Y133835D01*
D02*
G37*
G36*
X274400Y130256D02*
Y128900D01*
X275756D01*
X275696Y129202D01*
X275298Y129798D01*
X274702Y130196D01*
X274400Y130256D01*
D02*
G37*
G36*
X288500Y134835D02*
X287798Y134696D01*
X287202Y134298D01*
X286804Y133702D01*
X286665Y133000D01*
X286782Y132412D01*
X286698Y132396D01*
X286102Y131998D01*
X285704Y131402D01*
X285565Y130700D01*
X285704Y129998D01*
X286102Y129402D01*
X286698Y129004D01*
X287400Y128865D01*
X288102Y129004D01*
X288698Y129402D01*
X289096Y129998D01*
X289235Y130700D01*
X289118Y131288D01*
X289202Y131304D01*
X289798Y131702D01*
X290196Y132298D01*
X290335Y133000D01*
X290196Y133702D01*
X289798Y134298D01*
X289202Y134696D01*
X288500Y134835D01*
D02*
G37*
G36*
X88600Y133635D02*
X87898Y133496D01*
X87302Y133098D01*
X86904Y132502D01*
X86765Y131800D01*
X86904Y131098D01*
X87302Y130502D01*
X87898Y130104D01*
X88600Y129965D01*
X89302Y130104D01*
X89898Y130502D01*
X90296Y131098D01*
X90435Y131800D01*
X90296Y132502D01*
X89898Y133098D01*
X89302Y133496D01*
X88600Y133635D01*
D02*
G37*
G36*
X37500Y138018D02*
X36623Y137902D01*
X35806Y137564D01*
X35104Y137026D01*
X34566Y136324D01*
X34227Y135507D01*
X34112Y134630D01*
X34227Y133753D01*
X34566Y132936D01*
X35104Y132234D01*
X35806Y131696D01*
X36623Y131357D01*
X37500Y131242D01*
X38377Y131357D01*
X39194Y131696D01*
X39896Y132234D01*
X40434Y132936D01*
X40773Y133753D01*
X40888Y134630D01*
X40773Y135507D01*
X40434Y136324D01*
X39896Y137026D01*
X39194Y137564D01*
X38377Y137902D01*
X37500Y138018D01*
D02*
G37*
G36*
X101200Y134735D02*
X100498Y134596D01*
X99902Y134198D01*
X99504Y133602D01*
X99365Y132900D01*
X99504Y132198D01*
X99902Y131602D01*
X100498Y131204D01*
X101200Y131065D01*
X101902Y131204D01*
X102498Y131602D01*
X102896Y132198D01*
X103035Y132900D01*
X102896Y133602D01*
X102498Y134198D01*
X101902Y134596D01*
X101200Y134735D01*
D02*
G37*
G36*
X124114Y153766D02*
X123237Y153650D01*
X122420Y153312D01*
X121719Y152774D01*
X121180Y152072D01*
X120842Y151255D01*
X120726Y150378D01*
X120842Y149501D01*
X121180Y148684D01*
X121719Y147982D01*
X122420Y147444D01*
X123237Y147105D01*
X124114Y146990D01*
X124991Y147105D01*
X125808Y147444D01*
X126510Y147982D01*
X127048Y148684D01*
X127387Y149501D01*
X127502Y150378D01*
X127387Y151255D01*
X127048Y152072D01*
X126510Y152774D01*
X125808Y153312D01*
X124991Y153650D01*
X124114Y153766D01*
D02*
G37*
G36*
X37500Y169514D02*
X36623Y169399D01*
X35806Y169060D01*
X35104Y168522D01*
X34566Y167820D01*
X34227Y167003D01*
X34112Y166126D01*
X34227Y165249D01*
X34566Y164432D01*
X35104Y163730D01*
X35806Y163192D01*
X36623Y162853D01*
X37500Y162738D01*
X38377Y162853D01*
X39194Y163192D01*
X39896Y163730D01*
X40434Y164432D01*
X40773Y165249D01*
X40888Y166126D01*
X40773Y167003D01*
X40434Y167820D01*
X39896Y168522D01*
X39194Y169060D01*
X38377Y169399D01*
X37500Y169514D01*
D02*
G37*
G36*
X246500Y162835D02*
X245798Y162696D01*
X245202Y162298D01*
X244804Y161702D01*
X244665Y161000D01*
X244735Y160645D01*
X244584Y160483D01*
X244290Y160320D01*
X243480Y160656D01*
X242500Y160785D01*
X241520Y160656D01*
X240607Y160278D01*
X239824Y159677D01*
X239222Y158893D01*
X238844Y157980D01*
X238715Y157000D01*
X238844Y156020D01*
X239222Y155107D01*
X239824Y154323D01*
X240607Y153722D01*
X241520Y153344D01*
X242500Y153215D01*
X243480Y153344D01*
X244393Y153722D01*
X245177Y154323D01*
X245778Y155107D01*
X246156Y156020D01*
X246285Y157000D01*
X246156Y157980D01*
X245820Y158790D01*
X245983Y159084D01*
X246145Y159235D01*
X246500Y159165D01*
X247202Y159304D01*
X247798Y159702D01*
X248196Y160298D01*
X248335Y161000D01*
X248196Y161702D01*
X247798Y162298D01*
X247202Y162696D01*
X246500Y162835D01*
D02*
G37*
G36*
X124114Y169514D02*
X123237Y169399D01*
X122420Y169060D01*
X121719Y168522D01*
X121180Y167820D01*
X120842Y167003D01*
X120726Y166126D01*
X120842Y165249D01*
X121180Y164432D01*
X121719Y163730D01*
X122420Y163192D01*
X123237Y162853D01*
X124114Y162738D01*
X124991Y162853D01*
X125808Y163192D01*
X126510Y163730D01*
X127048Y164432D01*
X127387Y165249D01*
X127502Y166126D01*
X127387Y167003D01*
X127048Y167820D01*
X126510Y168522D01*
X125808Y169060D01*
X124991Y169399D01*
X124114Y169514D01*
D02*
G37*
G36*
X222500Y170785D02*
X221520Y170656D01*
X220607Y170278D01*
X219824Y169676D01*
X219222Y168893D01*
X218844Y167980D01*
X218715Y167000D01*
X218844Y166020D01*
X219222Y165107D01*
X219824Y164323D01*
X220607Y163722D01*
X221520Y163344D01*
X222500Y163215D01*
X223480Y163344D01*
X224393Y163722D01*
X225177Y164323D01*
X225778Y165107D01*
X226156Y166020D01*
X226285Y167000D01*
X226156Y167980D01*
X225778Y168893D01*
X225177Y169676D01*
X224393Y170278D01*
X223480Y170656D01*
X222500Y170785D01*
D02*
G37*
G36*
X14500Y166835D02*
X13798Y166696D01*
X13202Y166298D01*
X12804Y165702D01*
X12665Y165000D01*
X12804Y164298D01*
X13202Y163702D01*
X13798Y163304D01*
X14500Y163165D01*
X15202Y163304D01*
X15798Y163702D01*
X16196Y164298D01*
X16335Y165000D01*
X16196Y165702D01*
X15798Y166298D01*
X15202Y166696D01*
X14500Y166835D01*
D02*
G37*
G36*
X215400Y157256D02*
Y155900D01*
X216756D01*
X216696Y156202D01*
X216298Y156798D01*
X215702Y157196D01*
X215400Y157256D01*
D02*
G37*
G36*
X214600D02*
X214298Y157196D01*
X213702Y156798D01*
X213304Y156202D01*
X213244Y155900D01*
X214600D01*
Y157256D01*
D02*
G37*
G36*
X14500Y160835D02*
X13798Y160696D01*
X13202Y160298D01*
X12804Y159702D01*
X12665Y159000D01*
X12804Y158298D01*
X13202Y157702D01*
X13798Y157304D01*
X14500Y157165D01*
X15202Y157304D01*
X15798Y157702D01*
X16196Y158298D01*
X16335Y159000D01*
X16196Y159702D01*
X15798Y160298D01*
X15202Y160696D01*
X14500Y160835D01*
D02*
G37*
G36*
X222900Y160732D02*
Y157400D01*
X226233D01*
X226156Y157980D01*
X225778Y158893D01*
X225177Y159677D01*
X224393Y160278D01*
X223480Y160656D01*
X222900Y160732D01*
D02*
G37*
G36*
X222100Y160732D02*
X221520Y160656D01*
X220607Y160278D01*
X219824Y159677D01*
X219222Y158893D01*
X218844Y157980D01*
X218767Y157400D01*
X222100D01*
Y160732D01*
D02*
G37*
G36*
X232500Y170785D02*
X231520Y170656D01*
X230607Y170278D01*
X229823Y169676D01*
X229222Y168893D01*
X228844Y167980D01*
X228715Y167000D01*
X228844Y166020D01*
X229222Y165107D01*
X229823Y164323D01*
X230607Y163722D01*
X231520Y163344D01*
X232500Y163215D01*
X233480Y163344D01*
X234393Y163722D01*
X235176Y164323D01*
X235778Y165107D01*
X236156Y166020D01*
X236285Y167000D01*
X236156Y167980D01*
X235778Y168893D01*
X235176Y169676D01*
X234393Y170278D01*
X233480Y170656D01*
X232500Y170785D01*
D02*
G37*
G36*
X40835Y173600D02*
X37900D01*
Y170665D01*
X38377Y170727D01*
X39194Y171066D01*
X39896Y171604D01*
X40434Y172306D01*
X40773Y173123D01*
X40835Y173600D01*
D02*
G37*
G36*
X37100D02*
X34165D01*
X34227Y173123D01*
X34566Y172306D01*
X35104Y171604D01*
X35806Y171066D01*
X36623Y170727D01*
X37100Y170665D01*
Y173600D01*
D02*
G37*
G36*
Y177335D02*
X36623Y177273D01*
X35806Y176934D01*
X35104Y176396D01*
X34566Y175694D01*
X34227Y174877D01*
X34165Y174400D01*
X37100D01*
Y177335D01*
D02*
G37*
G36*
X4500Y186335D02*
X3798Y186196D01*
X3202Y185798D01*
X2804Y185202D01*
X2665Y184500D01*
X2804Y183798D01*
X3202Y183202D01*
X3798Y182804D01*
X4500Y182665D01*
X5202Y182804D01*
X5798Y183202D01*
X6196Y183798D01*
X6335Y184500D01*
X6196Y185202D01*
X5798Y185798D01*
X5202Y186196D01*
X4500Y186335D01*
D02*
G37*
G36*
X37900Y177335D02*
Y174400D01*
X40835D01*
X40773Y174877D01*
X40434Y175694D01*
X39896Y176396D01*
X39194Y176934D01*
X38377Y177273D01*
X37900Y177335D01*
D02*
G37*
G36*
X252500Y170785D02*
X251520Y170656D01*
X250607Y170278D01*
X249823Y169676D01*
X249222Y168893D01*
X248844Y167980D01*
X248715Y167000D01*
X248844Y166020D01*
X249222Y165107D01*
X249823Y164323D01*
X250607Y163722D01*
X251520Y163344D01*
X252500Y163215D01*
X253480Y163344D01*
X254393Y163722D01*
X255176Y164323D01*
X255778Y165107D01*
X256156Y166020D01*
X256285Y167000D01*
X256156Y167980D01*
X255778Y168893D01*
X255176Y169676D01*
X254393Y170278D01*
X253480Y170656D01*
X252500Y170785D01*
D02*
G37*
G36*
X242500D02*
X241520Y170656D01*
X240607Y170278D01*
X239824Y169676D01*
X239222Y168893D01*
X238844Y167980D01*
X238715Y167000D01*
X238844Y166020D01*
X239222Y165107D01*
X239824Y164323D01*
X240607Y163722D01*
X241520Y163344D01*
X242500Y163215D01*
X243480Y163344D01*
X244393Y163722D01*
X245177Y164323D01*
X245778Y165107D01*
X246156Y166020D01*
X246285Y167000D01*
X246156Y167980D01*
X245778Y168893D01*
X245177Y169676D01*
X244393Y170278D01*
X243480Y170656D01*
X242500Y170785D01*
D02*
G37*
G36*
X85500Y170335D02*
X84798Y170196D01*
X84202Y169798D01*
X83804Y169202D01*
X83665Y168500D01*
X83804Y167798D01*
X84202Y167202D01*
X84798Y166804D01*
X85500Y166665D01*
X86202Y166804D01*
X86798Y167202D01*
X87196Y167798D01*
X87335Y168500D01*
X87196Y169202D01*
X86798Y169798D01*
X86202Y170196D01*
X85500Y170335D01*
D02*
G37*
G36*
X124114Y177388D02*
X123237Y177273D01*
X122420Y176934D01*
X121719Y176396D01*
X121180Y175694D01*
X120842Y174877D01*
X120726Y174000D01*
X120842Y173123D01*
X121180Y172306D01*
X121719Y171604D01*
X122420Y171066D01*
X123237Y170727D01*
X124114Y170612D01*
X124991Y170727D01*
X125808Y171066D01*
X126510Y171604D01*
X127048Y172306D01*
X127387Y173123D01*
X127502Y174000D01*
X127387Y174877D01*
X127048Y175694D01*
X126510Y176396D01*
X125808Y176934D01*
X124991Y177273D01*
X124114Y177388D01*
D02*
G37*
G36*
X14500Y172835D02*
X13798Y172696D01*
X13202Y172298D01*
X12804Y171702D01*
X12665Y171000D01*
X12804Y170298D01*
X13202Y169702D01*
X13798Y169304D01*
X14500Y169165D01*
X15202Y169304D01*
X15798Y169702D01*
X16196Y170298D01*
X16335Y171000D01*
X16196Y171702D01*
X15798Y172298D01*
X15202Y172696D01*
X14500Y172835D01*
D02*
G37*
G36*
X292500Y160785D02*
X291520Y160656D01*
X290607Y160278D01*
X289824Y159677D01*
X289222Y158893D01*
X288844Y157980D01*
X288715Y157000D01*
X288844Y156020D01*
X289222Y155107D01*
X289824Y154323D01*
X290607Y153722D01*
X291520Y153344D01*
X292500Y153215D01*
X293480Y153344D01*
X294393Y153722D01*
X295177Y154323D01*
X295778Y155107D01*
X296156Y156020D01*
X296285Y157000D01*
X296156Y157980D01*
X295778Y158893D01*
X295177Y159677D01*
X294393Y160278D01*
X293480Y160656D01*
X292500Y160785D01*
D02*
G37*
G36*
X282500D02*
X281520Y160656D01*
X280607Y160278D01*
X279823Y159677D01*
X279222Y158893D01*
X278844Y157980D01*
X278715Y157000D01*
X278844Y156020D01*
X279222Y155107D01*
X279823Y154323D01*
X280607Y153722D01*
X281520Y153344D01*
X282500Y153215D01*
X283480Y153344D01*
X284393Y153722D01*
X285176Y154323D01*
X285778Y155107D01*
X286156Y156020D01*
X286285Y157000D01*
X286156Y157980D01*
X285778Y158893D01*
X285176Y159677D01*
X284393Y160278D01*
X283480Y160656D01*
X282500Y160785D01*
D02*
G37*
G36*
X302500D02*
X301520Y160656D01*
X300607Y160278D01*
X299823Y159677D01*
X299222Y158893D01*
X298844Y157980D01*
X298715Y157000D01*
X298844Y156020D01*
X299222Y155107D01*
X299823Y154323D01*
X300607Y153722D01*
X301520Y153344D01*
X302500Y153215D01*
X303480Y153344D01*
X304393Y153722D01*
X305176Y154323D01*
X305778Y155107D01*
X306156Y156020D01*
X306285Y157000D01*
X306156Y157980D01*
X305778Y158893D01*
X305176Y159677D01*
X304393Y160278D01*
X303480Y160656D01*
X302500Y160785D01*
D02*
G37*
G36*
X322500D02*
X321520Y160656D01*
X320607Y160278D01*
X319824Y159677D01*
X319222Y158893D01*
X318844Y157980D01*
X318715Y157000D01*
X318844Y156020D01*
X319222Y155107D01*
X319824Y154323D01*
X320607Y153722D01*
X321520Y153344D01*
X322500Y153215D01*
X323480Y153344D01*
X324393Y153722D01*
X325177Y154323D01*
X325778Y155107D01*
X326156Y156020D01*
X326285Y157000D01*
X326156Y157980D01*
X325778Y158893D01*
X325177Y159677D01*
X324393Y160278D01*
X323480Y160656D01*
X322500Y160785D01*
D02*
G37*
G36*
X312500D02*
X311520Y160656D01*
X310607Y160278D01*
X309823Y159677D01*
X309222Y158893D01*
X308844Y157980D01*
X308715Y157000D01*
X308844Y156020D01*
X309222Y155107D01*
X309823Y154323D01*
X310607Y153722D01*
X311520Y153344D01*
X312500Y153215D01*
X313480Y153344D01*
X314393Y153722D01*
X315177Y154323D01*
X315778Y155107D01*
X316156Y156020D01*
X316285Y157000D01*
X316156Y157980D01*
X315778Y158893D01*
X315177Y159677D01*
X314393Y160278D01*
X313480Y160656D01*
X312500Y160785D01*
D02*
G37*
G36*
X14500Y154835D02*
X13798Y154696D01*
X13202Y154298D01*
X12804Y153702D01*
X12665Y153000D01*
X12804Y152298D01*
X13202Y151702D01*
X13798Y151304D01*
X14500Y151165D01*
X15202Y151304D01*
X15798Y151702D01*
X16196Y152298D01*
X16335Y153000D01*
X16196Y153702D01*
X15798Y154298D01*
X15202Y154696D01*
X14500Y154835D01*
D02*
G37*
G36*
X69500D02*
X68798Y154696D01*
X68202Y154298D01*
X67804Y153702D01*
X67665Y153000D01*
X67804Y152298D01*
X68202Y151702D01*
X68798Y151304D01*
X69500Y151165D01*
X70202Y151304D01*
X70574Y151553D01*
X70976Y151569D01*
X71190Y151409D01*
X71478Y150978D01*
X72073Y150580D01*
X72776Y150440D01*
X73478Y150580D01*
X74073Y150978D01*
X74471Y151573D01*
X74611Y152276D01*
X74471Y152978D01*
X74073Y153573D01*
X73478Y153971D01*
X72776Y154111D01*
X72073Y153971D01*
X71701Y153723D01*
X71300Y153707D01*
X71086Y153867D01*
X70798Y154298D01*
X70202Y154696D01*
X69500Y154835D01*
D02*
G37*
G36*
X232500Y160785D02*
X231520Y160656D01*
X230607Y160278D01*
X229823Y159677D01*
X229222Y158893D01*
X228844Y157980D01*
X228715Y157000D01*
X228844Y156020D01*
X229222Y155107D01*
X229823Y154323D01*
X230607Y153722D01*
X231520Y153344D01*
X232500Y153215D01*
X233480Y153344D01*
X234393Y153722D01*
X235176Y154323D01*
X235778Y155107D01*
X236156Y156020D01*
X236285Y157000D01*
X236156Y157980D01*
X235778Y158893D01*
X235176Y159677D01*
X234393Y160278D01*
X233480Y160656D01*
X232500Y160785D01*
D02*
G37*
G36*
X272500D02*
X271520Y160656D01*
X270607Y160278D01*
X269824Y159677D01*
X269222Y158893D01*
X268844Y157980D01*
X268715Y157000D01*
X268844Y156020D01*
X269222Y155107D01*
X269824Y154323D01*
X270607Y153722D01*
X271520Y153344D01*
X272500Y153215D01*
X273480Y153344D01*
X274393Y153722D01*
X275177Y154323D01*
X275778Y155107D01*
X276156Y156020D01*
X276285Y157000D01*
X276156Y157980D01*
X275778Y158893D01*
X275177Y159677D01*
X274393Y160278D01*
X273480Y160656D01*
X272500Y160785D01*
D02*
G37*
G36*
X252500D02*
X251520Y160656D01*
X250607Y160278D01*
X249823Y159677D01*
X249222Y158893D01*
X248844Y157980D01*
X248715Y157000D01*
X248844Y156020D01*
X249222Y155107D01*
X249823Y154323D01*
X250607Y153722D01*
X251520Y153344D01*
X252500Y153215D01*
X253480Y153344D01*
X254393Y153722D01*
X255176Y154323D01*
X255778Y155107D01*
X256156Y156020D01*
X256285Y157000D01*
X256156Y157980D01*
X255778Y158893D01*
X255176Y159677D01*
X254393Y160278D01*
X253480Y160656D01*
X252500Y160785D01*
D02*
G37*
G36*
X332500D02*
X331520Y160656D01*
X330607Y160278D01*
X329823Y159677D01*
X329222Y158893D01*
X328844Y157980D01*
X328715Y157000D01*
X328844Y156020D01*
X329222Y155107D01*
X329823Y154323D01*
X330607Y153722D01*
X331520Y153344D01*
X332500Y153215D01*
X333480Y153344D01*
X334393Y153722D01*
X335176Y154323D01*
X335778Y155107D01*
X336156Y156020D01*
X336285Y157000D01*
X336156Y157980D01*
X335778Y158893D01*
X335176Y159677D01*
X334393Y160278D01*
X333480Y160656D01*
X332500Y160785D01*
D02*
G37*
G36*
X124114Y161640D02*
X123237Y161525D01*
X122420Y161186D01*
X121719Y160648D01*
X121180Y159946D01*
X120842Y159129D01*
X120726Y158252D01*
X120842Y157375D01*
X121180Y156558D01*
X121719Y155856D01*
X122420Y155318D01*
X123237Y154979D01*
X124114Y154864D01*
X124991Y154979D01*
X125808Y155318D01*
X126510Y155856D01*
X127048Y156558D01*
X127387Y157375D01*
X127502Y158252D01*
X127387Y159129D01*
X127048Y159946D01*
X126510Y160648D01*
X125808Y161186D01*
X124991Y161525D01*
X124114Y161640D01*
D02*
G37*
G36*
X37500D02*
X36623Y161525D01*
X35806Y161186D01*
X35104Y160648D01*
X34566Y159946D01*
X34227Y159129D01*
X34112Y158252D01*
X34227Y157375D01*
X34566Y156558D01*
X35104Y155856D01*
X35806Y155318D01*
X36623Y154979D01*
X37500Y154864D01*
X38377Y154979D01*
X39194Y155318D01*
X39896Y155856D01*
X40434Y156558D01*
X40773Y157375D01*
X40888Y158252D01*
X40773Y159129D01*
X40434Y159946D01*
X39896Y160648D01*
X39194Y161186D01*
X38377Y161525D01*
X37500Y161640D01*
D02*
G37*
G36*
X199213Y158922D02*
X198510Y158782D01*
X197915Y158384D01*
X197517Y157789D01*
X197377Y157087D01*
X197517Y156384D01*
X197915Y155789D01*
X198510Y155391D01*
X199213Y155251D01*
X199915Y155391D01*
X200510Y155789D01*
X200908Y156384D01*
X201048Y157087D01*
X200908Y157789D01*
X200510Y158384D01*
X199915Y158782D01*
X199213Y158922D01*
D02*
G37*
G36*
X206900Y157256D02*
Y155900D01*
X208256D01*
X208196Y156202D01*
X207798Y156798D01*
X207202Y157196D01*
X206900Y157256D01*
D02*
G37*
G36*
X206100D02*
X205798Y157196D01*
X205202Y156798D01*
X204804Y156202D01*
X204744Y155900D01*
X206100D01*
Y157256D01*
D02*
G37*
G36*
X191756Y155100D02*
X190400D01*
Y153744D01*
X190702Y153804D01*
X191298Y154202D01*
X191696Y154798D01*
X191756Y155100D01*
D02*
G37*
G36*
X226233Y156600D02*
X222900D01*
Y153268D01*
X223480Y153344D01*
X224393Y153722D01*
X225177Y154323D01*
X225778Y155107D01*
X226156Y156020D01*
X226233Y156600D01*
D02*
G37*
G36*
X206100Y155100D02*
X204744D01*
X204804Y154798D01*
X205202Y154202D01*
X205798Y153804D01*
X206100Y153744D01*
Y155100D01*
D02*
G37*
G36*
X222100Y156600D02*
X218767D01*
X218844Y156020D01*
X219222Y155107D01*
X219463Y154793D01*
X219181Y154340D01*
X218700Y154435D01*
X217998Y154296D01*
X217402Y153898D01*
X217004Y153302D01*
X216865Y152600D01*
X216898Y152435D01*
X216437Y152188D01*
X215392Y153233D01*
X215557Y153776D01*
X215702Y153804D01*
X216298Y154202D01*
X216696Y154798D01*
X216756Y155100D01*
X213244D01*
X213304Y154798D01*
X213388Y154673D01*
X213121Y154173D01*
X212381D01*
X212298Y154298D01*
X211702Y154696D01*
X211000Y154835D01*
X210298Y154696D01*
X209702Y154298D01*
X209304Y153702D01*
X209165Y153000D01*
X209304Y152298D01*
X209702Y151702D01*
X210298Y151304D01*
X211000Y151165D01*
X211702Y151304D01*
X212298Y151702D01*
X212381Y151828D01*
X213481D01*
X214607Y150701D01*
X214416Y150240D01*
X203719D01*
X199590Y154368D01*
X199210Y154622D01*
X198761Y154711D01*
X195539D01*
X195090Y154622D01*
X194710Y154368D01*
X194648Y154306D01*
X194500Y154335D01*
X193798Y154196D01*
X193202Y153798D01*
X192804Y153202D01*
X192665Y152500D01*
X192804Y151798D01*
X193202Y151202D01*
X193798Y150804D01*
X194500Y150665D01*
X195202Y150804D01*
X195798Y151202D01*
X196196Y151798D01*
X196238Y152012D01*
X196366Y152031D01*
X196756Y151583D01*
X196673Y151165D01*
X196812Y150462D01*
X197210Y149867D01*
X197806Y149469D01*
X198508Y149329D01*
X198559Y149288D01*
Y131768D01*
X198648Y131319D01*
X198731Y131195D01*
Y129127D01*
X198715Y129000D01*
X198731Y128873D01*
Y126047D01*
X198793Y125735D01*
X198970Y125470D01*
X199235Y125293D01*
X199547Y125231D01*
X202373D01*
X202500Y125215D01*
X203480Y125344D01*
X204392Y125722D01*
X205176Y126323D01*
X205778Y127107D01*
X206156Y128020D01*
X206285Y129000D01*
X206156Y129979D01*
X205778Y130892D01*
X205176Y131676D01*
X204392Y132278D01*
X203480Y132656D01*
X202500Y132785D01*
X202373Y132768D01*
X200904D01*
Y134217D01*
X201404Y134467D01*
X201798Y134204D01*
X202500Y134065D01*
X203202Y134204D01*
X203798Y134602D01*
X204196Y135198D01*
X204335Y135900D01*
X204196Y136602D01*
X203798Y137198D01*
X203202Y137596D01*
X202500Y137735D01*
X201798Y137596D01*
X201404Y137332D01*
X200904Y137583D01*
Y149084D01*
X201366Y149276D01*
X202404Y148238D01*
X202784Y147984D01*
X203233Y147894D01*
X217620D01*
X221427Y144087D01*
Y131600D01*
X221517Y131151D01*
X221541Y131115D01*
X221426Y130451D01*
X221410Y130436D01*
X221202Y130298D01*
X220804Y129702D01*
X220665Y129000D01*
X220804Y128298D01*
X221202Y127702D01*
X221798Y127304D01*
X222500Y127165D01*
X222648Y127194D01*
X223588Y126254D01*
Y107140D01*
X222932Y106484D01*
X222677Y106103D01*
X222588Y105655D01*
Y95986D01*
X219875Y93273D01*
X214700D01*
X214290Y93773D01*
X214335Y94000D01*
X214253Y94415D01*
X214702Y94504D01*
X215298Y94902D01*
X215696Y95498D01*
X215835Y96200D01*
X215696Y96902D01*
X215298Y97498D01*
Y97902D01*
X215696Y98498D01*
X215835Y99200D01*
X215696Y99902D01*
X215298Y100498D01*
Y100702D01*
X215696Y101298D01*
X215835Y102000D01*
X215696Y102702D01*
X215298Y103298D01*
X214702Y103696D01*
X214000Y103835D01*
X213298Y103696D01*
X212702Y103298D01*
X212304Y102702D01*
X212165Y102000D01*
X212304Y101298D01*
X212702Y100702D01*
Y100498D01*
X212304Y99902D01*
X212165Y99200D01*
X212304Y98498D01*
X212702Y97902D01*
X212611Y97362D01*
X212485Y97172D01*
X208803D01*
X208354Y97083D01*
X207974Y96829D01*
X203817Y92672D01*
X202757D01*
X202309Y92583D01*
X201928Y92329D01*
X199471Y89872D01*
X199217Y89491D01*
X199127Y89043D01*
Y87483D01*
X197317Y85672D01*
X181500D01*
X181051Y85583D01*
X180671Y85329D01*
X178297Y82956D01*
X177802Y83167D01*
X177696Y83702D01*
X177298Y84298D01*
Y84702D01*
X177696Y85298D01*
X177835Y86000D01*
X177696Y86702D01*
X177298Y87298D01*
X176702Y87696D01*
X176291Y87777D01*
X176335Y88000D01*
X176196Y88702D01*
X175798Y89298D01*
X175202Y89696D01*
X174791Y89777D01*
X174835Y90000D01*
X174696Y90702D01*
X174298Y91298D01*
X173702Y91696D01*
X173291Y91777D01*
X173335Y92000D01*
X173196Y92702D01*
X172798Y93298D01*
X172202Y93696D01*
X171791Y93777D01*
X171835Y94000D01*
X171696Y94702D01*
X171298Y95298D01*
X170702Y95696D01*
X170000Y95835D01*
X169298Y95696D01*
X168702Y95298D01*
X168304Y94702D01*
X168165Y94000D01*
X168304Y93298D01*
X168702Y92702D01*
X169298Y92304D01*
X169709Y92223D01*
X169665Y92000D01*
X169804Y91298D01*
X170202Y90702D01*
X170798Y90304D01*
X171209Y90223D01*
X171165Y90000D01*
X171304Y89298D01*
X171702Y88702D01*
X172298Y88304D01*
X172709Y88223D01*
X172665Y88000D01*
X172804Y87298D01*
X173202Y86702D01*
X173798Y86304D01*
X174209Y86223D01*
X174165Y86000D01*
X174304Y85298D01*
X174702Y84702D01*
Y84298D01*
X174304Y83702D01*
X174165Y83000D01*
X174208Y82785D01*
X174117Y82649D01*
X174028Y82200D01*
Y76400D01*
X174117Y75951D01*
X174371Y75571D01*
X176271Y73671D01*
X176651Y73417D01*
X177100Y73327D01*
X188000D01*
X188449Y73417D01*
X188829Y73671D01*
X190800Y75642D01*
X191520Y75344D01*
X192500Y75215D01*
X192627Y75232D01*
X195453D01*
X195765Y75294D01*
X196029Y75471D01*
X196206Y75735D01*
X196268Y76047D01*
Y78873D01*
X196285Y79000D01*
X196268Y79127D01*
Y81953D01*
X196412Y82127D01*
X198300D01*
X198749Y82217D01*
X199129Y82471D01*
X202329Y85671D01*
X202583Y86051D01*
X202673Y86500D01*
Y86521D01*
X203172Y86788D01*
X203298Y86704D01*
X204000Y86565D01*
X204702Y86704D01*
X205298Y87102D01*
X205448Y87327D01*
X206134D01*
X206428Y87086D01*
Y80631D01*
X205927Y80532D01*
X205778Y80893D01*
X205176Y81677D01*
X204393Y82278D01*
X203480Y82656D01*
X202900Y82732D01*
Y79000D01*
Y75267D01*
X203480Y75344D01*
X204393Y75722D01*
X205176Y76323D01*
X205778Y77107D01*
X205935Y77486D01*
X206198Y77495D01*
X206446Y77412D01*
X206517Y77054D01*
X206771Y76674D01*
X214274Y69171D01*
X214654Y68917D01*
X215103Y68827D01*
X226219D01*
X228946Y66101D01*
Y63881D01*
X228820Y63798D01*
X228423Y63202D01*
X228348Y62829D01*
X228314Y62656D01*
X227804D01*
X227770Y62829D01*
X227696Y63202D01*
X227298Y63798D01*
X226702Y64196D01*
X226000Y64335D01*
X225298Y64196D01*
X224702Y63798D01*
X224304Y63202D01*
X224165Y62500D01*
X224304Y61798D01*
X224702Y61202D01*
X225298Y60804D01*
X226000Y60665D01*
X226702Y60804D01*
X227298Y61202D01*
X227696Y61798D01*
X227770Y62171D01*
X227804Y62344D01*
X228314D01*
X228348Y62171D01*
X228423Y61798D01*
X228820Y61202D01*
X228946Y61119D01*
Y55882D01*
X229035Y55433D01*
X229289Y55053D01*
X233366Y50976D01*
X233303Y50332D01*
X233102Y50198D01*
X232704Y49602D01*
X232565Y48900D01*
X232617Y48639D01*
X232299Y48253D01*
X230624D01*
X230515Y48144D01*
X228029Y50629D01*
X227649Y50883D01*
X227200Y50972D01*
X217034D01*
X216730Y51473D01*
X216835Y52000D01*
X216696Y52702D01*
X216298Y53298D01*
X215702Y53696D01*
X215000Y53835D01*
X214298Y53696D01*
X214183Y53619D01*
X213607Y53835D01*
X213298Y54298D01*
X212702Y54696D01*
X212000Y54835D01*
X211298Y54696D01*
X210750Y54931D01*
X210696Y55202D01*
X210298Y55798D01*
X209702Y56196D01*
X209000Y56335D01*
X208298Y56196D01*
X207702Y55798D01*
X207304Y55202D01*
X207298Y55172D01*
X178786D01*
X171673Y62285D01*
X171689Y62779D01*
X172172Y63163D01*
X172500Y63098D01*
X173202Y63238D01*
X173798Y63635D01*
X174196Y64231D01*
X174335Y64933D01*
X174196Y65635D01*
X173798Y66231D01*
X173202Y66629D01*
X172500Y66768D01*
X172172Y66703D01*
X171672Y67101D01*
Y80000D01*
X171583Y80449D01*
X171329Y80829D01*
X170806Y81352D01*
X170835Y81500D01*
X170696Y82202D01*
X170298Y82798D01*
X169702Y83196D01*
X169000Y83335D01*
X168852Y83306D01*
X166629Y85529D01*
X166249Y85783D01*
X165800Y85873D01*
X161003D01*
X160554Y85783D01*
X160174Y85529D01*
X156671Y82026D01*
X156417Y81646D01*
X156327Y81197D01*
Y72348D01*
X156102Y72198D01*
X155704Y71602D01*
X155565Y70900D01*
X155704Y70198D01*
X156102Y69602D01*
X156698Y69204D01*
X157400Y69065D01*
X157714Y69127D01*
X158671Y68171D01*
X159051Y67917D01*
X159500Y67827D01*
X160152D01*
X160302Y67602D01*
X160898Y67204D01*
X161600Y67065D01*
X162302Y67204D01*
X162898Y67602D01*
X163296Y68198D01*
X163435Y68900D01*
X163296Y69602D01*
X162898Y70198D01*
X162302Y70596D01*
X161600Y70735D01*
X160898Y70596D01*
X160302Y70198D01*
X159843Y70315D01*
X159230Y70929D01*
X159096Y71602D01*
X158698Y72198D01*
X158672Y72215D01*
Y80711D01*
X159703Y81742D01*
X160165Y81500D01*
X160304Y80798D01*
X160702Y80202D01*
X161298Y79804D01*
X162000Y79665D01*
X162148Y79694D01*
X164828Y77014D01*
Y72000D01*
X164917Y71551D01*
X165171Y71171D01*
X165580Y70762D01*
X165416Y70219D01*
X165298Y70196D01*
X164702Y69798D01*
X164304Y69202D01*
X164165Y68500D01*
X164304Y67798D01*
X164702Y67202D01*
X164828Y67119D01*
Y62906D01*
X164917Y62457D01*
X165171Y62077D01*
X165613Y61634D01*
X165422Y61172D01*
X150986D01*
X148172Y63986D01*
Y65119D01*
X148298Y65202D01*
X148696Y65798D01*
X148835Y66500D01*
X148696Y67202D01*
X148298Y67798D01*
X147702Y68196D01*
X147000Y68335D01*
X146298Y68196D01*
X145702Y67798D01*
X145304Y67202D01*
X145165Y66500D01*
X145288Y65880D01*
X145078Y65685D01*
X144876Y65586D01*
X142290Y68171D01*
X142298Y68702D01*
X142696Y69298D01*
X142835Y70000D01*
X142696Y70702D01*
X142298Y71298D01*
X141702Y71696D01*
X141000Y71835D01*
X140298Y71696D01*
X139702Y71298D01*
X139304Y70702D01*
X139165Y70000D01*
X139304Y69298D01*
X139702Y68702D01*
X139828Y68619D01*
Y67803D01*
X139917Y67354D01*
X140171Y66974D01*
X149174Y57971D01*
X149554Y57717D01*
X150003Y57627D01*
X166017D01*
X175974Y47671D01*
X176354Y47417D01*
X176803Y47328D01*
X179045D01*
X179236Y46865D01*
X178747Y46376D01*
Y42624D01*
X178856Y42515D01*
X176547Y40205D01*
X171050D01*
X170811Y40705D01*
X170846Y40747D01*
X174376D01*
X176253Y42624D01*
Y46376D01*
X174376Y48253D01*
X170624D01*
X168747Y46376D01*
Y42624D01*
X168856Y42515D01*
X167747Y41405D01*
X165687D01*
X165496Y41867D01*
X166253Y42624D01*
Y46376D01*
X164376Y48253D01*
X160624D01*
X158747Y46376D01*
Y42624D01*
X160273Y41098D01*
X160269Y41061D01*
X156651Y37443D01*
X156397Y37063D01*
X156377Y36960D01*
X155834Y36795D01*
X154376Y38253D01*
X150624D01*
X148747Y36376D01*
Y32624D01*
X150624Y30747D01*
X154376D01*
X155591Y31962D01*
X156089Y31913D01*
X156183Y31773D01*
X156778Y31375D01*
X157480Y31236D01*
X158183Y31375D01*
X158778Y31773D01*
X158887Y31937D01*
X159385Y31986D01*
X160624Y30747D01*
X164376D01*
X165002Y31373D01*
X165545Y31209D01*
X165627Y30794D01*
X166025Y30198D01*
X166192Y30087D01*
X166322Y29408D01*
X166268Y29327D01*
X130316D01*
X129836Y29648D01*
X129134Y29788D01*
X128431Y29648D01*
X127951Y29327D01*
X99691D01*
X96253Y32766D01*
Y38253D01*
X88747D01*
Y36335D01*
X60760D01*
X27235Y69860D01*
Y114600D01*
X27096Y115302D01*
X26698Y115898D01*
X26298Y116298D01*
X25702Y116696D01*
X25000Y116835D01*
X24298Y116696D01*
X23702Y116298D01*
X23304Y115702D01*
X23165Y115000D01*
X23281Y114414D01*
X22892Y114320D01*
X22794Y114300D01*
X22202Y114696D01*
X21500Y114835D01*
X20798Y114696D01*
X20202Y114298D01*
X19804Y113702D01*
X19665Y113000D01*
X19804Y112298D01*
X20202Y111702D01*
X20798Y111304D01*
X21500Y111165D01*
X22202Y111304D01*
X22798Y111702D01*
X23065Y112102D01*
X23565Y111950D01*
Y69100D01*
X23704Y68398D01*
X24102Y67802D01*
X58702Y33202D01*
X59298Y32804D01*
X60000Y32665D01*
X88747D01*
Y30747D01*
X94234D01*
X98091Y26891D01*
X98554Y26581D01*
X99100Y26473D01*
X99100Y26473D01*
X128109D01*
X128431Y26257D01*
X129134Y26118D01*
X129836Y26257D01*
X130158Y26473D01*
X251019D01*
X251390Y25973D01*
X251314Y25591D01*
X251454Y24888D01*
X251852Y24293D01*
X252327Y23976D01*
X252490Y23744D01*
X252599Y23355D01*
X252495Y22835D01*
X252635Y22132D01*
X253033Y21537D01*
X253628Y21139D01*
X254331Y20999D01*
X255033Y21139D01*
X255628Y21537D01*
X256026Y22132D01*
X256166Y22835D01*
X256026Y23537D01*
X255628Y24132D01*
X255153Y24450D01*
X254991Y24681D01*
X254881Y25070D01*
X254985Y25591D01*
X254909Y25973D01*
X255281Y26473D01*
X274900D01*
X274900Y26473D01*
X275446Y26581D01*
X275909Y26891D01*
X278509Y29491D01*
X278509Y29491D01*
X278819Y29954D01*
X278927Y30500D01*
X278927Y30500D01*
Y31790D01*
X279389Y31982D01*
X280624Y30747D01*
X284376D01*
X286253Y32624D01*
Y36376D01*
X284376Y38253D01*
X280624D01*
X279389Y37018D01*
X278927Y37210D01*
Y41790D01*
X279389Y41982D01*
X280624Y40747D01*
X284376D01*
X286253Y42624D01*
Y46376D01*
X284376Y48253D01*
X280624D01*
X279389Y47019D01*
X278927Y47210D01*
Y53909D01*
X280229Y55210D01*
X280702Y55304D01*
X281298Y55702D01*
X281696Y56298D01*
X281790Y56771D01*
X283091Y58073D01*
X297896D01*
X298298Y57804D01*
X299000Y57665D01*
X299702Y57804D01*
X300104Y58073D01*
X303500D01*
X303500Y58073D01*
X304046Y58181D01*
X304509Y58491D01*
X309509Y63491D01*
X309509Y63491D01*
X309819Y63954D01*
X309927Y64500D01*
X309927Y64500D01*
Y68396D01*
X310196Y68798D01*
X310335Y69500D01*
X310196Y70202D01*
X309798Y70798D01*
X309202Y71196D01*
X308500Y71335D01*
X307798Y71196D01*
X307202Y70798D01*
X306868Y70298D01*
X306798D01*
X306202Y70696D01*
X305500Y70835D01*
X304798Y70696D01*
X304202Y70298D01*
X303804Y69702D01*
X303665Y69000D01*
X303804Y68298D01*
X304169Y67752D01*
X304109Y67565D01*
X303921Y67291D01*
X303700Y67335D01*
X302998Y67196D01*
X302402Y66798D01*
X302004Y66202D01*
X301865Y65500D01*
X302004Y64798D01*
X302402Y64202D01*
X302998Y63804D01*
X303700Y63665D01*
X304402Y63804D01*
X304998Y64202D01*
X305396Y64798D01*
X305535Y65500D01*
X305396Y66202D01*
X305031Y66748D01*
X305092Y66935D01*
X305279Y67209D01*
X305500Y67165D01*
X306202Y67304D01*
X306573Y67552D01*
X307073Y67285D01*
Y65091D01*
X302909Y60927D01*
X300104D01*
X299702Y61196D01*
X299000Y61335D01*
X298298Y61196D01*
X297896Y60927D01*
X282500D01*
X281954Y60819D01*
X281491Y60509D01*
X281491Y60509D01*
X279771Y58790D01*
X279298Y58696D01*
X278702Y58298D01*
X278304Y57702D01*
X278210Y57229D01*
X276491Y55509D01*
X276181Y55046D01*
X276073Y54500D01*
X276073Y54500D01*
Y47210D01*
X275611Y47019D01*
X274376Y48253D01*
X270624D01*
X268747Y46376D01*
Y42624D01*
X270624Y40747D01*
X274376D01*
X275611Y41982D01*
X276073Y41790D01*
Y37210D01*
X275611Y37018D01*
X274376Y38253D01*
X270624D01*
X268747Y36376D01*
Y32624D01*
X270624Y30747D01*
X274376D01*
X275611Y31982D01*
X276073Y31790D01*
Y31091D01*
X274309Y29327D01*
X246193D01*
X245986Y29827D01*
X248029Y31871D01*
X248283Y32251D01*
X248322Y32444D01*
X248847Y32524D01*
X250624Y30747D01*
X254376D01*
X256253Y32624D01*
Y36376D01*
X254376Y38253D01*
X250624D01*
X250515Y38144D01*
X249572Y39086D01*
Y41145D01*
X250034Y41336D01*
X250624Y40747D01*
X254376D01*
X256253Y42624D01*
Y46376D01*
X254376Y48253D01*
X251862D01*
X251626Y48694D01*
X251696Y48798D01*
X251835Y49500D01*
X251696Y50202D01*
X251298Y50798D01*
X250702Y51196D01*
X250000Y51335D01*
X249298Y51196D01*
X248702Y50798D01*
X248304Y50202D01*
X248181Y49584D01*
X247923Y49440D01*
X247679Y49379D01*
X241751Y55307D01*
Y59639D01*
X242192Y59875D01*
X242298Y59804D01*
X243000Y59665D01*
X243702Y59804D01*
X244298Y60202D01*
X244696Y60798D01*
X244835Y61500D01*
X244696Y62202D01*
X244298Y62798D01*
X243702Y63196D01*
X243000Y63335D01*
X242298Y63196D01*
X242192Y63125D01*
X241751Y63361D01*
Y72521D01*
X241662Y72970D01*
X241408Y73350D01*
X240806Y73952D01*
X240835Y74100D01*
X240696Y74802D01*
X240298Y75398D01*
X239702Y75796D01*
X239214Y75893D01*
X239335Y76500D01*
X239196Y77202D01*
X239043Y77431D01*
X239161Y78111D01*
X239298Y78202D01*
X239696Y78798D01*
X239835Y79500D01*
X239696Y80202D01*
X239298Y80798D01*
X238702Y81196D01*
X238243Y81287D01*
X238069Y81820D01*
X244829Y88580D01*
X245083Y88960D01*
X245173Y89409D01*
Y95014D01*
X246754Y96596D01*
X247397Y96532D01*
X247526Y96340D01*
X248121Y95942D01*
X248823Y95802D01*
X249526Y95942D01*
X250121Y96340D01*
X250519Y96935D01*
X250659Y97638D01*
X250519Y98340D01*
X250121Y98936D01*
X249526Y99333D01*
X248823Y99473D01*
X248773Y99515D01*
Y120991D01*
X248683Y121440D01*
X248429Y121820D01*
X246773Y123477D01*
Y125294D01*
X246683Y125743D01*
X246429Y126123D01*
X244872Y127680D01*
Y133581D01*
X248419Y137127D01*
X248567Y137098D01*
X249269Y137238D01*
X249865Y137635D01*
X250262Y138231D01*
X250402Y138933D01*
X250262Y139635D01*
X249865Y140231D01*
X249269Y140629D01*
X248567Y140768D01*
X247865Y140629D01*
X247269Y140231D01*
X246871Y139635D01*
X246732Y138933D01*
X246761Y138785D01*
X244813Y136837D01*
X244519Y136937D01*
X244324Y137056D01*
X244196Y137702D01*
X243798Y138298D01*
X243202Y138696D01*
X242500Y138835D01*
X241798Y138696D01*
X241765Y138674D01*
X241696Y138702D01*
X241298Y139298D01*
X240702Y139696D01*
X240000Y139835D01*
X239298Y139696D01*
X238702Y139298D01*
X238304Y138702D01*
X238165Y138000D01*
X238304Y137298D01*
X238702Y136702D01*
X239298Y136304D01*
X240000Y136165D01*
X240702Y136304D01*
X241048Y135934D01*
X241202Y135702D01*
X241328Y135619D01*
Y128484D01*
X240865Y128293D01*
X236880Y132278D01*
X237126Y132739D01*
X237500Y132665D01*
X238202Y132804D01*
X238798Y133202D01*
X239196Y133798D01*
X239335Y134500D01*
X239196Y135202D01*
X238798Y135798D01*
X238202Y136196D01*
X237500Y136335D01*
X236798Y136196D01*
X236202Y135798D01*
X235804Y135202D01*
X235665Y134500D01*
X235739Y134126D01*
X235278Y133880D01*
X233806Y135352D01*
X233835Y135500D01*
X233696Y136202D01*
X233298Y136798D01*
X232702Y137196D01*
X232000Y137335D01*
X231298Y137196D01*
X230702Y136798D01*
X230304Y136202D01*
X230301Y136185D01*
X229713Y135793D01*
X229500Y135835D01*
X228798Y135696D01*
X228202Y135298D01*
X227804Y134702D01*
X227665Y134000D01*
X227739Y133626D01*
X227278Y133380D01*
X226172Y134486D01*
Y143095D01*
X226673Y143247D01*
X226702Y143202D01*
X227298Y142804D01*
X228000Y142665D01*
X228702Y142804D01*
X229298Y143202D01*
X229696Y143798D01*
X230191Y143726D01*
X230500Y143665D01*
X231202Y143804D01*
X231798Y144202D01*
X232196Y144798D01*
X232335Y145500D01*
X232293Y145713D01*
X232202Y146204D01*
X232798Y146602D01*
X233196Y147198D01*
X233335Y147900D01*
X233196Y148602D01*
X232798Y149198D01*
X232202Y149596D01*
X231500Y149735D01*
X231284Y149692D01*
X230835Y150000D01*
X230696Y150702D01*
X230298Y151298D01*
X229702Y151696D01*
X229000Y151835D01*
X228691Y151774D01*
X228196Y151702D01*
X227798Y152298D01*
X227202Y152696D01*
X226500Y152835D01*
X225798Y152696D01*
X225202Y152298D01*
X224804Y151702D01*
X224665Y151000D01*
X224804Y150298D01*
X225202Y149702D01*
X225798Y149304D01*
X226500Y149165D01*
X226809Y149226D01*
X227304Y149298D01*
X227702Y148702D01*
X228298Y148304D01*
X229000Y148165D01*
X229216Y148208D01*
X229665Y147900D01*
X229707Y147687D01*
X229798Y147196D01*
X229202Y146798D01*
X228804Y146202D01*
X228309Y146274D01*
X228000Y146335D01*
X227298Y146196D01*
X226702Y145798D01*
X226652Y145722D01*
X226121Y145827D01*
X226083Y146016D01*
X225829Y146396D01*
X220368Y151857D01*
X220396Y151898D01*
X220535Y152600D01*
X220401Y153275D01*
X220480Y153385D01*
X220758Y153659D01*
X221520Y153344D01*
X222100Y153268D01*
Y156600D01*
D02*
G37*
G36*
X208256Y155100D02*
X206900D01*
Y153744D01*
X207202Y153804D01*
X207798Y154202D01*
X208196Y154798D01*
X208256Y155100D01*
D02*
G37*
G36*
X202100Y82732D02*
X201520Y82656D01*
X200607Y82278D01*
X199823Y81677D01*
X199222Y80893D01*
X198844Y79980D01*
X198767Y79400D01*
X202100D01*
Y82732D01*
D02*
G37*
G36*
X303756Y80100D02*
X302400D01*
Y78744D01*
X302702Y78804D01*
X303298Y79202D01*
X303696Y79798D01*
X303756Y80100D01*
D02*
G37*
G36*
X246484Y80335D02*
X245782Y80196D01*
X245186Y79798D01*
X245098D01*
X244502Y80196D01*
X243800Y80335D01*
X243098Y80196D01*
X242502Y79798D01*
X242104Y79202D01*
X241965Y78500D01*
X242104Y77798D01*
X242502Y77202D01*
X243098Y76804D01*
X243800Y76665D01*
X244502Y76804D01*
X245098Y77202D01*
X245186D01*
X245782Y76804D01*
X246484Y76665D01*
X247187Y76804D01*
X247782Y77202D01*
X248180Y77798D01*
X248320Y78500D01*
X248180Y79202D01*
X247782Y79798D01*
X247187Y80196D01*
X246484Y80335D01*
D02*
G37*
G36*
X122000Y83835D02*
X121298Y83696D01*
X120702Y83298D01*
X120304Y82702D01*
X120165Y82000D01*
X120304Y81298D01*
X120702Y80702D01*
X121298Y80304D01*
X122000Y80165D01*
X122702Y80304D01*
X123298Y80702D01*
X123696Y81298D01*
X123835Y82000D01*
X123696Y82702D01*
X123298Y83298D01*
X122702Y83696D01*
X122000Y83835D01*
D02*
G37*
G36*
X106000D02*
X105298Y83696D01*
X104702Y83298D01*
X104304Y82702D01*
X104165Y82000D01*
X104304Y81298D01*
X104702Y80702D01*
X105298Y80304D01*
X106000Y80165D01*
X106702Y80304D01*
X107298Y80702D01*
X107696Y81298D01*
X107835Y82000D01*
X107696Y82702D01*
X107298Y83298D01*
X106702Y83696D01*
X106000Y83835D01*
D02*
G37*
G36*
X262756Y77600D02*
X261400D01*
Y76244D01*
X261702Y76304D01*
X262298Y76702D01*
X262696Y77298D01*
X262756Y77600D01*
D02*
G37*
G36*
X260600D02*
X259244D01*
X259304Y77298D01*
X259702Y76702D01*
X260298Y76304D01*
X260600Y76244D01*
Y77600D01*
D02*
G37*
G36*
Y79756D02*
X260298Y79696D01*
X259702Y79298D01*
X259304Y78702D01*
X259244Y78400D01*
X260600D01*
Y79756D01*
D02*
G37*
G36*
X301600Y80100D02*
X300244D01*
X300304Y79798D01*
X300702Y79202D01*
X301298Y78804D01*
X301600Y78744D01*
Y80100D01*
D02*
G37*
G36*
X261400Y79756D02*
Y78400D01*
X262756D01*
X262696Y78702D01*
X262298Y79298D01*
X261702Y79696D01*
X261400Y79756D01*
D02*
G37*
G36*
X193400Y93735D02*
X192698Y93596D01*
X192102Y93198D01*
X191704Y92602D01*
X191565Y91900D01*
X191704Y91198D01*
X192102Y90602D01*
X192698Y90204D01*
X193400Y90065D01*
X194102Y90204D01*
X194183Y90258D01*
X194739Y90028D01*
X194804Y89698D01*
X195202Y89102D01*
X195798Y88704D01*
X196500Y88565D01*
X197202Y88704D01*
X197798Y89102D01*
X198196Y89698D01*
X198335Y90400D01*
X198196Y91102D01*
X197798Y91698D01*
X197202Y92096D01*
X196500Y92235D01*
X195798Y92096D01*
X195717Y92042D01*
X195161Y92272D01*
X195096Y92602D01*
X194698Y93198D01*
X194102Y93596D01*
X193400Y93735D01*
D02*
G37*
G36*
X49000Y94335D02*
X48298Y94196D01*
X47702Y93798D01*
X47304Y93202D01*
X47165Y92500D01*
X47204Y92305D01*
X47000Y91835D01*
X46833Y91802D01*
X46298Y91696D01*
X45702Y91298D01*
X45304Y90702D01*
X45165Y90000D01*
X45304Y89298D01*
X45702Y88702D01*
X46298Y88304D01*
X47000Y88165D01*
X47702Y88304D01*
X48217Y88648D01*
X48523Y88523D01*
X48678Y88400D01*
X48598Y88000D01*
X48737Y87298D01*
X49135Y86702D01*
X49731Y86304D01*
X50433Y86165D01*
X51135Y86304D01*
X51228Y86366D01*
X51678Y86066D01*
X51665Y86000D01*
X51804Y85298D01*
X52202Y84702D01*
X52798Y84304D01*
X53500Y84165D01*
X54202Y84304D01*
X54798Y84702D01*
X55196Y85298D01*
X55335Y86000D01*
X55196Y86702D01*
X54798Y87298D01*
X54223Y87682D01*
X54216Y87719D01*
X54355Y88182D01*
X63354D01*
X63803Y88271D01*
X64183Y88525D01*
X65486Y89828D01*
X82121D01*
X82388Y89328D01*
X82304Y89202D01*
X82165Y88500D01*
X82194Y88352D01*
X82171Y88329D01*
X81917Y87949D01*
X81827Y87500D01*
Y73000D01*
X81917Y72551D01*
X82085Y72300D01*
X82204Y71698D01*
X82602Y71102D01*
X82828Y70952D01*
Y57986D01*
X67148Y42306D01*
X67000Y42335D01*
X66298Y42196D01*
X65702Y41798D01*
X65304Y41202D01*
X65165Y40500D01*
X65304Y39798D01*
X65702Y39202D01*
X66298Y38804D01*
X67000Y38665D01*
X67702Y38804D01*
X68298Y39202D01*
X68696Y39798D01*
X68835Y40500D01*
X68806Y40648D01*
X84829Y56671D01*
X85083Y57051D01*
X85172Y57500D01*
Y71086D01*
X85198Y71102D01*
X85596Y71698D01*
X85735Y72400D01*
X85596Y73102D01*
X85198Y73698D01*
X84602Y74096D01*
X84172Y74181D01*
Y80621D01*
X84672Y80888D01*
X84798Y80804D01*
X85500Y80665D01*
X85761Y80717D01*
X85838Y80331D01*
X86236Y79736D01*
X86831Y79338D01*
X87533Y79198D01*
X88236Y79338D01*
X88831Y79736D01*
X89229Y80331D01*
X89279Y80580D01*
X89788D01*
X89838Y80331D01*
X90236Y79736D01*
X90831Y79338D01*
X91533Y79198D01*
X92236Y79338D01*
X92831Y79736D01*
X93229Y80331D01*
X93369Y81033D01*
X93229Y81736D01*
X92831Y82331D01*
X92236Y82729D01*
X91533Y82869D01*
X91311Y82824D01*
X91229Y83236D01*
X90831Y83831D01*
X90236Y84229D01*
X89534Y84369D01*
X88831Y84229D01*
X88236Y83831D01*
X87838Y83236D01*
X87756Y82824D01*
X87533Y82869D01*
X87272Y82817D01*
X87196Y83202D01*
X86798Y83798D01*
X86202Y84196D01*
X85500Y84335D01*
X84798Y84196D01*
X84672Y84112D01*
X84172Y84379D01*
Y86699D01*
X84702Y86804D01*
X85298Y87202D01*
X85696Y87798D01*
X85835Y88500D01*
X85806Y88648D01*
X86986Y89828D01*
X105217D01*
X105662Y89161D01*
X106505Y88598D01*
X107500Y88400D01*
X108495Y88598D01*
X109338Y89161D01*
X109902Y90005D01*
X110100Y91000D01*
X109902Y91995D01*
X109338Y92839D01*
X108495Y93402D01*
X107500Y93600D01*
X106505Y93402D01*
X105662Y92839D01*
X105217Y92172D01*
X65000D01*
X64551Y92083D01*
X64171Y91829D01*
X62869Y90527D01*
X51787D01*
X51339Y90438D01*
X50958Y90183D01*
X50581Y89806D01*
X50433Y89835D01*
X49731Y89696D01*
X49216Y89352D01*
X48910Y89477D01*
X48756Y89600D01*
X48835Y90000D01*
X48796Y90195D01*
X49000Y90665D01*
X49167Y90698D01*
X49702Y90804D01*
X50298Y91202D01*
X50696Y91798D01*
X50835Y92500D01*
X50696Y93202D01*
X50298Y93798D01*
X49702Y94196D01*
X49000Y94335D01*
D02*
G37*
G36*
X257000Y92335D02*
X256298Y92196D01*
X255702Y91798D01*
X255304Y91202D01*
X255165Y90500D01*
X255304Y89798D01*
X255702Y89202D01*
X256298Y88804D01*
X257000Y88665D01*
X257702Y88804D01*
X258298Y89202D01*
X258696Y89798D01*
X258835Y90500D01*
X258696Y91202D01*
X258298Y91798D01*
X257702Y92196D01*
X257000Y92335D01*
D02*
G37*
G36*
X284600Y92600D02*
X283244D01*
X283304Y92298D01*
X283702Y91702D01*
X284298Y91304D01*
X284600Y91244D01*
Y92600D01*
D02*
G37*
G36*
X14500Y94335D02*
X13798Y94196D01*
X13202Y93798D01*
X12804Y93202D01*
X12665Y92500D01*
X12804Y91798D01*
X13202Y91202D01*
X13798Y90804D01*
X14500Y90665D01*
X15202Y90804D01*
X15798Y91202D01*
X16196Y91798D01*
X16335Y92500D01*
X16196Y93202D01*
X15798Y93798D01*
X15202Y94196D01*
X14500Y94335D01*
D02*
G37*
G36*
X302400Y82256D02*
Y80900D01*
X303756D01*
X303696Y81202D01*
X303298Y81798D01*
X302702Y82196D01*
X302400Y82256D01*
D02*
G37*
G36*
X301600D02*
X301298Y82196D01*
X300702Y81798D01*
X300304Y81202D01*
X300244Y80900D01*
X301600D01*
Y82256D01*
D02*
G37*
G36*
X290000Y86835D02*
X289298Y86696D01*
X288702Y86298D01*
X288304Y85702D01*
X288165Y85000D01*
X288304Y84298D01*
X288702Y83702D01*
X289298Y83304D01*
X290000Y83165D01*
X290702Y83304D01*
X291298Y83702D01*
X291696Y84298D01*
X291835Y85000D01*
X291696Y85702D01*
X291298Y86298D01*
X290702Y86696D01*
X290000Y86835D01*
D02*
G37*
G36*
X162831Y94026D02*
X162048Y93923D01*
X161318Y93621D01*
X160691Y93140D01*
X160210Y92513D01*
X159908Y91783D01*
X159805Y91000D01*
X159908Y90217D01*
X160210Y89487D01*
X160691Y88860D01*
X161318Y88380D01*
X162048Y88077D01*
X162831Y87974D01*
X163614Y88077D01*
X164344Y88380D01*
X164970Y88860D01*
X165451Y89487D01*
X165753Y90217D01*
X165857Y91000D01*
X165753Y91783D01*
X165451Y92513D01*
X164970Y93140D01*
X164344Y93621D01*
X163614Y93923D01*
X162831Y94026D01*
D02*
G37*
G36*
X66500Y89335D02*
X65798Y89196D01*
X65202Y88798D01*
X64804Y88202D01*
X64665Y87500D01*
X64804Y86798D01*
X65202Y86202D01*
X65798Y85804D01*
X66500Y85665D01*
X67202Y85804D01*
X67798Y86202D01*
X68196Y86798D01*
X68335Y87500D01*
X68196Y88202D01*
X67798Y88798D01*
X67202Y89196D01*
X66500Y89335D01*
D02*
G37*
G36*
X212356Y69100D02*
X211000D01*
Y67744D01*
X211302Y67804D01*
X211898Y68202D01*
X212296Y68798D01*
X212356Y69100D01*
D02*
G37*
G36*
X210200D02*
X208844D01*
X208904Y68798D01*
X209302Y68202D01*
X209898Y67804D01*
X210200Y67744D01*
Y69100D01*
D02*
G37*
G36*
X202100Y72733D02*
X201520Y72656D01*
X200607Y72278D01*
X199823Y71676D01*
X199222Y70893D01*
X198844Y69980D01*
X198767Y69400D01*
X202100D01*
Y72733D01*
D02*
G37*
G36*
X313600Y70756D02*
X313298Y70696D01*
X312702Y70298D01*
X312304Y69702D01*
X312244Y69400D01*
X313600D01*
Y70756D01*
D02*
G37*
G36*
X202900Y72733D02*
Y69400D01*
X206233D01*
X206156Y69980D01*
X205778Y70893D01*
X205176Y71676D01*
X204393Y72278D01*
X203480Y72656D01*
X202900Y72733D01*
D02*
G37*
G36*
X118000Y76335D02*
X117298Y76196D01*
X116702Y75798D01*
X116304Y75202D01*
X116165Y74500D01*
X116304Y73798D01*
X116702Y73202D01*
X117298Y72804D01*
X118000Y72665D01*
X118702Y72804D01*
X119298Y73202D01*
X119339Y73263D01*
X119406Y73283D01*
X119917Y73229D01*
X120202Y72802D01*
Y72798D01*
X119804Y72202D01*
X119665Y71500D01*
X119804Y70798D01*
X120202Y70202D01*
X120798Y69804D01*
X121500Y69665D01*
X122202Y69804D01*
X122317Y69881D01*
X122893Y69665D01*
X123202Y69202D01*
X123798Y68804D01*
X124500Y68665D01*
X125184Y68801D01*
X125304Y68198D01*
X125702Y67602D01*
X126298Y67204D01*
X127000Y67065D01*
X127702Y67204D01*
X128298Y67602D01*
X128696Y68198D01*
X128835Y68900D01*
X128696Y69602D01*
X128298Y70198D01*
X127702Y70596D01*
X127000Y70735D01*
X126316Y70599D01*
X126196Y71202D01*
X125798Y71798D01*
X125202Y72196D01*
X124500Y72335D01*
X123798Y72196D01*
X123683Y72119D01*
X123107Y72335D01*
X122798Y72798D01*
Y72802D01*
X123196Y73398D01*
X123335Y74100D01*
X123196Y74802D01*
X122798Y75398D01*
X122202Y75796D01*
X121500Y75935D01*
X120798Y75796D01*
X120202Y75398D01*
X120161Y75337D01*
X120094Y75317D01*
X119583Y75371D01*
X119298Y75798D01*
X118702Y76196D01*
X118000Y76335D01*
D02*
G37*
G36*
X271000Y68335D02*
X270298Y68196D01*
X269702Y67798D01*
X269304Y67202D01*
X269262Y66991D01*
X268707Y66760D01*
X268495Y66902D01*
X267900Y67020D01*
Y64500D01*
Y61980D01*
X268495Y62098D01*
X269338Y62661D01*
X269902Y63505D01*
X270076Y64378D01*
X270155Y64530D01*
X270560Y64752D01*
X271000Y64665D01*
X271702Y64804D01*
X272001Y65004D01*
X272202Y64702D01*
X272798Y64304D01*
X273500Y64165D01*
X274202Y64304D01*
X274798Y64702D01*
X275196Y65298D01*
X275335Y66000D01*
X275196Y66702D01*
X274798Y67298D01*
X274202Y67696D01*
X273500Y67835D01*
X272798Y67696D01*
X272499Y67496D01*
X272298Y67798D01*
X271702Y68196D01*
X271000Y68335D01*
D02*
G37*
G36*
X313600Y68600D02*
X312244D01*
X312304Y68298D01*
X312702Y67702D01*
X313298Y67304D01*
X313600Y67244D01*
Y68600D01*
D02*
G37*
G36*
X136000Y71335D02*
X135298Y71196D01*
X134702Y70798D01*
X134304Y70202D01*
X134165Y69500D01*
X134304Y68798D01*
X134702Y68202D01*
X135298Y67804D01*
X136000Y67665D01*
X136702Y67804D01*
X137298Y68202D01*
X137696Y68798D01*
X137835Y69500D01*
X137696Y70202D01*
X137298Y70798D01*
X136702Y71196D01*
X136000Y71335D01*
D02*
G37*
G36*
X315756Y68600D02*
X314400D01*
Y67244D01*
X314702Y67304D01*
X315298Y67702D01*
X315696Y68298D01*
X315756Y68600D01*
D02*
G37*
G36*
X18876Y78253D02*
X15124D01*
X13247Y76376D01*
Y72624D01*
X15124Y70747D01*
X18876D01*
X20753Y72624D01*
Y76376D01*
X18876Y78253D01*
D02*
G37*
G36*
X10753D02*
X3247D01*
Y70747D01*
X10753D01*
Y78253D01*
D02*
G37*
G36*
X67500Y75835D02*
X66798Y75696D01*
X66202Y75298D01*
X65804Y74702D01*
X65665Y74000D01*
X65804Y73298D01*
X66202Y72702D01*
X66798Y72304D01*
X67500Y72165D01*
X68202Y72304D01*
X68798Y72702D01*
X69196Y73298D01*
X69335Y74000D01*
X69196Y74702D01*
X68798Y75298D01*
X68202Y75696D01*
X67500Y75835D01*
D02*
G37*
G36*
X202100Y78600D02*
X198767D01*
X198844Y78020D01*
X199222Y77107D01*
X199823Y76323D01*
X200607Y75722D01*
X201520Y75344D01*
X202100Y75267D01*
Y78600D01*
D02*
G37*
G36*
X134500Y76335D02*
X133798Y76196D01*
X133202Y75798D01*
X132804Y75202D01*
X132665Y74500D01*
X132804Y73798D01*
X133202Y73202D01*
X133798Y72804D01*
X134500Y72665D01*
X135202Y72804D01*
X135798Y73202D01*
X136196Y73798D01*
X136335Y74500D01*
X136196Y75202D01*
X135798Y75798D01*
X135202Y76196D01*
X134500Y76335D01*
D02*
G37*
G36*
X45567Y73308D02*
X44865Y73168D01*
X44269Y72770D01*
X43871Y72175D01*
X43732Y71472D01*
X43871Y70770D01*
X44269Y70175D01*
X44865Y69777D01*
X45567Y69637D01*
X46269Y69777D01*
X46865Y70175D01*
X47262Y70770D01*
X47402Y71472D01*
X47262Y72175D01*
X46865Y72770D01*
X46269Y73168D01*
X45567Y73308D01*
D02*
G37*
G36*
X314400Y70756D02*
Y69400D01*
X315756D01*
X315696Y69702D01*
X315298Y70298D01*
X314702Y70696D01*
X314400Y70756D01*
D02*
G37*
G36*
X210200Y71256D02*
X209898Y71196D01*
X209302Y70798D01*
X208904Y70202D01*
X208844Y69900D01*
X210200D01*
Y71256D01*
D02*
G37*
G36*
X267500Y73835D02*
X266798Y73696D01*
X266202Y73298D01*
X265804Y72702D01*
X265665Y72000D01*
X265804Y71298D01*
X266202Y70702D01*
X266798Y70304D01*
X267500Y70165D01*
X268202Y70304D01*
X268798Y70702D01*
X269196Y71298D01*
X269335Y72000D01*
X269196Y72702D01*
X268798Y73298D01*
X268202Y73696D01*
X267500Y73835D01*
D02*
G37*
G36*
X211000Y71256D02*
Y69900D01*
X212356D01*
X212296Y70202D01*
X211898Y70798D01*
X211302Y71196D01*
X211000Y71256D01*
D02*
G37*
G36*
X286756Y92600D02*
X285400D01*
Y91244D01*
X285702Y91304D01*
X286298Y91702D01*
X286696Y92298D01*
X286756Y92600D01*
D02*
G37*
G36*
X67500Y113335D02*
X66798Y113196D01*
X66202Y112798D01*
X65804Y112202D01*
X65665Y111500D01*
X65804Y110798D01*
X66202Y110202D01*
X66798Y109804D01*
X67500Y109665D01*
X68202Y109804D01*
X68798Y110202D01*
X69196Y110798D01*
X69335Y111500D01*
X69196Y112202D01*
X68798Y112798D01*
X68202Y113196D01*
X67500Y113335D01*
D02*
G37*
G36*
X85374Y112961D02*
X84672Y112822D01*
X84076Y112424D01*
X83678Y111828D01*
X83539Y111126D01*
X83678Y110424D01*
X84076Y109828D01*
X84672Y109430D01*
X85374Y109291D01*
X86076Y109430D01*
X86672Y109828D01*
X87070Y110424D01*
X87209Y111126D01*
X87070Y111828D01*
X86672Y112424D01*
X86076Y112822D01*
X85374Y112961D01*
D02*
G37*
G36*
X51000Y113835D02*
X50298Y113696D01*
X49702Y113298D01*
X49304Y112702D01*
X49165Y112000D01*
X49304Y111298D01*
X49702Y110702D01*
X50298Y110304D01*
X51000Y110165D01*
X51702Y110304D01*
X52298Y110702D01*
X52696Y111298D01*
X52835Y112000D01*
X52696Y112702D01*
X52298Y113298D01*
X51702Y113696D01*
X51000Y113835D01*
D02*
G37*
G36*
X81000Y114335D02*
X80298Y114196D01*
X79702Y113798D01*
X79304Y113202D01*
X79165Y112500D01*
X79304Y111798D01*
X79702Y111202D01*
X80298Y110804D01*
X81000Y110665D01*
X81702Y110804D01*
X82298Y111202D01*
X82696Y111798D01*
X82835Y112500D01*
X82696Y113202D01*
X82298Y113798D01*
X81702Y114196D01*
X81000Y114335D01*
D02*
G37*
G36*
X107000Y111835D02*
X106298Y111696D01*
X105702Y111298D01*
X105304Y110702D01*
X105255Y110453D01*
X104745D01*
X104696Y110702D01*
X104298Y111298D01*
X103702Y111696D01*
X103000Y111835D01*
X102298Y111696D01*
X101702Y111298D01*
X101304Y110702D01*
X101165Y110000D01*
X101304Y109298D01*
X101702Y108702D01*
X102298Y108304D01*
X103000Y108165D01*
X103203Y108205D01*
X103304Y107698D01*
X103702Y107102D01*
X104298Y106704D01*
X105000Y106565D01*
X105702Y106704D01*
X106298Y107102D01*
X106696Y107698D01*
X106797Y108205D01*
X107000Y108165D01*
X107702Y108304D01*
X108298Y108702D01*
X108696Y109298D01*
X108835Y110000D01*
X108696Y110702D01*
X108298Y111298D01*
X107702Y111696D01*
X107000Y111835D01*
D02*
G37*
G36*
X128750Y106585D02*
X128048Y106446D01*
X127452Y106048D01*
X127122Y105553D01*
X126581Y105438D01*
X126510Y105529D01*
X125808Y106068D01*
X124991Y106406D01*
X124114Y106522D01*
X123237Y106406D01*
X122420Y106068D01*
X121719Y105529D01*
X121180Y104828D01*
X120842Y104011D01*
X120726Y103134D01*
X120842Y102257D01*
X121180Y101440D01*
X121719Y100738D01*
X122420Y100200D01*
X123237Y99861D01*
X124114Y99746D01*
X124991Y99861D01*
X125808Y100200D01*
X126510Y100738D01*
X127048Y101440D01*
X127387Y102257D01*
X127464Y102843D01*
X127992Y103092D01*
X128048Y103054D01*
X128750Y102915D01*
X129203Y103005D01*
X129304Y102498D01*
X129702Y101902D01*
X130298Y101504D01*
X131000Y101365D01*
X131702Y101504D01*
X132298Y101902D01*
X132696Y102498D01*
X132835Y103200D01*
X132696Y103902D01*
X132298Y104498D01*
X131702Y104896D01*
X131000Y105035D01*
X130546Y104945D01*
X130446Y105452D01*
X130048Y106048D01*
X129452Y106446D01*
X128750Y106585D01*
D02*
G37*
G36*
X281000Y108835D02*
X280298Y108696D01*
X279702Y108298D01*
X279304Y107702D01*
X279165Y107000D01*
X279304Y106298D01*
X279702Y105702D01*
X280298Y105304D01*
X281000Y105165D01*
X281702Y105304D01*
X282298Y105702D01*
X282696Y106298D01*
X282835Y107000D01*
X282696Y107702D01*
X282298Y108298D01*
X281702Y108696D01*
X281000Y108835D01*
D02*
G37*
G36*
X51500Y107835D02*
X50798Y107696D01*
X50202Y107298D01*
X49798D01*
X49202Y107696D01*
X48500Y107835D01*
X47798Y107696D01*
X47202Y107298D01*
X46804Y106702D01*
X46665Y106000D01*
X46804Y105298D01*
X46921Y105123D01*
X46859Y105001D01*
X46591Y104718D01*
X46000Y104835D01*
X45298Y104696D01*
X44702Y104298D01*
X44304Y103702D01*
X44165Y103000D01*
X44304Y102298D01*
X44702Y101702D01*
X45298Y101304D01*
X46000Y101165D01*
X46702Y101304D01*
X47298Y101702D01*
X47696Y102298D01*
X47835Y103000D01*
X47696Y103702D01*
X47579Y103877D01*
X47641Y103999D01*
X47909Y104282D01*
X48500Y104165D01*
X49202Y104304D01*
X49798Y104702D01*
X50202D01*
X50798Y104304D01*
X51047Y104255D01*
Y103745D01*
X50798Y103696D01*
X50202Y103298D01*
X49804Y102702D01*
X49665Y102000D01*
X49804Y101298D01*
X50202Y100702D01*
X50798Y100304D01*
X51047Y100255D01*
Y99745D01*
X50798Y99696D01*
X50202Y99298D01*
X49804Y98702D01*
X49665Y98000D01*
X49804Y97298D01*
X50202Y96702D01*
X50798Y96304D01*
X51500Y96165D01*
X52202Y96304D01*
X52798Y96702D01*
X53196Y97298D01*
X53276Y97700D01*
X53500Y98165D01*
X54202Y98304D01*
X54798Y98702D01*
X55196Y99298D01*
X55335Y100000D01*
X55196Y100702D01*
X54798Y101298D01*
X54202Y101696D01*
X53953Y101745D01*
Y102255D01*
X54202Y102304D01*
X54798Y102702D01*
X55196Y103298D01*
X55335Y104000D01*
X55196Y104702D01*
X54798Y105298D01*
X54202Y105696D01*
X53500Y105835D01*
X53276Y106300D01*
X53196Y106702D01*
X52798Y107298D01*
X52202Y107696D01*
X51500Y107835D01*
D02*
G37*
G36*
X124114Y114396D02*
X123237Y114280D01*
X122420Y113942D01*
X121719Y113404D01*
X121180Y112702D01*
X120842Y111885D01*
X120726Y111008D01*
X120842Y110131D01*
X121180Y109314D01*
X121719Y108612D01*
X122420Y108074D01*
X123237Y107735D01*
X124114Y107620D01*
X124991Y107735D01*
X125808Y108074D01*
X126510Y108612D01*
X127048Y109314D01*
X127387Y110131D01*
X127502Y111008D01*
X127387Y111885D01*
X127048Y112702D01*
X126510Y113404D01*
X125808Y113942D01*
X124991Y114280D01*
X124114Y114396D01*
D02*
G37*
G36*
X37500D02*
X36623Y114280D01*
X35806Y113942D01*
X35104Y113404D01*
X34566Y112702D01*
X34227Y111885D01*
X34112Y111008D01*
X34227Y110131D01*
X34566Y109314D01*
X35104Y108612D01*
X35806Y108074D01*
X36623Y107735D01*
X37500Y107620D01*
X38377Y107735D01*
X39194Y108074D01*
X39896Y108612D01*
X40434Y109314D01*
X40773Y110131D01*
X40888Y111008D01*
X40773Y111885D01*
X40434Y112702D01*
X39896Y113404D01*
X39194Y113942D01*
X38377Y114280D01*
X37500Y114396D01*
D02*
G37*
G36*
X299500Y116835D02*
X298798Y116696D01*
X298202Y116298D01*
X297804Y115702D01*
X297665Y115000D01*
X297804Y114298D01*
X298202Y113702D01*
X298798Y113304D01*
X299500Y113165D01*
X300202Y113304D01*
X300798Y113702D01*
X301196Y114298D01*
X301335Y115000D01*
X301196Y115702D01*
X300798Y116298D01*
X300202Y116696D01*
X299500Y116835D01*
D02*
G37*
G36*
X217000D02*
X216298Y116696D01*
X215702Y116298D01*
X215393Y115835D01*
X214817Y115619D01*
X214702Y115696D01*
X214000Y115835D01*
X213298Y115696D01*
X212702Y115298D01*
X212304Y114702D01*
X212165Y114000D01*
X212304Y113298D01*
X212702Y112702D01*
X213298Y112304D01*
X214000Y112165D01*
X214702Y112304D01*
X215298Y112702D01*
X215607Y113165D01*
X216183Y113381D01*
X216298Y113304D01*
X217000Y113165D01*
X217702Y113304D01*
X218298Y113702D01*
X218696Y114298D01*
X218835Y115000D01*
X218696Y115702D01*
X218298Y116298D01*
X217702Y116696D01*
X217000Y116835D01*
D02*
G37*
G36*
X124114Y122270D02*
X123237Y122154D01*
X122420Y121816D01*
X121719Y121278D01*
X121180Y120576D01*
X120842Y119759D01*
X120726Y118882D01*
X120842Y118005D01*
X121180Y117188D01*
X121719Y116486D01*
X122420Y115948D01*
X123237Y115609D01*
X124114Y115494D01*
X124991Y115609D01*
X125808Y115948D01*
X126510Y116486D01*
X127048Y117188D01*
X127387Y118005D01*
X127502Y118882D01*
X127387Y119759D01*
X127048Y120576D01*
X126510Y121278D01*
X125808Y121816D01*
X124991Y122154D01*
X124114Y122270D01*
D02*
G37*
G36*
X210100Y118256D02*
X209798Y118196D01*
X209202Y117798D01*
X208804Y117202D01*
X208744Y116900D01*
X210100D01*
Y118256D01*
D02*
G37*
G36*
X260756Y119600D02*
X259400D01*
Y118244D01*
X259702Y118304D01*
X260298Y118702D01*
X260696Y119298D01*
X260756Y119600D01*
D02*
G37*
G36*
X210900Y118256D02*
Y116900D01*
X212256D01*
X212196Y117202D01*
X211798Y117798D01*
X211202Y118196D01*
X210900Y118256D01*
D02*
G37*
G36*
X202500Y122785D02*
X202373Y122768D01*
X199547D01*
X199235Y122706D01*
X198970Y122529D01*
X198793Y122265D01*
X198731Y121952D01*
Y119127D01*
X198715Y119000D01*
X198731Y118873D01*
Y116890D01*
X197507Y115665D01*
X197253Y115285D01*
X197164Y114836D01*
Y103164D01*
X197253Y102715D01*
X197507Y102334D01*
X198731Y101110D01*
Y99127D01*
X198715Y99000D01*
X198731Y98873D01*
Y96047D01*
X198793Y95735D01*
X198970Y95470D01*
X199235Y95293D01*
X199547Y95231D01*
X202373D01*
X202500Y95215D01*
X203480Y95344D01*
X204392Y95722D01*
X205176Y96323D01*
X205778Y97107D01*
X206156Y98020D01*
X206285Y99000D01*
X206156Y99979D01*
X205858Y100699D01*
X206986Y101828D01*
X208619D01*
X208702Y101702D01*
X209298Y101304D01*
X210000Y101165D01*
X210702Y101304D01*
X211298Y101702D01*
X211696Y102298D01*
X211835Y103000D01*
X211696Y103702D01*
X211298Y104298D01*
X210702Y104696D01*
X210000Y104835D01*
X209298Y104696D01*
X208702Y104298D01*
X208619Y104173D01*
X206500D01*
X206051Y104083D01*
X205671Y103829D01*
X204200Y102358D01*
X203480Y102656D01*
X202500Y102785D01*
X202373Y102768D01*
X200390D01*
X199509Y103649D01*
Y105200D01*
X199547Y105231D01*
X202373D01*
X202500Y105215D01*
X203480Y105344D01*
X204392Y105722D01*
X205176Y106323D01*
X205778Y107107D01*
X206076Y107827D01*
X208514D01*
X209194Y107148D01*
X209165Y107000D01*
X209304Y106298D01*
X209702Y105702D01*
X210298Y105304D01*
X211000Y105165D01*
X211702Y105304D01*
X212298Y105702D01*
X212696Y106298D01*
X212835Y107000D01*
X212696Y107702D01*
X212298Y108298D01*
X211702Y108696D01*
X211000Y108835D01*
X210852Y108806D01*
X209829Y109829D01*
X209449Y110083D01*
X209000Y110172D01*
X206076D01*
X205858Y110699D01*
X207352Y112194D01*
X207500Y112165D01*
X208202Y112304D01*
X208798Y112702D01*
X209195Y113297D01*
X209335Y114000D01*
X209218Y114591D01*
X209500Y114858D01*
X209623Y114921D01*
X209798Y114804D01*
X210100Y114744D01*
Y116100D01*
X208744D01*
X208782Y115909D01*
X208500Y115641D01*
X208377Y115579D01*
X208202Y115695D01*
X207500Y115835D01*
X206798Y115695D01*
X206202Y115298D01*
X205804Y114702D01*
X205665Y114000D01*
X205694Y113852D01*
X204200Y112358D01*
X203480Y112656D01*
X202500Y112785D01*
X202373Y112768D01*
X199547D01*
X199509Y112800D01*
Y114351D01*
X200390Y115231D01*
X202373D01*
X202500Y115215D01*
X203480Y115344D01*
X204392Y115722D01*
X205176Y116323D01*
X205778Y117107D01*
X206156Y118020D01*
X206285Y119000D01*
X206156Y119979D01*
X205778Y120892D01*
X205176Y121676D01*
X204392Y122278D01*
X203480Y122656D01*
X202500Y122785D01*
D02*
G37*
G36*
X86000Y117835D02*
X85298Y117696D01*
X84702Y117298D01*
X84304Y116702D01*
X84165Y116000D01*
X84304Y115298D01*
X84702Y114702D01*
X85298Y114304D01*
X86000Y114165D01*
X86702Y114304D01*
X87298Y114702D01*
X87696Y115298D01*
X87835Y116000D01*
X87696Y116702D01*
X87298Y117298D01*
X86702Y117696D01*
X86000Y117835D01*
D02*
G37*
G36*
X212256Y116100D02*
X210900D01*
Y114744D01*
X211202Y114804D01*
X211798Y115202D01*
X212196Y115798D01*
X212256Y116100D01*
D02*
G37*
G36*
X37500Y122270D02*
X36623Y122154D01*
X35806Y121816D01*
X35104Y121278D01*
X34566Y120576D01*
X34227Y119759D01*
X34112Y118882D01*
X34227Y118005D01*
X34566Y117188D01*
X35104Y116486D01*
X35806Y115948D01*
X36623Y115609D01*
X37500Y115494D01*
X38377Y115609D01*
X39194Y115948D01*
X39896Y116486D01*
X40434Y117188D01*
X40773Y118005D01*
X40888Y118882D01*
X40773Y119759D01*
X40434Y120576D01*
X39896Y121278D01*
X39194Y121816D01*
X38377Y122154D01*
X37500Y122270D01*
D02*
G37*
G36*
X71500Y118835D02*
X70798Y118696D01*
X70202Y118298D01*
X69804Y117702D01*
X69665Y117000D01*
X69804Y116298D01*
X70202Y115702D01*
X70798Y115304D01*
X71500Y115165D01*
X72202Y115304D01*
X72798Y115702D01*
X73196Y116298D01*
X73335Y117000D01*
X73196Y117702D01*
X72798Y118298D01*
X72202Y118696D01*
X71500Y118835D01*
D02*
G37*
G36*
X14500Y100335D02*
X13798Y100196D01*
X13202Y99798D01*
X12804Y99202D01*
X12665Y98500D01*
X12804Y97798D01*
X13202Y97202D01*
X13798Y96804D01*
X14500Y96665D01*
X15202Y96804D01*
X15798Y97202D01*
X16196Y97798D01*
X16335Y98500D01*
X16196Y99202D01*
X15798Y99798D01*
X15202Y100196D01*
X14500Y100335D01*
D02*
G37*
G36*
X284000Y98835D02*
X283298Y98696D01*
X282702Y98298D01*
X282304Y97702D01*
X282165Y97000D01*
X282304Y96298D01*
X282702Y95702D01*
X283298Y95304D01*
X284000Y95165D01*
X284702Y95304D01*
X285298Y95702D01*
X285696Y96298D01*
X285835Y97000D01*
X285696Y97702D01*
X285298Y98298D01*
X284702Y98696D01*
X284000Y98835D01*
D02*
G37*
G36*
X37500Y106522D02*
X36623Y106406D01*
X35806Y106068D01*
X35104Y105529D01*
X34566Y104828D01*
X34227Y104011D01*
X34112Y103134D01*
X34227Y102257D01*
X34566Y101440D01*
X35104Y100738D01*
X35806Y100200D01*
X36623Y99861D01*
X37500Y99746D01*
X37573Y99755D01*
X37863Y99289D01*
X37804Y99202D01*
X37665Y98500D01*
X37804Y97798D01*
X38202Y97202D01*
X38798Y96804D01*
X39500Y96665D01*
X40202Y96804D01*
X40798Y97202D01*
X41196Y97798D01*
X41335Y98500D01*
X41196Y99202D01*
X40798Y99798D01*
X40202Y100196D01*
X40050Y100226D01*
X39926Y100637D01*
X39915Y100763D01*
X40434Y101440D01*
X40773Y102257D01*
X40888Y103134D01*
X40773Y104011D01*
X40434Y104828D01*
X39896Y105529D01*
X39194Y106068D01*
X38377Y106406D01*
X37500Y106522D01*
D02*
G37*
G36*
X255000Y101356D02*
X254698Y101296D01*
X254102Y100898D01*
X253704Y100302D01*
X253644Y100000D01*
X255000D01*
Y101356D01*
D02*
G37*
G36*
Y99200D02*
X253644D01*
X253704Y98898D01*
X254102Y98302D01*
X254698Y97904D01*
X255000Y97844D01*
Y99200D01*
D02*
G37*
G36*
X187000Y95835D02*
X186298Y95696D01*
X185702Y95298D01*
X185304Y94702D01*
X185165Y94000D01*
X185304Y93298D01*
X185702Y92702D01*
X186298Y92304D01*
X187000Y92165D01*
X187702Y92304D01*
X188298Y92702D01*
X188696Y93298D01*
X188835Y94000D01*
X188696Y94702D01*
X188298Y95298D01*
X187702Y95696D01*
X187000Y95835D01*
D02*
G37*
G36*
X58000Y95335D02*
X57298Y95196D01*
X56702Y94798D01*
X56304Y94202D01*
X56165Y93500D01*
X56304Y92798D01*
X56702Y92202D01*
X57298Y91804D01*
X58000Y91665D01*
X58702Y91804D01*
X59298Y92202D01*
X59696Y92798D01*
X59835Y93500D01*
X59696Y94202D01*
X59298Y94798D01*
X58702Y95196D01*
X58000Y95335D01*
D02*
G37*
G36*
X146000Y96835D02*
X145298Y96696D01*
X144702Y96298D01*
X144304Y95702D01*
X144165Y95000D01*
X144304Y94298D01*
X144702Y93702D01*
X145298Y93304D01*
X146000Y93165D01*
X146702Y93304D01*
X147298Y93702D01*
X147696Y94298D01*
X147835Y95000D01*
X147696Y95702D01*
X147298Y96298D01*
X146702Y96696D01*
X146000Y96835D01*
D02*
G37*
G36*
X285400Y94756D02*
Y93400D01*
X286756D01*
X286696Y93702D01*
X286298Y94298D01*
X285702Y94696D01*
X285400Y94756D01*
D02*
G37*
G36*
X284600D02*
X284298Y94696D01*
X283702Y94298D01*
X283304Y93702D01*
X283244Y93400D01*
X284600D01*
Y94756D01*
D02*
G37*
G36*
X14500Y106335D02*
X13798Y106196D01*
X13202Y105798D01*
X12804Y105202D01*
X12665Y104500D01*
X12804Y103798D01*
X13202Y103202D01*
X13798Y102804D01*
X14500Y102665D01*
X15202Y102804D01*
X15798Y103202D01*
X16196Y103798D01*
X16335Y104500D01*
X16196Y105202D01*
X15798Y105798D01*
X15202Y106196D01*
X14500Y106335D01*
D02*
G37*
G36*
X99500Y106835D02*
X98798Y106696D01*
X98202Y106298D01*
X97804Y105702D01*
X97665Y105000D01*
X97804Y104298D01*
X98202Y103702D01*
X98798Y103304D01*
X99500Y103165D01*
X100202Y103304D01*
X100798Y103702D01*
X101196Y104298D01*
X101335Y105000D01*
X101196Y105702D01*
X100798Y106298D01*
X100202Y106696D01*
X99500Y106835D01*
D02*
G37*
G36*
X337500Y110285D02*
X336520Y110156D01*
X335607Y109778D01*
X334823Y109177D01*
X334222Y108393D01*
X333844Y107480D01*
X333715Y106500D01*
X333844Y105520D01*
X334222Y104607D01*
X334823Y103823D01*
X335607Y103222D01*
X336520Y102844D01*
X337500Y102715D01*
X338480Y102844D01*
X339393Y103222D01*
X340177Y103823D01*
X340778Y104607D01*
X341156Y105520D01*
X341285Y106500D01*
X341156Y107480D01*
X340778Y108393D01*
X340177Y109177D01*
X339393Y109778D01*
X338480Y110156D01*
X337500Y110285D01*
D02*
G37*
%LPD*%
G36*
X228856Y46485D02*
X228747Y46376D01*
Y42624D01*
X230624Y40747D01*
X234376D01*
X235066Y41436D01*
X235527Y41245D01*
Y37755D01*
X235066Y37564D01*
X234376Y38253D01*
X230624D01*
X228747Y36376D01*
Y32624D01*
X229156Y32214D01*
X228910Y31754D01*
X228500Y31835D01*
X227798Y31696D01*
X227202Y31298D01*
X226804Y30702D01*
X226665Y30000D01*
X226722Y29714D01*
X226404Y29327D01*
X168378D01*
X168323Y29408D01*
X168454Y30087D01*
X168621Y30198D01*
X169018Y30794D01*
X169158Y31496D01*
X169156Y31508D01*
X169616Y31754D01*
X170624Y30747D01*
X174376D01*
X176253Y32624D01*
Y36376D01*
X175231Y37398D01*
X175423Y37860D01*
X177032D01*
X177481Y37949D01*
X177861Y38203D01*
X180515Y40856D01*
X180624Y40747D01*
X184376D01*
X186253Y42624D01*
Y46376D01*
X185764Y46865D01*
X185955Y47328D01*
X189045D01*
X189236Y46865D01*
X188747Y46376D01*
Y42624D01*
X189071Y42300D01*
X188926Y41821D01*
X188798Y41796D01*
X188202Y41398D01*
X187804Y40802D01*
X187744Y40500D01*
X191398D01*
X191601Y40747D01*
X194376D01*
X196253Y42624D01*
Y46376D01*
X195764Y46865D01*
X195955Y47328D01*
X199045D01*
X199236Y46865D01*
X198747Y46376D01*
Y42624D01*
X200624Y40747D01*
X204376D01*
X206253Y42624D01*
Y46376D01*
X205764Y46865D01*
X205955Y47328D01*
X209045D01*
X209236Y46865D01*
X208747Y46376D01*
Y42624D01*
X210624Y40747D01*
X214376D01*
X216253Y42624D01*
Y44638D01*
X216694Y44874D01*
X216798Y44804D01*
X217500Y44665D01*
X218202Y44804D01*
X218306Y44874D01*
X218747Y44638D01*
Y42624D01*
X220624Y40747D01*
X224376D01*
X226253Y42624D01*
Y46376D01*
X224502Y48127D01*
X224679Y48627D01*
X226714D01*
X228856Y46485D01*
D02*
G37*
G36*
X236213Y79257D02*
X236304Y78798D01*
X236457Y78569D01*
X236339Y77889D01*
X236202Y77798D01*
X235804Y77202D01*
X235665Y76500D01*
X235804Y75798D01*
X236202Y75202D01*
X236798Y74804D01*
X237286Y74707D01*
X237165Y74100D01*
X237304Y73398D01*
X237702Y72802D01*
X238298Y72404D01*
X239000Y72265D01*
X239001Y72265D01*
X239406Y71911D01*
Y62860D01*
X238906Y62593D01*
X238602Y62796D01*
X237900Y62935D01*
X237198Y62796D01*
X237109Y62832D01*
X236996Y63402D01*
X236598Y63998D01*
X236002Y64396D01*
X235300Y64535D01*
X234873Y64450D01*
X234372Y64801D01*
Y66899D01*
X234283Y67348D01*
X234029Y67728D01*
X228528Y73229D01*
X228148Y73483D01*
X227699Y73572D01*
X216486D01*
X215104Y74954D01*
X215217Y75548D01*
X215598Y75802D01*
X215996Y76398D01*
X216135Y77100D01*
X216104Y77258D01*
X216434Y77627D01*
X228533D01*
X228872Y77200D01*
X232528D01*
X232868Y77627D01*
X233391D01*
X233840Y77717D01*
X234220Y77971D01*
X235680Y79431D01*
X236213Y79257D01*
D02*
G37*
%LPC*%
G36*
X230300Y76400D02*
X228944D01*
X229004Y76098D01*
X229402Y75502D01*
X229998Y75104D01*
X230300Y75044D01*
Y76400D01*
D02*
G37*
G36*
X232456D02*
X231100D01*
Y75044D01*
X231402Y75104D01*
X231998Y75502D01*
X232396Y76098D01*
X232456Y76400D01*
D02*
G37*
G36*
X184376Y38253D02*
X180624D01*
X178747Y36376D01*
Y32624D01*
X180624Y30747D01*
X184376D01*
X186253Y32624D01*
Y36376D01*
X184376Y38253D01*
D02*
G37*
G36*
X214376D02*
X210624D01*
X208747Y36376D01*
Y32624D01*
X210624Y30747D01*
X214376D01*
X216253Y32624D01*
Y36376D01*
X214376Y38253D01*
D02*
G37*
G36*
X226653Y40088D02*
X225950Y39948D01*
X225355Y39551D01*
X224957Y38955D01*
X224862Y38475D01*
X224376Y38253D01*
X220624D01*
X218747Y36376D01*
Y32624D01*
X220624Y30747D01*
X224376D01*
X226253Y32624D01*
Y35987D01*
X226653Y36417D01*
X227355Y36557D01*
X227951Y36955D01*
X228348Y37550D01*
X228488Y38253D01*
X228348Y38955D01*
X227951Y39551D01*
X227355Y39948D01*
X226653Y40088D01*
D02*
G37*
G36*
X204376Y38253D02*
X200624D01*
X198747Y36376D01*
Y32624D01*
X200624Y30747D01*
X204376D01*
X206253Y32624D01*
Y36376D01*
X204376Y38253D01*
D02*
G37*
G36*
X189100Y39700D02*
X187744D01*
X187804Y39398D01*
X188202Y38802D01*
X188798Y38404D01*
X189100Y38344D01*
Y39700D01*
D02*
G37*
G36*
X191256D02*
X189900D01*
Y38344D01*
X190035Y38371D01*
X190281Y37910D01*
X188747Y36376D01*
Y32624D01*
X190624Y30747D01*
X194376D01*
X196253Y32624D01*
Y36376D01*
X194376Y38253D01*
X190875D01*
X190724Y38753D01*
X190798Y38802D01*
X191196Y39398D01*
X191256Y39700D01*
D02*
G37*
%LPD*%
D11*
X274900Y27900D02*
X277500Y30500D01*
X92500Y34500D02*
X99100Y27900D01*
X277500Y30500D02*
Y54500D01*
X280000Y57000D01*
X282500Y59500D01*
X299000D01*
X303500D01*
X308500Y64500D01*
Y69500D01*
X150000Y90500D02*
X151900D01*
X163400Y102000D01*
X179500D01*
X188400Y110900D01*
Y133700D01*
X192600Y137900D01*
Y144600D01*
X99100Y27900D02*
X274900D01*
D21*
X107500Y91000D02*
D03*
X267500Y64500D02*
D03*
X322047Y88848D02*
D03*
X96618Y-30374D02*
D03*
X77618D02*
D03*
X103618Y-29874D02*
D03*
X336614Y68898D02*
D03*
D49*
X305666Y120050D02*
X311300Y125684D01*
Y130800D01*
X310900Y131200D02*
X311300Y130800D01*
X310900Y131200D02*
Y137003D01*
X313697Y139800D01*
X308500Y133300D02*
Y141900D01*
X303550Y128350D02*
X308500Y133300D01*
X303550Y125250D02*
Y128350D01*
X309700Y132600D02*
Y137500D01*
X304750Y127650D02*
X309700Y132600D01*
X304750Y121950D02*
Y127650D01*
X302900Y124600D02*
X303550Y125250D01*
X236700Y32200D02*
Y49300D01*
X230118Y55882D02*
X236700Y49300D01*
X230118Y55882D02*
Y62500D01*
X239050Y50347D02*
X243356D01*
X233200Y56197D02*
X239050Y50347D01*
X233200Y56197D02*
Y66899D01*
X238000Y30300D02*
Y49700D01*
X232000Y55700D02*
X238000Y49700D01*
X232000Y55700D02*
Y66402D01*
X240100Y30200D02*
X240200Y30300D01*
X244800D01*
X234800D02*
X236700Y32200D01*
X243356Y50347D02*
X247200Y46503D01*
Y32700D02*
Y46503D01*
X244800Y30300D02*
X247200Y32700D01*
X248400Y38600D02*
Y47000D01*
X240579Y54821D02*
X248400Y47000D01*
X240579Y54821D02*
Y72521D01*
X248400Y38600D02*
X252500Y34500D01*
X326600Y139800D02*
X328700Y141900D01*
X313697Y139800D02*
X326600D01*
X309700Y137500D02*
X313900Y141700D01*
X302350Y120050D02*
X305666D01*
X302200Y120200D02*
X302350Y120050D01*
X313900Y141700D02*
X317700D01*
X304700Y121900D02*
X304750Y121950D01*
X202500Y109000D02*
X207500Y114000D01*
X198336Y114836D02*
X202500Y119000D01*
X198336Y103164D02*
Y114836D01*
Y103164D02*
X202500Y99000D01*
X181500Y84500D02*
X197803D01*
X183300Y83300D02*
X198300D01*
X208803Y96000D02*
X214000D01*
X204303Y91500D02*
X208803Y96000D01*
X202757Y91500D02*
X204303D01*
X208500Y94000D02*
X212500D01*
X204800Y90300D02*
X208500Y94000D01*
X203254Y90300D02*
X204800D01*
X204000Y88500D02*
X206134D01*
X209734Y92100D01*
X216303Y88500D02*
X219503Y85300D01*
X211225Y88500D02*
X216303D01*
X210000Y87275D02*
X211225Y88500D01*
X216800Y89700D02*
X220000Y86500D01*
X210728Y89700D02*
X216800D01*
X208800Y87772D02*
X210728Y89700D01*
X210231Y90900D02*
X217297D01*
X207600Y88269D02*
X210231Y90900D01*
X209734Y92100D02*
X220361D01*
X177500Y77500D02*
X183300Y83300D01*
X177500Y80500D02*
X181500Y84500D01*
X211500Y153000D02*
X213967D01*
X203233Y149067D02*
X218106D01*
X198761Y153539D02*
X203233Y149067D01*
X195539Y153539D02*
X198761D01*
X194500Y152500D02*
X195539Y153539D01*
X198508Y151165D02*
X199732Y149941D01*
X165800Y84700D02*
X170500Y80000D01*
X161003Y84700D02*
X165800D01*
X157500Y81197D02*
X161003Y84700D01*
X163500Y83500D02*
X165500Y81500D01*
X161500Y83500D02*
X163500D01*
X160000Y82000D02*
X161500Y83500D01*
X162000Y81500D02*
X166000Y77500D01*
X157500Y71000D02*
Y81197D01*
X160000Y74500D02*
Y82000D01*
X125500Y50000D02*
X135000D01*
X102500Y34500D02*
Y44500D01*
Y34500D02*
X107500Y39500D01*
X134000D01*
X138000Y43500D01*
Y69546D01*
X117500Y58000D02*
X125500Y50000D01*
X117500Y58000D02*
Y67500D01*
X111500Y73500D02*
Y82500D01*
X147000Y63500D02*
X150500Y60000D01*
X141000Y67803D02*
X150003Y58800D01*
X149004Y72000D02*
X156004Y65000D01*
X162000D01*
X163500Y66500D01*
Y71000D01*
X160000Y74500D02*
X163500Y71000D01*
X84000Y88500D02*
X86500Y91000D01*
X65000D02*
X86500D01*
X63354Y89354D02*
X65000Y91000D01*
X86000Y90500D02*
X86500Y91000D01*
X51787Y89354D02*
X63354D01*
X50433Y88000D02*
X51787Y89354D01*
X159500Y69000D02*
X161000D01*
X86500Y91000D02*
X107500D01*
X84000Y57500D02*
Y72000D01*
X67000Y40500D02*
X84000Y57500D01*
X272000Y133000D02*
X275000Y136000D01*
X272000Y125197D02*
Y133000D01*
Y125197D02*
X295000Y102197D01*
X268803Y87000D02*
X270000D01*
X257300Y98503D02*
X268803Y87000D01*
X257300Y98503D02*
Y110003D01*
X250800Y116503D02*
X257300Y110003D01*
X252000Y117000D02*
X258500Y110500D01*
Y99000D02*
Y110500D01*
Y99000D02*
X267500Y90000D01*
X250800Y116503D02*
Y123997D01*
X255000Y128197D01*
Y145500D01*
X267500Y90000D02*
X269500D01*
X252000Y117000D02*
Y123500D01*
X258000Y129500D01*
Y145500D01*
X295000Y98000D02*
Y102197D01*
X292000Y100000D02*
Y103500D01*
X280500Y115000D02*
X292000Y103500D01*
X256127Y115000D02*
X280500D01*
X254000Y117127D02*
X256127Y115000D01*
X254000Y117127D02*
Y120500D01*
X141000Y67803D02*
Y70000D01*
X147000Y63500D02*
Y66500D01*
X228500Y30300D02*
X234800D01*
X230118Y62500D02*
Y66587D01*
X227202Y71200D02*
X232000Y66402D01*
X227699Y72400D02*
X233200Y66899D01*
X218500Y152067D02*
X225000Y145567D01*
Y134000D02*
Y145567D01*
X213967Y153000D02*
X216700Y150267D01*
X218603D01*
X223800Y145070D01*
X218106Y149067D02*
X222600Y144573D01*
X199732Y131768D02*
Y149941D01*
Y131768D02*
X202500Y129000D01*
X225000Y134000D02*
X228500Y130500D01*
Y105106D02*
Y130500D01*
X226161Y104661D02*
X227161Y105661D01*
X224961Y105158D02*
X225961Y106158D01*
X227500Y104106D02*
X228500Y105106D01*
X227500Y97236D02*
Y104106D01*
X226161Y95339D02*
Y104661D01*
Y95339D02*
X228500Y93000D01*
X242500Y126697D02*
Y137000D01*
Y126697D02*
X244400Y124797D01*
X232000Y135500D02*
X243200Y124300D01*
X229500Y134000D02*
X244000Y119500D01*
X243200Y121997D02*
X245200Y119997D01*
X243200Y121997D02*
Y124300D01*
X244400Y122494D02*
X246400Y120494D01*
X244400Y122494D02*
Y124797D01*
X228500Y93000D02*
X229300Y92200D01*
Y89697D02*
Y92200D01*
X215000Y84500D02*
X215550Y83950D01*
X216399D01*
X213000Y82500D02*
X216151D01*
X214500Y80000D02*
X232894D01*
X216151Y82500D02*
X217052Y81600D01*
X216399Y83950D02*
X217548Y82800D01*
X217052Y81600D02*
X232797D01*
X217548Y82800D02*
X232300D01*
X220000Y86500D02*
X226103D01*
X229300Y89697D01*
X219503Y85300D02*
X226600D01*
X220497Y87700D02*
X225426D01*
X217297Y90900D02*
X220497Y87700D01*
X224961Y93539D02*
Y105158D01*
X225426Y87700D02*
X227000Y89274D01*
Y91500D01*
X224961Y93539D02*
X227000Y91500D01*
X191500Y108000D02*
X192500Y109000D01*
X243700Y134066D02*
X248567Y138933D01*
X243700Y127194D02*
Y134066D01*
Y127194D02*
X245600Y125294D01*
Y122991D02*
Y125294D01*
Y122991D02*
X247600Y120991D01*
X215934Y78800D02*
X233391D01*
X202500Y109000D02*
X209000D01*
X211000Y107000D01*
X202500Y99000D02*
X206500Y103000D01*
X210000D01*
X226705Y70000D02*
X230118Y66587D01*
X214461Y77327D02*
X215934Y78800D01*
X177500Y77000D02*
Y77500D01*
X188000Y74500D02*
X192500Y79000D01*
X220361Y92100D02*
X223761Y95500D01*
Y105655D01*
X224761Y106655D01*
Y126739D01*
X222500Y129000D02*
X224761Y126739D01*
X142008Y81161D02*
X145013Y84167D01*
X150500Y60000D02*
X167000D01*
X150003Y58800D02*
X166503D01*
X166000Y72000D02*
Y77500D01*
X170500Y61800D02*
Y80000D01*
X166000Y72000D02*
X169300Y68700D01*
Y61303D02*
Y68700D01*
X166000Y62906D02*
Y68500D01*
X247600Y99100D02*
Y120991D01*
X244000Y95500D02*
X247600Y99100D01*
X244000Y89409D02*
Y95500D01*
X233391Y78800D02*
X244000Y89409D01*
X232894Y80000D02*
X242800Y89906D01*
Y95997D01*
X246400Y99597D01*
Y120494D01*
X232797Y81600D02*
X241600Y90403D01*
Y96494D01*
X245200Y100094D01*
Y119997D01*
X232300Y82800D02*
X240400Y90900D01*
Y96991D01*
X244000Y100591D01*
Y119500D01*
X231803Y84000D02*
X239200Y91397D01*
Y97488D01*
X242000Y100288D01*
Y101500D01*
X111500Y73500D02*
X117500Y67500D01*
X170500Y61800D02*
X178300Y54000D01*
X209000D01*
X169300Y61303D02*
X177953Y52650D01*
X211650D01*
X212000Y53000D01*
X166000Y62906D02*
X177906Y51000D01*
X214000D01*
X215000Y52000D01*
X177200Y49800D02*
X227200D01*
X167000Y60000D02*
X177200Y49800D01*
X166503Y58800D02*
X176803Y48500D01*
X215500D01*
X217500Y46500D01*
X227200Y49800D02*
X232500Y44500D01*
X239000Y74100D02*
X240579Y72521D01*
X83000Y73000D02*
X84000Y72000D01*
X83000Y73000D02*
Y87500D01*
X83700Y88200D01*
X157500Y71000D02*
X159500Y69000D01*
X175200Y82200D02*
X176000Y83000D01*
X175200Y76400D02*
Y82200D01*
Y76400D02*
X177100Y74500D01*
X188000D01*
X145013Y84167D02*
X147647D01*
X146339Y81161D02*
X164177Y99000D01*
X192500D01*
X147647Y84167D02*
X163680Y100200D01*
X181000D01*
X188800Y108000D01*
X191500D01*
X223800Y132300D02*
Y145070D01*
Y132300D02*
X227161Y128939D01*
Y105661D02*
Y128939D01*
X222600Y131600D02*
Y144573D01*
Y131600D02*
X225961Y128239D01*
Y106158D02*
Y128239D01*
X227500Y97236D02*
X230500Y94236D01*
X226600Y85300D02*
X230500Y89200D01*
Y94236D01*
X197803Y84500D02*
X200300Y86997D01*
Y89043D01*
X202757Y91500D01*
X198300Y83300D02*
X201500Y86500D01*
Y88546D01*
X203254Y90300D01*
X208800Y78000D02*
Y87772D01*
Y78000D02*
X215600Y71200D01*
X227202D01*
X207600Y77503D02*
X215103Y70000D01*
X207600Y77503D02*
Y88269D01*
X215103Y70000D02*
X226705D01*
X210000Y78400D02*
Y87275D01*
Y78400D02*
X216000Y72400D01*
X227699D01*
X212000Y86500D02*
X216500D01*
X219000Y84000D01*
X231803D01*
X138000Y69546D02*
X140454Y72000D01*
X149004D01*
X218500Y152067D02*
X219000Y152567D01*
Y152700D01*
X168232Y40232D02*
X172500Y44500D01*
X161098Y40232D02*
X168232D01*
X177032Y39032D02*
X182500Y44500D01*
X170528Y39032D02*
X177032D01*
X167323Y35827D02*
X170528Y39032D01*
X167323Y31496D02*
Y35827D01*
X157480Y36614D02*
X161098Y40232D01*
X157480Y33071D02*
Y36614D01*
D50*
X332500Y167000D02*
X342500D01*
X322500D02*
X332500D01*
X312500D02*
X322500D01*
X302500D02*
X312500D01*
X292500D02*
X302500D01*
X282500D02*
X292500D01*
X272500D02*
X282500D01*
X342500D02*
X348500Y161000D01*
Y114567D02*
Y161000D01*
D51*
X60000Y34500D02*
X92500D01*
X25400Y69100D02*
X60000Y34500D01*
X25400Y69100D02*
Y114600D01*
X25000Y115000D02*
X25400Y114600D01*
D53*
X86118Y-58874D02*
D03*
Y-38874D02*
D03*
X96118D02*
D03*
Y-58874D02*
D03*
X96119Y-139875D02*
D03*
Y-119875D02*
D03*
X86119D02*
D03*
Y-139875D02*
D03*
X222500Y157000D02*
D03*
X342500Y167000D02*
D03*
X332500D02*
D03*
X322500D02*
D03*
X312500D02*
D03*
X302500D02*
D03*
X292500D02*
D03*
X282500D02*
D03*
X272500D02*
D03*
X202500Y79000D02*
D03*
X192500D02*
D03*
X202500Y119000D02*
D03*
X192500D02*
D03*
X202500Y99000D02*
D03*
X192500D02*
D03*
X202500Y129000D02*
D03*
X192500D02*
D03*
X202500Y109000D02*
D03*
X192500D02*
D03*
X202500Y69000D02*
D03*
X192500D02*
D03*
X347500Y86500D02*
D03*
Y96500D02*
D03*
X96118Y-84874D02*
D03*
X76618Y-12874D02*
D03*
X86618D02*
D03*
X96618D02*
D03*
X106618D02*
D03*
X96118Y-165874D02*
D03*
X76118D02*
D03*
X174618Y-165374D02*
D03*
X154618D02*
D03*
X164618D02*
D03*
X62618D02*
D03*
X42618D02*
D03*
X52618D02*
D03*
X174618Y-83874D02*
D03*
X154618D02*
D03*
X164618D02*
D03*
X62618D02*
D03*
X42618D02*
D03*
X52618D02*
D03*
X96118Y-94874D02*
D03*
X322441Y11811D02*
D03*
D55*
X92500Y34500D02*
D03*
D56*
X7000Y44500D02*
D03*
Y34500D02*
D03*
D57*
X232500Y44500D02*
D03*
X322500Y34500D02*
D03*
X252500D02*
D03*
X182500Y44500D02*
D03*
X172500D02*
D03*
X102500Y34500D02*
D03*
Y44500D02*
D03*
D58*
X124114Y174000D02*
D03*
Y166126D02*
D03*
Y150378D02*
D03*
Y158252D02*
D03*
Y142504D02*
D03*
Y103134D02*
D03*
Y118882D02*
D03*
Y111008D02*
D03*
Y126756D02*
D03*
Y134630D02*
D03*
X37500D02*
D03*
Y126756D02*
D03*
Y111008D02*
D03*
Y118882D02*
D03*
Y103134D02*
D03*
Y142504D02*
D03*
Y158252D02*
D03*
Y150378D02*
D03*
Y166126D02*
D03*
Y174000D02*
D03*
D03*
Y166126D02*
D03*
Y150378D02*
D03*
Y158252D02*
D03*
Y142504D02*
D03*
Y103134D02*
D03*
Y118882D02*
D03*
Y111008D02*
D03*
Y126756D02*
D03*
Y134630D02*
D03*
X124114Y174000D02*
D03*
Y166126D02*
D03*
Y150378D02*
D03*
Y158252D02*
D03*
Y142504D02*
D03*
Y103134D02*
D03*
Y118882D02*
D03*
Y111008D02*
D03*
Y126756D02*
D03*
Y134630D02*
D03*
D59*
X173618Y-99074D02*
D03*
X120618Y-162074D02*
D03*
X61618Y-99074D02*
D03*
X8618Y-162074D02*
D03*
X173618Y-17574D02*
D03*
X120618Y-80574D02*
D03*
X61618Y-17574D02*
D03*
X8618Y-80574D02*
D03*
D61*
X240100Y30200D02*
D03*
X328700Y141900D02*
D03*
X317700Y141700D02*
D03*
X308500Y141900D02*
D03*
X302900Y124600D02*
D03*
X304700Y121900D02*
D03*
X302200Y120200D02*
D03*
X207500Y114000D02*
D03*
X211000Y153000D02*
D03*
X198508Y151165D02*
D03*
X194500Y152500D02*
D03*
X135000Y50000D02*
D03*
X189500Y40100D02*
D03*
X50433Y88000D02*
D03*
X84000Y88500D02*
D03*
X83900Y72400D02*
D03*
X67000Y40500D02*
D03*
X274000Y128500D02*
D03*
X275000Y135900D02*
D03*
X314000Y69000D02*
D03*
X111500Y82500D02*
D03*
X150000Y90500D02*
D03*
X331000Y58505D02*
D03*
X299000Y59500D02*
D03*
X280000Y57000D02*
D03*
X308500Y69500D02*
D03*
X51000Y57000D02*
D03*
X206500Y155500D02*
D03*
X190000D02*
D03*
X215000D02*
D03*
X210500Y116500D02*
D03*
X165500Y81500D02*
D03*
X162000D02*
D03*
X210600Y69500D02*
D03*
X261000Y78000D02*
D03*
X285000Y93000D02*
D03*
X302000Y80500D02*
D03*
X322250Y55250D02*
D03*
X269500Y90000D02*
D03*
X270000Y87000D02*
D03*
X295000Y98000D02*
D03*
X292000Y100000D02*
D03*
X212000Y53000D02*
D03*
X215000Y52000D02*
D03*
X209000Y54500D02*
D03*
X237600Y30300D02*
D03*
X230118Y62500D02*
D03*
X25000Y115000D02*
D03*
X255400Y99600D02*
D03*
X214000Y96200D02*
D03*
X254000Y120500D02*
D03*
X176000Y83000D02*
D03*
X242500Y137000D02*
D03*
X232000Y135500D02*
D03*
X229500Y134000D02*
D03*
X228500Y130500D02*
D03*
X242000Y101500D02*
D03*
X214200Y80000D02*
D03*
X213000Y82500D02*
D03*
X215000Y84500D02*
D03*
X212000Y86500D02*
D03*
X248567Y138933D02*
D03*
X258000Y145500D02*
D03*
X255000D02*
D03*
X146339Y81161D02*
D03*
X142008D02*
D03*
X147000Y66500D02*
D03*
X204000Y88400D02*
D03*
X212500Y94000D02*
D03*
X210000Y103000D02*
D03*
X211000Y107000D02*
D03*
X214300Y77100D02*
D03*
X141000Y70000D02*
D03*
X177500Y77000D02*
D03*
Y80500D02*
D03*
X157400Y70900D02*
D03*
X161600Y68900D02*
D03*
X166000Y68500D02*
D03*
X169000Y81500D02*
D03*
X222500Y129000D02*
D03*
X259000Y120000D02*
D03*
X217500Y46500D02*
D03*
X228500Y30000D02*
D03*
X239000Y74100D02*
D03*
X192600Y144600D02*
D03*
X228500Y93000D02*
D03*
X218700Y152600D02*
D03*
X230700Y76800D02*
D03*
X64118Y-124374D02*
D03*
X60118D02*
D03*
Y-154375D02*
D03*
X64118D02*
D03*
X48618Y-108374D02*
D03*
Y-26874D02*
D03*
X64118Y-72875D02*
D03*
X60118D02*
D03*
Y-42874D02*
D03*
X64118D02*
D03*
X67618D02*
D03*
X160618Y-108374D02*
D03*
X115118Y-106874D02*
D03*
X176118Y-154375D02*
D03*
X172118D02*
D03*
Y-124374D02*
D03*
X176118D02*
D03*
X179618D02*
D03*
X160618Y-26874D02*
D03*
X115118Y-25374D02*
D03*
X176118Y-72875D02*
D03*
X172118D02*
D03*
Y-42874D02*
D03*
X176118D02*
D03*
X179618D02*
D03*
X62858Y-139375D02*
D03*
X174858D02*
D03*
Y-57875D02*
D03*
X62858D02*
D03*
X228740Y14567D02*
D03*
X129134Y27953D02*
D03*
X116476Y23957D02*
D03*
X66476D02*
D03*
X167323Y31496D02*
D03*
X157480Y33071D02*
D03*
X3118Y-25374D02*
D03*
Y-106874D02*
D03*
X139961Y119327D02*
D03*
Y122327D02*
D03*
Y143327D02*
D03*
Y146327D02*
D03*
Y149327D02*
D03*
Y152327D02*
D03*
Y155327D02*
D03*
Y158327D02*
D03*
Y161327D02*
D03*
Y164327D02*
D03*
Y167327D02*
D03*
Y170327D02*
D03*
Y173327D02*
D03*
Y176327D02*
D03*
Y179327D02*
D03*
X142961Y119327D02*
D03*
Y143327D02*
D03*
Y146327D02*
D03*
Y149327D02*
D03*
Y152327D02*
D03*
Y155327D02*
D03*
Y158327D02*
D03*
Y161327D02*
D03*
Y164327D02*
D03*
Y167327D02*
D03*
Y170327D02*
D03*
Y173327D02*
D03*
Y176327D02*
D03*
Y179327D02*
D03*
X145961Y119327D02*
D03*
Y134327D02*
D03*
Y161327D02*
D03*
Y164327D02*
D03*
Y167327D02*
D03*
Y170327D02*
D03*
Y173327D02*
D03*
Y176327D02*
D03*
Y179327D02*
D03*
X148961Y119327D02*
D03*
Y125327D02*
D03*
Y128327D02*
D03*
Y134327D02*
D03*
Y164327D02*
D03*
Y167327D02*
D03*
Y170327D02*
D03*
Y173327D02*
D03*
Y176327D02*
D03*
Y179327D02*
D03*
X151961Y167327D02*
D03*
Y170327D02*
D03*
Y173327D02*
D03*
Y176327D02*
D03*
Y179327D02*
D03*
Y182327D02*
D03*
Y185327D02*
D03*
Y188327D02*
D03*
Y191327D02*
D03*
Y194327D02*
D03*
Y197327D02*
D03*
Y200327D02*
D03*
X154961Y134327D02*
D03*
Y167327D02*
D03*
Y170327D02*
D03*
Y173327D02*
D03*
Y176327D02*
D03*
Y179327D02*
D03*
Y182327D02*
D03*
Y185327D02*
D03*
Y188327D02*
D03*
Y191327D02*
D03*
Y194327D02*
D03*
Y197327D02*
D03*
Y200327D02*
D03*
X157961Y122327D02*
D03*
Y125327D02*
D03*
Y128327D02*
D03*
Y131327D02*
D03*
Y134327D02*
D03*
Y143327D02*
D03*
Y146327D02*
D03*
Y149327D02*
D03*
Y152327D02*
D03*
Y155327D02*
D03*
Y170327D02*
D03*
Y173327D02*
D03*
Y176327D02*
D03*
Y179327D02*
D03*
Y182327D02*
D03*
Y185327D02*
D03*
Y188327D02*
D03*
Y191327D02*
D03*
Y194327D02*
D03*
Y197327D02*
D03*
Y200327D02*
D03*
X160961Y119327D02*
D03*
Y122327D02*
D03*
Y125327D02*
D03*
Y128327D02*
D03*
Y131327D02*
D03*
Y134327D02*
D03*
X163961Y119327D02*
D03*
Y122327D02*
D03*
Y125327D02*
D03*
Y128327D02*
D03*
X166961Y158327D02*
D03*
Y161327D02*
D03*
Y173327D02*
D03*
Y176327D02*
D03*
Y179327D02*
D03*
Y182327D02*
D03*
Y185327D02*
D03*
Y188327D02*
D03*
Y191327D02*
D03*
Y194327D02*
D03*
Y197327D02*
D03*
Y200327D02*
D03*
X169961Y131327D02*
D03*
Y134327D02*
D03*
Y137327D02*
D03*
Y149327D02*
D03*
Y155327D02*
D03*
Y158327D02*
D03*
Y161327D02*
D03*
Y173327D02*
D03*
Y176327D02*
D03*
Y179327D02*
D03*
Y182327D02*
D03*
Y185327D02*
D03*
Y188327D02*
D03*
Y191327D02*
D03*
Y194327D02*
D03*
Y197327D02*
D03*
Y200327D02*
D03*
X172961Y119327D02*
D03*
Y122327D02*
D03*
Y125327D02*
D03*
Y128327D02*
D03*
Y131327D02*
D03*
Y134327D02*
D03*
Y137327D02*
D03*
Y140327D02*
D03*
Y143327D02*
D03*
Y146327D02*
D03*
Y149327D02*
D03*
Y155327D02*
D03*
Y158327D02*
D03*
Y161327D02*
D03*
Y173327D02*
D03*
Y176327D02*
D03*
Y179327D02*
D03*
Y182327D02*
D03*
Y185327D02*
D03*
Y188327D02*
D03*
Y191327D02*
D03*
Y194327D02*
D03*
Y197327D02*
D03*
Y200327D02*
D03*
X175961Y179327D02*
D03*
X178961Y155327D02*
D03*
Y167327D02*
D03*
Y179327D02*
D03*
X181961Y155327D02*
D03*
Y167327D02*
D03*
Y179327D02*
D03*
X184961Y155327D02*
D03*
Y167327D02*
D03*
Y179327D02*
D03*
X187961Y158327D02*
D03*
Y161327D02*
D03*
Y164327D02*
D03*
Y167327D02*
D03*
Y170327D02*
D03*
Y173327D02*
D03*
Y176327D02*
D03*
Y179327D02*
D03*
Y182327D02*
D03*
Y185327D02*
D03*
Y188327D02*
D03*
Y191327D02*
D03*
Y194327D02*
D03*
Y197327D02*
D03*
D62*
X24618Y-103059D02*
D03*
X28161Y-103060D02*
D03*
X21075Y-103059D02*
D03*
X24618Y-106602D02*
D03*
X28161Y-106603D02*
D03*
X21075Y-106602D02*
D03*
X28161Y-113689D02*
D03*
X21075Y-113688D02*
D03*
X24618Y-113688D02*
D03*
X21075Y-110145D02*
D03*
X28161Y-110146D02*
D03*
X24618Y-110145D02*
D03*
X136618Y-103059D02*
D03*
X140161Y-103060D02*
D03*
X133075Y-103059D02*
D03*
X136618Y-106602D02*
D03*
X140161Y-106603D02*
D03*
X133075Y-106602D02*
D03*
X140161Y-113689D02*
D03*
X133074Y-113688D02*
D03*
X136618Y-113688D02*
D03*
X133075Y-110145D02*
D03*
X140161Y-110146D02*
D03*
X136618Y-110145D02*
D03*
X136618Y-21559D02*
D03*
X140161Y-21560D02*
D03*
X133075Y-21559D02*
D03*
X136618Y-25102D02*
D03*
X140161Y-25103D02*
D03*
X133075Y-25102D02*
D03*
X140161Y-32189D02*
D03*
X133074Y-32188D02*
D03*
X136618Y-32188D02*
D03*
X133075Y-28645D02*
D03*
X140161Y-28646D02*
D03*
X136618Y-28645D02*
D03*
X24618Y-21559D02*
D03*
X28161Y-21560D02*
D03*
X21075Y-21559D02*
D03*
X24618Y-25102D02*
D03*
X28161Y-25103D02*
D03*
X21075Y-25102D02*
D03*
X28161Y-32189D02*
D03*
X21075Y-32188D02*
D03*
X24618Y-32188D02*
D03*
X21075Y-28645D02*
D03*
X28161Y-28646D02*
D03*
X24618Y-28645D02*
D03*
D63*
X86118Y-57398D02*
D03*
X86118Y-40351D02*
D03*
X96118D02*
D03*
X96118Y-57398D02*
D03*
X96119Y-138399D02*
D03*
X96119Y-121351D02*
D03*
X86119D02*
D03*
X86119Y-138399D02*
D03*
D64*
X201024Y79000D02*
D03*
X193976D02*
D03*
X201024Y119000D02*
D03*
X193976D02*
D03*
X201024Y99000D02*
D03*
X193976D02*
D03*
X201024Y129000D02*
D03*
X193976D02*
D03*
X201024Y109000D02*
D03*
X193976D02*
D03*
X201024Y69000D02*
D03*
X193976D02*
D03*
M02*
