G04 Layer_Color=128*
%FSLAX25Y25*%
%MOIN*%
G70*
G01*
G75*
%ADD14R,0.02362X0.02165*%
%ADD15R,0.02165X0.02362*%
%ADD18R,0.03937X0.02953*%
%ADD39R,0.02953X0.03937*%
%ADD44R,0.05118X0.10630*%
%ADD65R,0.02362X0.02362*%
%ADD66R,0.01575X0.02362*%
%ADD67R,0.05512X0.05512*%
%ADD68R,0.01969X0.02559*%
%ADD69R,0.02700X0.03000*%
%ADD70R,0.05512X0.04724*%
%ADD71O,0.07087X0.01181*%
%ADD72O,0.01181X0.07087*%
%ADD73R,0.03937X0.03740*%
%ADD74R,0.05118X0.05512*%
%ADD75R,0.05512X0.07480*%
%ADD76R,0.05512X0.07480*%
%ADD77R,0.03150X0.05906*%
%ADD78R,0.10630X0.10236*%
%ADD79R,0.03150X0.01378*%
%ADD80R,0.01378X0.03150*%
%ADD81R,0.02756X0.01378*%
%ADD82R,0.01378X0.02756*%
%ADD83R,0.02362X0.04724*%
%ADD84R,0.04331X0.02559*%
%ADD85O,0.01181X0.06299*%
%ADD88R,0.03740X0.03543*%
%ADD89R,0.03937X0.05512*%
%ADD90R,0.08268X0.05512*%
D14*
X330000Y121059D02*
D03*
Y125193D02*
D03*
X315000Y122193D02*
D03*
Y118059D02*
D03*
X220500Y145933D02*
D03*
Y150067D02*
D03*
X208000Y145933D02*
D03*
Y150067D02*
D03*
X195500Y145933D02*
D03*
Y150067D02*
D03*
X28500Y104933D02*
D03*
Y109067D02*
D03*
X252500Y143067D02*
D03*
Y138933D02*
D03*
X260500D02*
D03*
Y143067D02*
D03*
X230000Y75067D02*
D03*
Y70933D02*
D03*
X256500Y75067D02*
D03*
Y70933D02*
D03*
X234000D02*
D03*
Y75067D02*
D03*
X279500Y114067D02*
D03*
Y109933D02*
D03*
Y117933D02*
D03*
Y122067D02*
D03*
X81000Y68933D02*
D03*
Y73067D02*
D03*
Y81067D02*
D03*
Y76933D02*
D03*
X125000Y81433D02*
D03*
Y85567D02*
D03*
X246000Y75067D02*
D03*
Y70933D02*
D03*
X25000Y104933D02*
D03*
Y109067D02*
D03*
X113500Y176567D02*
D03*
Y172433D02*
D03*
D15*
X304764Y90500D02*
D03*
X300630D02*
D03*
Y95500D02*
D03*
X304764D02*
D03*
X282067Y132500D02*
D03*
X277933D02*
D03*
X267933D02*
D03*
X272067D02*
D03*
X182567Y91500D02*
D03*
X178433D02*
D03*
X304567Y104000D02*
D03*
X300433D02*
D03*
Y100000D02*
D03*
X304567D02*
D03*
X277433Y90000D02*
D03*
X281567D02*
D03*
Y94000D02*
D03*
X277433D02*
D03*
Y98000D02*
D03*
X281567D02*
D03*
X214567Y124000D02*
D03*
X210433D02*
D03*
Y120000D02*
D03*
X214567D02*
D03*
X73067Y90500D02*
D03*
X68933D02*
D03*
X76933D02*
D03*
X81067D02*
D03*
X38933D02*
D03*
X43067D02*
D03*
X41433Y68500D02*
D03*
X45567D02*
D03*
X60933Y90500D02*
D03*
X65067D02*
D03*
X57067D02*
D03*
X52933D02*
D03*
X37567Y68500D02*
D03*
X33433D02*
D03*
X70067Y37000D02*
D03*
X65933D02*
D03*
X100067Y78500D02*
D03*
X95933D02*
D03*
X305335Y55100D02*
D03*
X309469D02*
D03*
X272835D02*
D03*
X276969D02*
D03*
X33433Y58500D02*
D03*
X37567D02*
D03*
X33433Y54500D02*
D03*
X37567D02*
D03*
X5433Y188000D02*
D03*
X9567D02*
D03*
X156551Y-98374D02*
D03*
X160685D02*
D03*
X160685Y-94374D02*
D03*
X156551D02*
D03*
X156551Y-106374D02*
D03*
X160685D02*
D03*
X44551Y-98374D02*
D03*
X48685D02*
D03*
X48685Y-94374D02*
D03*
X44551D02*
D03*
X44551Y-106374D02*
D03*
X48685D02*
D03*
X156551Y-24874D02*
D03*
X160685D02*
D03*
X160685Y-12874D02*
D03*
X156551D02*
D03*
X156551Y-16874D02*
D03*
X160685D02*
D03*
X44551Y-24874D02*
D03*
X48685D02*
D03*
X48685Y-12874D02*
D03*
X44551D02*
D03*
X44551Y-16874D02*
D03*
X48685D02*
D03*
D18*
X220000Y70146D02*
D03*
Y75854D02*
D03*
X125618Y-127520D02*
D03*
Y-133228D02*
D03*
X119618D02*
D03*
Y-127520D02*
D03*
X13618D02*
D03*
Y-133228D02*
D03*
X7618D02*
D03*
Y-127520D02*
D03*
X119618Y-46020D02*
D03*
Y-51728D02*
D03*
X125618D02*
D03*
Y-46020D02*
D03*
X7618D02*
D03*
Y-51728D02*
D03*
X13618D02*
D03*
Y-46020D02*
D03*
D39*
X95146Y86000D02*
D03*
X100854D02*
D03*
X341752Y63476D02*
D03*
X347461D02*
D03*
Y56976D02*
D03*
X341752D02*
D03*
X159764Y-120374D02*
D03*
X165472D02*
D03*
X47764D02*
D03*
X53472D02*
D03*
X159764Y-38874D02*
D03*
X165472D02*
D03*
X47764D02*
D03*
X53472D02*
D03*
D44*
X153909Y-151374D02*
D03*
X165327D02*
D03*
X153909Y-138374D02*
D03*
X165327D02*
D03*
X41909Y-151374D02*
D03*
X53327D02*
D03*
X41909Y-138374D02*
D03*
X53327D02*
D03*
X153909Y-56874D02*
D03*
X165327D02*
D03*
X153909Y-69874D02*
D03*
X165327D02*
D03*
X41909Y-56874D02*
D03*
X53327D02*
D03*
X41909Y-69874D02*
D03*
X53327D02*
D03*
D65*
X319547Y125169D02*
D03*
X325453D02*
D03*
X319547Y118083D02*
D03*
X325453D02*
D03*
X160953Y65957D02*
D03*
X155047D02*
D03*
X160953Y73043D02*
D03*
X155047D02*
D03*
D66*
X322500Y125169D02*
D03*
Y118083D02*
D03*
X158000Y65957D02*
D03*
Y73043D02*
D03*
D67*
X162831Y95000D02*
D03*
X154169D02*
D03*
D68*
X176150Y67925D02*
D03*
Y71075D02*
D03*
Y64776D02*
D03*
Y74224D02*
D03*
X169850Y64776D02*
D03*
Y74224D02*
D03*
Y67925D02*
D03*
Y71075D02*
D03*
X28150Y165425D02*
D03*
Y168575D02*
D03*
Y162276D02*
D03*
Y171724D02*
D03*
X21850Y162276D02*
D03*
Y171724D02*
D03*
Y165425D02*
D03*
Y168575D02*
D03*
X27650Y145425D02*
D03*
Y148575D02*
D03*
Y142276D02*
D03*
Y151724D02*
D03*
X21350Y142276D02*
D03*
Y151724D02*
D03*
Y145425D02*
D03*
Y148575D02*
D03*
X299052Y67025D02*
D03*
Y70175D02*
D03*
Y63876D02*
D03*
Y73324D02*
D03*
X292753Y63876D02*
D03*
Y73324D02*
D03*
Y67025D02*
D03*
Y70175D02*
D03*
X331552Y67025D02*
D03*
Y70175D02*
D03*
Y63876D02*
D03*
Y73324D02*
D03*
X325253Y63876D02*
D03*
Y73324D02*
D03*
Y67025D02*
D03*
Y70175D02*
D03*
D69*
X172480Y97000D02*
D03*
X182618D02*
D03*
D70*
X285972Y119543D02*
D03*
X295028Y112457D02*
D03*
Y119543D02*
D03*
X285972Y112457D02*
D03*
D71*
X267350Y121764D02*
D03*
X267350Y119795D02*
D03*
Y117827D02*
D03*
Y115858D02*
D03*
X267350Y113890D02*
D03*
X267350Y111921D02*
D03*
X267350Y109953D02*
D03*
Y107984D02*
D03*
X267350Y106016D02*
D03*
Y104047D02*
D03*
Y102079D02*
D03*
Y100110D02*
D03*
X267350Y98142D02*
D03*
X267350Y96173D02*
D03*
X267350Y94205D02*
D03*
Y92236D02*
D03*
X223650D02*
D03*
Y94205D02*
D03*
X223650Y96173D02*
D03*
Y98142D02*
D03*
Y100110D02*
D03*
X223650Y102079D02*
D03*
X223650Y104047D02*
D03*
X223650Y106016D02*
D03*
Y107984D02*
D03*
Y109953D02*
D03*
X223650Y111921D02*
D03*
Y113890D02*
D03*
Y115858D02*
D03*
X223650Y117827D02*
D03*
Y119795D02*
D03*
Y121764D02*
D03*
D72*
X260264Y85150D02*
D03*
X258295Y85150D02*
D03*
X256327D02*
D03*
X254358D02*
D03*
X252390Y85150D02*
D03*
X250421Y85150D02*
D03*
X248453Y85150D02*
D03*
X246484Y85150D02*
D03*
X244516Y85150D02*
D03*
X242547D02*
D03*
X240579D02*
D03*
X238610Y85150D02*
D03*
X236642Y85150D02*
D03*
X234673D02*
D03*
X232705D02*
D03*
X230736Y85150D02*
D03*
X230736Y128850D02*
D03*
X232705Y128850D02*
D03*
X234673D02*
D03*
X236642Y128850D02*
D03*
X238610Y128850D02*
D03*
X240579D02*
D03*
X242547Y128850D02*
D03*
X244516Y128850D02*
D03*
X246484Y128850D02*
D03*
X248453D02*
D03*
X250421Y128850D02*
D03*
X252390Y128850D02*
D03*
X254358D02*
D03*
X256327D02*
D03*
X258295Y128850D02*
D03*
X260264D02*
D03*
D73*
X66543Y141284D02*
D03*
D74*
X83512Y142169D02*
D03*
X61071D02*
D03*
D75*
X54772Y193941D02*
D03*
D76*
X106543Y198075D02*
D03*
D77*
X88197Y184925D02*
D03*
X83866Y183350D02*
D03*
X79535Y184925D02*
D03*
X75205Y185713D02*
D03*
X70874Y184925D02*
D03*
X66543Y185713D02*
D03*
X62213Y184925D02*
D03*
X57882D02*
D03*
D78*
X67500Y77000D02*
D03*
D79*
X59626Y72079D02*
D03*
Y74047D02*
D03*
Y76016D02*
D03*
Y77984D02*
D03*
Y79953D02*
D03*
Y81921D02*
D03*
X75374Y72079D02*
D03*
Y74047D02*
D03*
Y76016D02*
D03*
Y77984D02*
D03*
Y79953D02*
D03*
Y81921D02*
D03*
D80*
X72421Y84874D02*
D03*
X70453D02*
D03*
X68484D02*
D03*
X66516D02*
D03*
X64547D02*
D03*
X62579D02*
D03*
X62579Y69126D02*
D03*
X64547D02*
D03*
X66516D02*
D03*
X68484D02*
D03*
X70453D02*
D03*
X72421D02*
D03*
D81*
X34587Y76547D02*
D03*
Y78516D02*
D03*
Y80484D02*
D03*
Y82453D02*
D03*
X45413Y82453D02*
D03*
Y80484D02*
D03*
Y78516D02*
D03*
Y76547D02*
D03*
D82*
X42953Y74087D02*
D03*
X40984D02*
D03*
X39016D02*
D03*
X37047D02*
D03*
X42953Y84913D02*
D03*
X40984D02*
D03*
X39016D02*
D03*
X37047D02*
D03*
D83*
X69882Y45169D02*
D03*
X64961D02*
D03*
X60039D02*
D03*
X55118D02*
D03*
X69882Y53831D02*
D03*
X64961D02*
D03*
X60039D02*
D03*
X55118D02*
D03*
D84*
X118012Y85740D02*
D03*
Y82000D02*
D03*
Y78260D02*
D03*
X106988D02*
D03*
Y85740D02*
D03*
D85*
X284741Y61907D02*
D03*
X282182D02*
D03*
X279623D02*
D03*
X277064D02*
D03*
X284741Y75293D02*
D03*
X282182D02*
D03*
X279623D02*
D03*
X277064D02*
D03*
X317241Y61907D02*
D03*
X314682D02*
D03*
X312123D02*
D03*
X309564D02*
D03*
X317241Y75293D02*
D03*
X314682D02*
D03*
X312123D02*
D03*
X309564D02*
D03*
D88*
X25000Y130701D02*
D03*
Y118299D02*
D03*
D89*
X158878Y-128374D02*
D03*
X166358D02*
D03*
X46878D02*
D03*
X54358D02*
D03*
X158878Y-46874D02*
D03*
X166358D02*
D03*
X46878D02*
D03*
X54358D02*
D03*
D90*
X107118Y-41713D02*
D03*
Y-59035D02*
D03*
X74618Y-41713D02*
D03*
Y-59035D02*
D03*
M02*
